{"glyphs":{"0":{"ha":758,"x_min":29,"x_max":769,"o":"m 309 -14 q 87 87 157 -14 q 29 333 29 172 q 44 519 29 428 q 89 690 60 610 q 160 836 118 770 q 254 949 202 902 q 370 1023 308 998 q 502 1049 433 1049 q 705 958 635 1049 q 753 852 736 914 q 769 715 769 791 q 745 488 769 606 q 667 249 719 355 q 526 62 608 127 q 309 -14 429 -14 m 328 91 q 393 118 361 91 q 454 194 425 144 q 546 446 511 292 q 581 764 581 605 q 562 906 581 850 q 500 966 540 966 q 435 939 467 966 q 373 862 403 911 q 319 748 344 812 q 276 609 294 683 q 237 298 237 450 q 254 155 237 205 q 328 91 276 91 z "},"1":{"ha":440,"x_min":29,"x_max":450,"o":"m 212 867 l 81 867 l 97 930 q 239 947 174 930 q 450 1039 343 975 l 229 0 l 29 0 l 212 867 z "},"2":{"ha":684,"x_min":-17,"x_max":656,"o":"m 435 -17 q 377 -11 406 -17 q 298 11 349 -4 q 218 32 252 24 q 151 39 185 39 q 75 30 113 39 q -3 -1 37 20 l -9 -1 q -17 62 -17 31 q 4 158 -17 113 q 132 331 39 239 q 216 414 187 387 q 311 511 275 473 q 375 590 347 549 q 428 689 410 640 q 447 793 447 739 q 422 916 447 872 q 343 964 395 964 q 299 956 319 964 q 264 932 278 947 q 241 895 250 916 q 233 852 233 874 q 252 767 233 804 q 300 713 271 731 l 300 708 q 248 674 276 686 q 195 661 220 661 q 156 671 174 661 q 124 699 138 680 q 94 805 94 739 q 114 889 94 847 q 169 966 133 932 q 262 1022 208 1002 q 386 1042 317 1042 q 494 1025 445 1042 q 580 975 544 1008 q 636 895 616 942 q 656 789 656 848 q 592 612 656 697 q 528 541 565 576 q 443 467 491 506 q 357 401 386 422 q 201 264 258 326 q 146 191 168 230 q 231 201 184 201 q 358 185 284 201 q 419 173 397 177 q 463 170 442 170 q 532 185 500 170 q 599 240 564 201 l 603 237 q 621 151 621 188 q 606 83 621 114 q 564 30 591 52 q 505 -5 538 7 q 435 -17 471 -17 z "},"3":{"ha":714,"x_min":8,"x_max":692,"o":"m 285 -7 q 178 7 228 -7 q 62 73 104 26 q 8 229 8 131 q 19 309 8 273 q 51 372 30 346 q 176 428 96 428 q 245 413 220 428 q 285 357 277 393 q 184 300 214 352 q 163 207 163 263 q 199 113 163 148 q 281 81 231 81 q 345 96 313 81 q 403 139 377 111 q 461 318 461 205 q 450 398 461 358 q 417 472 439 437 q 277 581 368 550 q 377 627 333 597 q 454 696 422 657 q 499 774 484 734 q 514 851 514 814 q 488 933 514 903 q 408 965 460 965 q 328 936 359 965 q 298 857 298 906 q 311 798 298 823 q 351 758 324 766 q 245 711 300 711 q 207 719 225 711 q 175 742 189 727 q 146 829 146 773 q 168 915 146 876 q 229 982 189 954 q 320 1025 268 1010 q 433 1040 373 1040 q 544 1024 495 1040 q 627 979 593 1008 q 675 915 659 951 q 692 838 692 878 q 644 699 692 765 q 501 579 592 625 q 635 487 589 551 q 676 350 676 429 q 627 183 676 264 q 492 48 576 99 q 285 -7 400 -7 z "},"4":{"ha":661,"x_min":-3,"x_max":663,"o":"m 363 299 l 336 307 q 252 329 286 322 q 182 336 218 336 q 103 330 140 336 q 32 307 66 324 l 26 307 l -3 361 l -3 368 q 208 653 137 534 q 301 935 301 812 q 290 1021 301 981 q 359 1030 321 1030 q 458 996 422 1030 q 483 957 474 979 q 492 910 492 935 q 433 755 492 847 q 297 587 383 677 q 146 448 216 502 l 147 444 q 206 461 172 454 q 271 469 239 469 q 320 465 294 469 q 389 453 345 461 l 415 448 l 528 772 l 616 772 l 548 450 q 636 515 594 467 l 640 513 q 663 437 663 475 q 621 340 663 382 q 513 286 578 298 l 453 0 l 260 0 l 363 299 z "},"5":{"ha":718,"x_min":21,"x_max":697,"o":"m 274 -7 q 86 45 151 -7 q 21 195 21 98 q 34 274 21 238 q 71 336 47 310 q 201 390 121 390 q 300 319 286 390 q 209 278 242 313 q 175 191 175 244 q 203 114 175 142 q 281 86 232 86 q 356 105 321 86 q 414 159 390 123 q 452 240 439 193 q 465 342 465 287 q 426 491 465 439 q 313 543 386 543 q 230 528 274 543 q 131 480 186 513 l 112 494 l 220 1019 q 452 1001 366 1001 q 573 1010 515 1001 q 694 1040 632 1019 q 697 994 697 1019 q 662 881 697 923 q 538 833 622 833 q 415 848 492 833 q 355 860 389 852 l 306 868 l 250 616 q 422 660 338 660 q 524 640 478 660 q 602 583 569 621 q 651 492 634 546 q 668 374 668 439 q 640 220 668 290 q 559 98 612 150 q 435 20 508 47 q 274 -7 361 -7 z "},"6":{"ha":694,"x_min":22,"x_max":709,"o":"m 306 -7 q 179 14 232 -7 q 92 79 125 35 q 39 192 56 123 q 22 359 22 262 q 88 705 22 544 q 163 842 119 780 q 262 948 208 904 q 379 1017 317 993 q 507 1040 441 1040 q 590 1029 552 1040 q 654 998 627 1018 q 694 947 680 977 q 709 883 709 918 q 701 833 709 857 q 680 793 694 810 q 647 765 665 775 q 607 755 629 755 q 564 768 584 755 q 536 800 545 780 q 570 833 558 811 q 582 880 582 855 q 564 935 582 914 q 509 958 544 958 q 425 924 467 958 q 346 828 383 890 q 280 681 309 766 q 237 500 252 597 l 242 501 q 323 598 267 565 q 458 631 380 631 q 545 615 506 631 q 612 568 585 599 q 656 491 641 536 q 671 391 671 447 q 621 197 671 290 q 489 51 572 106 q 401 8 448 23 q 306 -7 354 -7 m 335 102 q 393 123 364 102 q 444 184 421 145 q 481 276 467 224 q 494 387 494 328 q 463 500 494 463 q 383 533 435 533 q 262 471 301 533 q 225 304 225 412 q 255 148 225 199 q 335 102 282 102 z "},"7":{"ha":644,"x_min":79,"x_max":724,"o":"m 243 -5 q 142 39 178 -5 q 104 163 104 85 q 168 379 104 260 q 308 581 213 463 q 383 671 343 626 q 494 814 464 765 q 512 863 512 844 q 459 848 478 852 q 419 844 440 844 q 378 848 399 844 q 330 860 357 852 q 281 871 302 867 q 238 875 260 875 q 165 858 197 875 q 101 803 134 842 l 97 804 q 79 889 79 844 q 93 955 79 925 q 132 1006 106 985 q 193 1039 158 1027 q 270 1050 229 1050 q 326 1045 300 1050 q 397 1028 351 1040 q 469 1011 439 1017 q 534 1006 498 1006 q 722 1035 613 1006 l 724 1029 q 708 972 724 1008 q 661 886 692 937 q 595 783 633 842 q 445 542 503 644 q 333 286 366 403 q 315 164 315 221 q 340 20 315 90 q 243 -5 294 -5 z "},"8":{"ha":693,"x_min":-3,"x_max":698,"o":"m 313 -8 q 188 11 245 -8 q 88 64 130 29 q 22 148 45 99 q -3 256 -2 197 q 60 429 -3 356 q 261 564 123 503 q 174 672 204 623 q 136 797 136 734 q 159 895 136 849 q 222 977 181 941 q 318 1031 263 1012 q 435 1051 372 1051 q 538 1038 490 1051 q 622 998 587 1024 q 677 937 657 972 q 698 859 696 901 q 648 727 698 789 q 494 608 597 665 q 565 539 537 568 q 614 479 592 511 q 672 314 669 401 q 645 191 672 250 q 569 89 618 133 q 454 19 519 44 q 313 -8 388 -7 m 435 663 q 518 767 488 707 q 549 880 549 826 q 524 957 549 929 q 456 985 499 985 q 407 975 430 985 q 368 945 384 964 q 342 902 351 927 q 333 846 333 876 q 363 749 333 797 q 435 663 389 707 m 313 87 q 373 101 345 87 q 422 139 401 115 q 454 195 443 163 q 466 261 466 227 q 420 391 465 323 q 377 446 401 418 q 318 507 353 473 q 216 397 252 462 q 180 258 180 333 q 218 134 180 180 q 313 87 254 87 z "},"9":{"ha":679,"x_min":18,"x_max":684,"o":"m 220 -4 q 137 7 174 -4 q 73 39 100 18 q 18 153 18 81 q 47 244 18 208 q 118 282 76 282 q 163 270 143 282 q 189 237 182 257 q 156 203 168 225 q 144 158 144 182 q 162 110 144 130 q 214 90 180 90 q 297 125 256 90 q 374 222 338 159 q 433 369 408 284 q 471 550 458 453 l 467 549 q 386 452 442 485 q 251 418 330 418 q 163 435 203 418 q 96 482 124 451 q 53 558 68 514 q 37 659 37 603 q 92 850 37 760 q 154 928 117 892 q 233 989 190 964 q 425 1042 321 1042 q 619 951 554 1042 q 684 677 684 859 q 668 495 684 583 q 621 332 652 408 q 549 194 591 256 q 456 88 507 132 q 344 20 404 43 q 220 -4 284 -4 m 311 519 q 446 591 402 519 q 485 775 485 656 q 469 887 485 844 q 383 951 445 951 q 317 926 348 951 q 262 859 286 901 q 227 766 239 818 q 214 663 214 715 q 241 553 214 590 q 311 519 267 519 z "},"\u0000":{"ha":0,"x_min":0,"x_max":0,"o":""},"\r":{"ha":301,"x_min":0,"x_max":0,"o":""}," ":{"ha":301,"x_min":0,"x_max":0,"o":""},"A":{"ha":928,"x_min":12,"x_max":961,"o":"m 302 -158 q 236 -155 264 -158 q 182 -138 208 -151 q 117 -11 117 -106 q 131 100 117 35 q 173 239 146 164 q 321 554 233 403 q 211 533 252 550 q 158 482 171 517 q 170 468 164 482 q 176 439 176 454 q 154 399 176 414 q 98 385 132 385 q 37 405 61 385 q 12 465 12 426 q 33 531 12 500 q 93 586 54 563 q 184 623 132 610 q 296 636 236 636 q 368 632 325 636 q 602 920 485 816 q 851 1042 737 1042 q 961 1022 919 1042 l 743 0 l 543 0 l 650 504 q 556 538 600 527 q 464 554 512 550 q 335 206 385 384 q 283 -81 283 28 q 302 -158 283 -134 m 743 943 q 616 821 683 911 q 493 614 551 731 q 663 566 588 595 l 743 943 z "},"Á":{"ha":928,"x_min":12,"x_max":1069,"o":"m 924 1389 l 1069 1389 l 901 1126 l 797 1126 l 924 1389 m 302 -158 q 236 -155 264 -158 q 182 -138 208 -151 q 117 -11 117 -106 q 131 100 117 35 q 173 239 146 164 q 321 554 233 403 q 211 533 252 550 q 158 482 171 517 q 170 468 164 482 q 176 439 176 454 q 154 399 176 414 q 98 385 132 385 q 37 405 61 385 q 12 465 12 426 q 33 531 12 500 q 93 586 54 563 q 184 623 132 610 q 296 636 236 636 q 368 632 325 636 q 602 920 485 816 q 851 1042 737 1042 q 961 1022 919 1042 l 743 0 l 543 0 l 650 504 q 556 538 600 527 q 464 554 512 550 q 335 206 385 384 q 283 -81 283 28 q 302 -158 283 -134 m 743 943 q 616 821 683 911 q 493 614 551 731 q 663 566 588 595 l 743 943 z "},"Ă":{"ha":928,"x_min":12,"x_max":1145,"o":"m 852 1133 q 695 1181 749 1133 q 641 1324 641 1230 l 765 1324 q 793 1239 765 1269 q 874 1209 822 1209 q 928 1218 902 1209 q 976 1243 955 1227 q 1009 1280 996 1259 q 1026 1324 1023 1301 l 1145 1324 q 1114 1250 1139 1284 q 1049 1188 1089 1215 q 959 1147 1010 1162 q 852 1133 909 1133 m 302 -158 q 236 -155 264 -158 q 182 -138 208 -151 q 117 -11 117 -106 q 131 100 117 35 q 173 239 146 164 q 321 554 233 403 q 211 533 252 550 q 158 482 171 517 q 170 468 164 482 q 176 439 176 454 q 154 399 176 414 q 98 385 132 385 q 37 405 61 385 q 12 465 12 426 q 33 531 12 500 q 93 586 54 563 q 184 623 132 610 q 296 636 236 636 q 368 632 325 636 q 602 920 485 816 q 851 1042 737 1042 q 961 1022 919 1042 l 743 0 l 543 0 l 650 504 q 556 538 600 527 q 464 554 512 550 q 335 206 385 384 q 283 -81 283 28 q 302 -158 283 -134 m 743 943 q 616 821 683 911 q 493 614 551 731 q 663 566 588 595 l 743 943 z "},"Ắ":{"ha":928,"x_min":12,"x_max":1110,"o":"m 936 1389 l 1045 1389 l 924 1203 l 850 1203 l 936 1389 m 865 1087 q 732 1128 777 1087 q 687 1248 687 1168 l 791 1248 q 815 1176 791 1201 q 882 1152 839 1152 q 968 1180 930 1152 q 1010 1248 1006 1209 l 1110 1248 q 1084 1185 1105 1215 q 1029 1133 1063 1156 q 954 1099 996 1111 q 865 1087 911 1087 m 302 -158 q 236 -155 264 -158 q 182 -138 208 -151 q 117 -11 117 -106 q 131 100 117 35 q 173 239 146 164 q 321 554 233 403 q 211 533 252 550 q 158 482 171 517 q 170 468 164 482 q 176 439 176 454 q 154 399 176 414 q 98 385 132 385 q 37 405 61 385 q 12 465 12 426 q 33 531 12 500 q 93 586 54 563 q 184 623 132 610 q 296 636 236 636 q 368 632 325 636 q 602 920 485 816 q 851 1042 737 1042 q 961 1022 919 1042 l 743 0 l 543 0 l 650 504 q 556 538 600 527 q 464 554 512 550 q 335 206 385 384 q 283 -81 283 28 q 302 -158 283 -134 m 743 943 q 616 821 683 911 q 493 614 551 731 q 663 566 588 595 l 743 943 z "},"Ặ":{"ha":928,"x_min":12,"x_max":1145,"o":"m 852 1133 q 695 1181 749 1133 q 641 1324 641 1230 l 765 1324 q 793 1239 765 1269 q 874 1209 822 1209 q 928 1218 902 1209 q 976 1243 955 1227 q 1009 1280 996 1259 q 1026 1324 1023 1301 l 1145 1324 q 1114 1250 1139 1284 q 1049 1188 1089 1215 q 959 1147 1010 1162 q 852 1133 909 1133 m 302 -158 q 236 -155 264 -158 q 182 -138 208 -151 q 117 -11 117 -106 q 131 100 117 35 q 173 239 146 164 q 321 554 233 403 q 211 533 252 550 q 158 482 171 517 q 170 468 164 482 q 176 439 176 454 q 154 399 176 414 q 98 385 132 385 q 37 405 61 385 q 12 465 12 426 q 33 531 12 500 q 93 586 54 563 q 184 623 132 610 q 296 636 236 636 q 368 632 325 636 q 602 920 485 816 q 851 1042 737 1042 q 961 1022 919 1042 l 743 0 l 543 0 l 650 504 q 556 538 600 527 q 464 554 512 550 q 335 206 385 384 q 283 -81 283 28 q 302 -158 283 -134 m 743 943 q 616 821 683 911 q 493 614 551 731 q 663 566 588 595 l 743 943 m 517 -321 q 475 -312 495 -321 q 439 -289 454 -304 q 416 -254 425 -274 q 408 -211 408 -233 q 416 -168 408 -189 q 439 -132 425 -148 q 475 -108 454 -117 q 517 -100 495 -100 q 560 -108 540 -100 q 596 -132 581 -117 q 620 -168 612 -148 q 629 -211 629 -189 q 620 -254 629 -233 q 596 -289 612 -274 q 560 -312 581 -304 q 517 -321 540 -321 z "},"Ằ":{"ha":928,"x_min":12,"x_max":1110,"o":"m 802 1388 l 913 1388 l 940 1202 l 864 1202 l 802 1388 m 865 1087 q 732 1128 777 1087 q 687 1248 687 1168 l 791 1248 q 815 1176 791 1201 q 882 1152 839 1152 q 968 1180 930 1152 q 1010 1248 1006 1209 l 1110 1248 q 1084 1185 1105 1215 q 1029 1133 1063 1156 q 954 1099 996 1111 q 865 1087 911 1087 m 302 -158 q 236 -155 264 -158 q 182 -138 208 -151 q 117 -11 117 -106 q 131 100 117 35 q 173 239 146 164 q 321 554 233 403 q 211 533 252 550 q 158 482 171 517 q 170 468 164 482 q 176 439 176 454 q 154 399 176 414 q 98 385 132 385 q 37 405 61 385 q 12 465 12 426 q 33 531 12 500 q 93 586 54 563 q 184 623 132 610 q 296 636 236 636 q 368 632 325 636 q 602 920 485 816 q 851 1042 737 1042 q 961 1022 919 1042 l 743 0 l 543 0 l 650 504 q 556 538 600 527 q 464 554 512 550 q 335 206 385 384 q 283 -81 283 28 q 302 -158 283 -134 m 743 943 q 616 821 683 911 q 493 614 551 731 q 663 566 588 595 l 743 943 z "},"Ẳ":{"ha":928,"x_min":12,"x_max":1110,"o":"m 847 1189 l 847 1274 q 890 1268 867 1268 q 937 1305 937 1268 q 890 1340 937 1340 q 832 1324 858 1340 l 807 1364 q 849 1382 823 1375 q 901 1389 875 1389 q 975 1367 946 1389 q 1003 1311 1003 1345 q 974 1253 1003 1276 q 898 1226 945 1230 l 894 1186 l 847 1189 m 865 1087 q 732 1128 777 1087 q 687 1248 687 1168 l 770 1248 q 780 1207 770 1225 q 805 1177 789 1190 q 882 1152 838 1152 q 932 1159 907 1152 q 978 1180 957 1166 q 1031 1248 1026 1211 l 1110 1248 q 1084 1185 1105 1215 q 1029 1133 1063 1156 q 954 1099 996 1111 q 865 1087 911 1087 m 302 -158 q 236 -155 264 -158 q 182 -138 208 -151 q 117 -11 117 -106 q 131 100 117 35 q 173 239 146 164 q 321 554 233 403 q 211 533 252 550 q 158 482 171 517 q 170 468 164 482 q 176 439 176 454 q 154 399 176 414 q 98 385 132 385 q 37 405 61 385 q 12 465 12 426 q 33 531 12 500 q 93 586 54 563 q 184 623 132 610 q 296 636 236 636 q 368 632 325 636 q 602 920 485 816 q 851 1042 737 1042 q 961 1022 919 1042 l 743 0 l 543 0 l 650 504 q 556 538 600 527 q 464 554 512 550 q 335 206 385 384 q 283 -81 283 28 q 302 -158 283 -134 m 743 943 q 616 821 683 911 q 493 614 551 731 q 663 566 588 595 l 743 943 z "},"Ẵ":{"ha":928,"x_min":12,"x_max":1110,"o":"m 951 1278 q 911 1283 929 1278 q 865 1297 892 1287 q 844 1304 860 1298 q 813 1312 827 1310 q 786 1315 799 1315 q 722 1290 749 1315 l 716 1292 q 781 1363 739 1339 q 880 1388 823 1388 q 923 1384 903 1388 q 966 1372 942 1380 q 1007 1359 991 1363 q 1042 1356 1023 1356 q 1103 1378 1082 1356 l 1109 1377 q 1091 1342 1105 1360 q 1055 1310 1076 1324 q 951 1278 1004 1278 m 865 1087 q 732 1128 777 1087 q 687 1248 687 1168 l 791 1248 q 815 1176 791 1201 q 882 1152 839 1152 q 968 1180 930 1152 q 1010 1248 1006 1209 l 1110 1248 q 1084 1185 1105 1215 q 1029 1133 1063 1156 q 954 1099 996 1111 q 865 1087 911 1087 m 302 -158 q 236 -155 264 -158 q 182 -138 208 -151 q 117 -11 117 -106 q 131 100 117 35 q 173 239 146 164 q 321 554 233 403 q 211 533 252 550 q 158 482 171 517 q 170 468 164 482 q 176 439 176 454 q 154 399 176 414 q 98 385 132 385 q 37 405 61 385 q 12 465 12 426 q 33 531 12 500 q 93 586 54 563 q 184 623 132 610 q 296 636 236 636 q 368 632 325 636 q 602 920 485 816 q 851 1042 737 1042 q 961 1022 919 1042 l 743 0 l 543 0 l 650 504 q 556 538 600 527 q 464 554 512 550 q 335 206 385 384 q 283 -81 283 28 q 302 -158 283 -134 m 743 943 q 616 821 683 911 q 493 614 551 731 q 663 566 588 595 l 743 943 z "},"Ǎ":{"ha":928,"x_min":12,"x_max":1189,"o":"m 782 1389 l 826 1389 l 909 1278 l 1128 1389 l 1189 1389 l 895 1126 l 865 1126 l 782 1389 m 302 -158 q 236 -155 264 -158 q 182 -138 208 -151 q 117 -11 117 -106 q 131 100 117 35 q 173 239 146 164 q 321 554 233 403 q 211 533 252 550 q 158 482 171 517 q 170 468 164 482 q 176 439 176 454 q 154 399 176 414 q 98 385 132 385 q 37 405 61 385 q 12 465 12 426 q 33 531 12 500 q 93 586 54 563 q 184 623 132 610 q 296 636 236 636 q 368 632 325 636 q 602 920 485 816 q 851 1042 737 1042 q 961 1022 919 1042 l 743 0 l 543 0 l 650 504 q 556 538 600 527 q 464 554 512 550 q 335 206 385 384 q 283 -81 283 28 q 302 -158 283 -134 m 743 943 q 616 821 683 911 q 493 614 551 731 q 663 566 588 595 l 743 943 z "},"Â":{"ha":928,"x_min":12,"x_max":1061,"o":"m 948 1389 l 977 1389 l 1061 1126 l 1016 1126 l 932 1238 l 715 1126 l 654 1126 l 948 1389 m 302 -158 q 236 -155 264 -158 q 182 -138 208 -151 q 117 -11 117 -106 q 131 100 117 35 q 173 239 146 164 q 321 554 233 403 q 211 533 252 550 q 158 482 171 517 q 170 468 164 482 q 176 439 176 454 q 154 399 176 414 q 98 385 132 385 q 37 405 61 385 q 12 465 12 426 q 33 531 12 500 q 93 586 54 563 q 184 623 132 610 q 296 636 236 636 q 368 632 325 636 q 602 920 485 816 q 851 1042 737 1042 q 961 1022 919 1042 l 743 0 l 543 0 l 650 504 q 556 538 600 527 q 464 554 512 550 q 335 206 385 384 q 283 -81 283 28 q 302 -158 283 -134 m 743 943 q 616 821 683 911 q 493 614 551 731 q 663 566 588 595 l 743 943 z "},"Ấ":{"ha":928,"x_min":12,"x_max":1194,"o":"m 1099 1389 l 1194 1389 l 1074 1203 l 1013 1203 l 1099 1389 m 927 1320 l 951 1320 l 1021 1126 l 959 1126 l 914 1226 l 761 1126 l 680 1126 l 927 1320 m 302 -158 q 236 -155 264 -158 q 182 -138 208 -151 q 117 -11 117 -106 q 131 100 117 35 q 173 239 146 164 q 321 554 233 403 q 211 533 252 550 q 158 482 171 517 q 170 468 164 482 q 176 439 176 454 q 154 399 176 414 q 98 385 132 385 q 37 405 61 385 q 12 465 12 426 q 33 531 12 500 q 93 586 54 563 q 184 623 132 610 q 296 636 236 636 q 368 632 325 636 q 602 920 485 816 q 851 1042 737 1042 q 961 1022 919 1042 l 743 0 l 543 0 l 650 504 q 556 538 600 527 q 464 554 512 550 q 335 206 385 384 q 283 -81 283 28 q 302 -158 283 -134 m 743 943 q 616 821 683 911 q 493 614 551 731 q 663 566 588 595 l 743 943 z "},"Ậ":{"ha":928,"x_min":12,"x_max":1061,"o":"m 948 1389 l 977 1389 l 1061 1126 l 1016 1126 l 932 1238 l 715 1126 l 654 1126 l 948 1389 m 302 -158 q 236 -155 264 -158 q 182 -138 208 -151 q 117 -11 117 -106 q 131 100 117 35 q 173 239 146 164 q 321 554 233 403 q 211 533 252 550 q 158 482 171 517 q 170 468 164 482 q 176 439 176 454 q 154 399 176 414 q 98 385 132 385 q 37 405 61 385 q 12 465 12 426 q 33 531 12 500 q 93 586 54 563 q 184 623 132 610 q 296 636 236 636 q 368 632 325 636 q 602 920 485 816 q 851 1042 737 1042 q 961 1022 919 1042 l 743 0 l 543 0 l 650 504 q 556 538 600 527 q 464 554 512 550 q 335 206 385 384 q 283 -81 283 28 q 302 -158 283 -134 m 743 943 q 616 821 683 911 q 493 614 551 731 q 663 566 588 595 l 743 943 m 517 -321 q 475 -312 495 -321 q 439 -289 454 -304 q 416 -254 425 -274 q 408 -211 408 -233 q 416 -168 408 -189 q 439 -132 425 -148 q 475 -108 454 -117 q 517 -100 495 -100 q 560 -108 540 -100 q 596 -132 581 -117 q 620 -168 612 -148 q 629 -211 629 -189 q 620 -254 629 -233 q 596 -289 612 -274 q 560 -312 581 -304 q 517 -321 540 -321 z "},"Ầ":{"ha":928,"x_min":12,"x_max":1130,"o":"m 1011 1388 l 1103 1388 l 1130 1202 l 1074 1202 l 1011 1388 m 927 1320 l 951 1320 l 1021 1126 l 959 1126 l 914 1226 l 761 1126 l 680 1126 l 927 1320 m 302 -158 q 236 -155 264 -158 q 182 -138 208 -151 q 117 -11 117 -106 q 131 100 117 35 q 173 239 146 164 q 321 554 233 403 q 211 533 252 550 q 158 482 171 517 q 170 468 164 482 q 176 439 176 454 q 154 399 176 414 q 98 385 132 385 q 37 405 61 385 q 12 465 12 426 q 33 531 12 500 q 93 586 54 563 q 184 623 132 610 q 296 636 236 636 q 368 632 325 636 q 602 920 485 816 q 851 1042 737 1042 q 961 1022 919 1042 l 743 0 l 543 0 l 650 504 q 556 538 600 527 q 464 554 512 550 q 335 206 385 384 q 283 -81 283 28 q 302 -158 283 -134 m 743 943 q 616 821 683 911 q 493 614 551 731 q 663 566 588 595 l 743 943 z "},"Ẩ":{"ha":928,"x_min":12,"x_max":1193,"o":"m 1037 1189 l 1037 1274 q 1080 1268 1057 1268 q 1126 1305 1126 1268 q 1080 1340 1126 1340 q 1022 1324 1048 1340 l 997 1364 q 1039 1382 1013 1375 q 1090 1389 1065 1389 q 1164 1367 1136 1389 q 1193 1311 1193 1345 q 1164 1253 1193 1276 q 1088 1226 1135 1230 l 1084 1186 l 1037 1189 m 927 1320 l 951 1320 l 1021 1126 l 959 1126 l 914 1226 l 761 1126 l 680 1126 l 927 1320 m 302 -158 q 236 -155 264 -158 q 182 -138 208 -151 q 117 -11 117 -106 q 131 100 117 35 q 173 239 146 164 q 321 554 233 403 q 211 533 252 550 q 158 482 171 517 q 170 468 164 482 q 176 439 176 454 q 154 399 176 414 q 98 385 132 385 q 37 405 61 385 q 12 465 12 426 q 33 531 12 500 q 93 586 54 563 q 184 623 132 610 q 296 636 236 636 q 368 632 325 636 q 602 920 485 816 q 851 1042 737 1042 q 961 1022 919 1042 l 743 0 l 543 0 l 650 504 q 556 538 600 527 q 464 554 512 550 q 335 206 385 384 q 283 -81 283 28 q 302 -158 283 -134 m 743 943 q 616 821 683 911 q 493 614 551 731 q 663 566 588 595 l 743 943 z "},"Ẫ":{"ha":928,"x_min":12,"x_max":1136,"o":"m 896 1295 q 850 1310 868 1305 q 813 1315 833 1315 q 749 1290 777 1315 l 743 1292 q 808 1363 766 1339 q 907 1388 850 1388 q 950 1384 930 1388 q 993 1372 969 1380 q 1034 1359 1019 1363 q 1069 1356 1050 1356 q 1130 1378 1109 1356 l 1136 1377 q 1118 1342 1133 1360 q 1080 1310 1103 1324 q 1027 1287 1057 1295 q 966 1278 998 1278 l 1021 1126 l 959 1126 l 914 1226 l 761 1126 l 680 1126 l 896 1295 m 302 -158 q 236 -155 264 -158 q 182 -138 208 -151 q 117 -11 117 -106 q 131 100 117 35 q 173 239 146 164 q 321 554 233 403 q 211 533 252 550 q 158 482 171 517 q 170 468 164 482 q 176 439 176 454 q 154 399 176 414 q 98 385 132 385 q 37 405 61 385 q 12 465 12 426 q 33 531 12 500 q 93 586 54 563 q 184 623 132 610 q 296 636 236 636 q 368 632 325 636 q 602 920 485 816 q 851 1042 737 1042 q 961 1022 919 1042 l 743 0 l 543 0 l 650 504 q 556 538 600 527 q 464 554 512 550 q 335 206 385 384 q 283 -81 283 28 q 302 -158 283 -134 m 743 943 q 616 821 683 911 q 493 614 551 731 q 663 566 588 595 l 743 943 z "},"Ȁ":{"ha":928,"x_min":12,"x_max":984,"o":"m 487 1389 l 633 1389 l 760 1126 l 683 1126 l 487 1389 m 712 1389 l 858 1389 l 984 1126 l 908 1126 l 712 1389 m 302 -158 q 236 -155 264 -158 q 182 -138 208 -151 q 117 -11 117 -106 q 131 100 117 35 q 173 239 146 164 q 321 554 233 403 q 211 533 252 550 q 158 482 171 517 q 170 468 164 482 q 176 439 176 454 q 154 399 176 414 q 98 385 132 385 q 37 405 61 385 q 12 465 12 426 q 33 531 12 500 q 93 586 54 563 q 184 623 132 610 q 296 636 236 636 q 368 632 325 636 q 602 920 485 816 q 851 1042 737 1042 q 961 1022 919 1042 l 743 0 l 543 0 l 650 504 q 556 538 600 527 q 464 554 512 550 q 335 206 385 384 q 283 -81 283 28 q 302 -158 283 -134 m 743 943 q 616 821 683 911 q 493 614 551 731 q 663 566 588 595 l 743 943 z "},"Ä":{"ha":928,"x_min":12,"x_max":1050,"o":"m 716 1143 q 656 1168 680 1143 q 631 1227 631 1192 q 638 1259 631 1244 q 656 1287 644 1275 q 716 1312 680 1312 q 748 1306 732 1312 q 775 1287 763 1299 q 793 1260 787 1276 q 800 1227 800 1244 q 775 1168 800 1192 q 748 1150 763 1156 q 716 1143 732 1143 m 966 1143 q 905 1168 931 1143 q 881 1227 881 1191 q 887 1260 881 1244 q 905 1287 894 1276 q 966 1312 930 1312 q 998 1305 983 1312 q 1025 1287 1014 1299 q 1044 1260 1037 1276 q 1050 1227 1050 1244 q 1025 1168 1050 1192 q 998 1150 1013 1156 q 966 1143 982 1143 m 302 -158 q 236 -155 264 -158 q 182 -138 208 -151 q 117 -11 117 -106 q 131 100 117 35 q 173 239 146 164 q 321 554 233 403 q 211 533 252 550 q 158 482 171 517 q 170 468 164 482 q 176 439 176 454 q 154 399 176 414 q 98 385 132 385 q 37 405 61 385 q 12 465 12 426 q 33 531 12 500 q 93 586 54 563 q 184 623 132 610 q 296 636 236 636 q 368 632 325 636 q 602 920 485 816 q 851 1042 737 1042 q 961 1022 919 1042 l 743 0 l 543 0 l 650 504 q 556 538 600 527 q 464 554 512 550 q 335 206 385 384 q 283 -81 283 28 q 302 -158 283 -134 m 743 943 q 616 821 683 911 q 493 614 551 731 q 663 566 588 595 l 743 943 z "},"Ạ":{"ha":928,"x_min":12,"x_max":961,"o":"m 302 -158 q 236 -155 264 -158 q 182 -138 208 -151 q 117 -11 117 -106 q 131 100 117 35 q 173 239 146 164 q 321 554 233 403 q 211 533 252 550 q 158 482 171 517 q 170 468 164 482 q 176 439 176 454 q 154 399 176 414 q 98 385 132 385 q 37 405 61 385 q 12 465 12 426 q 33 531 12 500 q 93 586 54 563 q 184 623 132 610 q 296 636 236 636 q 368 632 325 636 q 602 920 485 816 q 851 1042 737 1042 q 961 1022 919 1042 l 743 0 l 543 0 l 650 504 q 556 538 600 527 q 464 554 512 550 q 335 206 385 384 q 283 -81 283 28 q 302 -158 283 -134 m 743 943 q 616 821 683 911 q 493 614 551 731 q 663 566 588 595 l 743 943 m 517 -321 q 475 -312 495 -321 q 439 -289 454 -304 q 416 -254 425 -274 q 408 -211 408 -233 q 416 -168 408 -189 q 439 -132 425 -148 q 475 -108 454 -117 q 517 -100 495 -100 q 560 -108 540 -100 q 596 -132 581 -117 q 620 -168 612 -148 q 629 -211 629 -189 q 620 -254 629 -233 q 596 -289 612 -274 q 560 -312 581 -304 q 517 -321 540 -321 z "},"À":{"ha":928,"x_min":12,"x_max":961,"o":"m 675 1389 l 821 1389 l 861 1126 l 757 1126 l 675 1389 m 302 -158 q 236 -155 264 -158 q 182 -138 208 -151 q 117 -11 117 -106 q 131 100 117 35 q 173 239 146 164 q 321 554 233 403 q 211 533 252 550 q 158 482 171 517 q 170 468 164 482 q 176 439 176 454 q 154 399 176 414 q 98 385 132 385 q 37 405 61 385 q 12 465 12 426 q 33 531 12 500 q 93 586 54 563 q 184 623 132 610 q 296 636 236 636 q 368 632 325 636 q 602 920 485 816 q 851 1042 737 1042 q 961 1022 919 1042 l 743 0 l 543 0 l 650 504 q 556 538 600 527 q 464 554 512 550 q 335 206 385 384 q 283 -81 283 28 q 302 -158 283 -134 m 743 943 q 616 821 683 911 q 493 614 551 731 q 663 566 588 595 l 743 943 z "},"Ả":{"ha":928,"x_min":12,"x_max":1031,"o":"m 809 1103 l 809 1225 q 871 1219 836 1219 q 919 1232 903 1219 q 936 1268 936 1245 q 871 1318 936 1318 q 788 1296 822 1318 l 751 1354 q 813 1379 776 1369 q 887 1388 850 1388 q 944 1380 918 1388 q 991 1358 971 1372 q 1021 1322 1010 1343 q 1031 1277 1031 1301 q 1020 1232 1031 1253 q 990 1195 1010 1211 q 884 1156 949 1161 l 874 1100 l 809 1103 m 302 -158 q 236 -155 264 -158 q 182 -138 208 -151 q 117 -11 117 -106 q 131 100 117 35 q 173 239 146 164 q 321 554 233 403 q 211 533 252 550 q 158 482 171 517 q 170 468 164 482 q 176 439 176 454 q 154 399 176 414 q 98 385 132 385 q 37 405 61 385 q 12 465 12 426 q 33 531 12 500 q 93 586 54 563 q 184 623 132 610 q 296 636 236 636 q 368 632 325 636 q 602 920 485 816 q 851 1042 737 1042 q 961 1022 919 1042 l 743 0 l 543 0 l 650 504 q 556 538 600 527 q 464 554 512 550 q 335 206 385 384 q 283 -81 283 28 q 302 -158 283 -134 m 743 943 q 616 821 683 911 q 493 614 551 731 q 663 566 588 595 l 743 943 z "},"Ȃ":{"ha":928,"x_min":12,"x_max":1124,"o":"m 619 1141 q 650 1216 625 1181 q 715 1278 675 1251 q 806 1319 755 1305 q 912 1333 857 1333 q 1070 1284 1016 1333 q 1124 1141 1124 1236 l 1000 1141 q 971 1227 1000 1197 q 890 1257 943 1257 q 837 1248 863 1257 q 789 1223 810 1239 q 755 1186 768 1207 q 739 1141 742 1165 l 619 1141 m 302 -158 q 236 -155 264 -158 q 182 -138 208 -151 q 117 -11 117 -106 q 131 100 117 35 q 173 239 146 164 q 321 554 233 403 q 211 533 252 550 q 158 482 171 517 q 170 468 164 482 q 176 439 176 454 q 154 399 176 414 q 98 385 132 385 q 37 405 61 385 q 12 465 12 426 q 33 531 12 500 q 93 586 54 563 q 184 623 132 610 q 296 636 236 636 q 368 632 325 636 q 602 920 485 816 q 851 1042 737 1042 q 961 1022 919 1042 l 743 0 l 543 0 l 650 504 q 556 538 600 527 q 464 554 512 550 q 335 206 385 384 q 283 -81 283 28 q 302 -158 283 -134 m 743 943 q 616 821 683 911 q 493 614 551 731 q 663 566 588 595 l 743 943 z "},"Ā":{"ha":928,"x_min":12,"x_max":1086,"o":"m 642 1282 l 1086 1282 l 1065 1179 l 619 1179 l 642 1282 m 302 -158 q 236 -155 264 -158 q 182 -138 208 -151 q 117 -11 117 -106 q 131 100 117 35 q 173 239 146 164 q 321 554 233 403 q 211 533 252 550 q 158 482 171 517 q 170 468 164 482 q 176 439 176 454 q 154 399 176 414 q 98 385 132 385 q 37 405 61 385 q 12 465 12 426 q 33 531 12 500 q 93 586 54 563 q 184 623 132 610 q 296 636 236 636 q 368 632 325 636 q 602 920 485 816 q 851 1042 737 1042 q 961 1022 919 1042 l 743 0 l 543 0 l 650 504 q 556 538 600 527 q 464 554 512 550 q 335 206 385 384 q 283 -81 283 28 q 302 -158 283 -134 m 743 943 q 616 821 683 911 q 493 614 551 731 q 663 566 588 595 l 743 943 z "},"Ą":{"ha":928,"x_min":12,"x_max":961,"o":"m 611 -268 q 563 -258 584 -268 q 528 -232 542 -249 q 508 -198 515 -216 q 501 -160 501 -179 q 527 -81 501 -123 q 600 0 552 -39 l 543 0 l 650 504 q 556 538 600 527 q 464 554 512 550 q 335 206 385 384 q 283 -81 283 28 q 302 -158 283 -134 q 236 -155 264 -158 q 182 -138 208 -151 q 117 -11 117 -106 q 131 100 117 35 q 173 239 146 164 q 321 554 233 403 q 211 533 252 550 q 158 482 171 517 q 170 468 164 482 q 176 439 176 454 q 154 399 176 414 q 98 385 132 385 q 37 405 61 385 q 12 465 12 426 q 33 531 12 500 q 93 586 54 563 q 184 623 132 610 q 296 636 236 636 q 368 632 325 636 q 602 920 485 816 q 851 1042 737 1042 q 961 1022 919 1042 l 743 0 l 692 0 q 640 -47 661 -18 q 616 -117 616 -81 q 629 -163 616 -144 q 646 -180 635 -174 q 671 -186 657 -186 q 720 -169 691 -186 q 743 -154 741 -156 l 765 -139 q 762 -182 762 -161 q 733 -210 749 -195 q 701 -237 717 -225 q 611 -268 657 -268 m 743 943 q 616 821 683 911 q 493 614 551 731 q 663 566 588 595 l 743 943 z "},"Å":{"ha":928,"x_min":12,"x_max":961,"o":"m 832 1114 q 761 1142 788 1114 q 734 1211 734 1170 q 742 1253 734 1231 q 762 1293 749 1275 q 801 1325 778 1314 q 852 1337 823 1337 q 928 1307 902 1337 q 953 1231 953 1277 q 926 1149 953 1180 q 832 1114 894 1114 m 838 1162 q 885 1179 869 1162 q 901 1226 901 1196 q 895 1270 901 1255 q 855 1292 884 1292 q 805 1266 823 1292 q 790 1214 790 1246 q 838 1162 790 1162 m 302 -158 q 236 -155 264 -158 q 182 -138 208 -151 q 117 -11 117 -106 q 131 100 117 35 q 173 239 146 164 q 321 554 233 403 q 211 533 252 550 q 158 482 171 517 q 170 468 164 482 q 176 439 176 454 q 154 399 176 414 q 98 385 132 385 q 37 405 61 385 q 12 465 12 426 q 33 531 12 500 q 93 586 54 563 q 184 623 132 610 q 296 636 236 636 q 368 632 325 636 q 602 920 485 816 q 851 1042 737 1042 q 961 1022 919 1042 l 743 0 l 543 0 l 650 504 q 556 538 600 527 q 464 554 512 550 q 335 206 385 384 q 283 -81 283 28 q 302 -158 283 -134 m 743 943 q 616 821 683 911 q 493 614 551 731 q 663 566 588 595 l 743 943 z "},"Ǻ":{"ha":928,"x_min":12,"x_max":1098,"o":"m 302 -158 q 236 -155 264 -158 q 182 -138 208 -151 q 117 -11 117 -106 q 131 100 117 35 q 173 239 146 164 q 321 554 233 403 q 211 533 252 550 q 158 482 171 517 q 170 468 164 482 q 176 439 176 454 q 154 399 176 414 q 98 385 132 385 q 37 405 61 385 q 12 465 12 426 q 33 531 12 500 q 93 586 54 563 q 184 623 132 610 q 296 636 236 636 q 368 632 325 636 q 579 899 469 793 q 807 1037 701 1017 q 766 1118 766 1063 q 775 1168 766 1145 q 801 1208 785 1191 q 839 1235 818 1225 q 884 1244 861 1244 l 952 1389 l 1098 1389 l 956 1217 q 984 1137 984 1188 q 969 1075 984 1101 q 926 1034 954 1048 q 961 1022 943 1031 l 743 0 l 543 0 l 650 504 q 556 538 600 527 q 464 554 512 550 q 335 206 385 384 q 283 -81 283 28 q 302 -158 283 -134 m 873 1089 q 916 1139 916 1089 q 883 1178 916 1178 q 851 1163 864 1178 q 838 1124 838 1148 q 848 1099 838 1108 q 873 1089 857 1089 m 743 943 q 616 821 683 911 q 493 614 551 731 q 663 566 588 595 l 743 943 z "},"Ã":{"ha":928,"x_min":12,"x_max":1125,"o":"m 901 1137 q 843 1144 871 1137 q 779 1163 816 1150 q 717 1183 741 1177 q 668 1189 694 1189 q 576 1153 616 1189 l 568 1156 q 661 1257 602 1223 q 800 1292 720 1292 q 861 1286 833 1292 q 922 1269 888 1280 q 981 1251 959 1257 q 1029 1246 1002 1246 q 1079 1254 1056 1246 q 1117 1278 1101 1262 l 1125 1276 q 1099 1227 1120 1252 q 1048 1183 1078 1202 q 978 1149 1016 1162 q 901 1137 939 1137 m 302 -158 q 236 -155 264 -158 q 182 -138 208 -151 q 117 -11 117 -106 q 131 100 117 35 q 173 239 146 164 q 321 554 233 403 q 211 533 252 550 q 158 482 171 517 q 170 468 164 482 q 176 439 176 454 q 154 399 176 414 q 98 385 132 385 q 37 405 61 385 q 12 465 12 426 q 33 531 12 500 q 93 586 54 563 q 184 623 132 610 q 296 636 236 636 q 368 632 325 636 q 602 920 485 816 q 851 1042 737 1042 q 961 1022 919 1042 l 743 0 l 543 0 l 650 504 q 556 538 600 527 q 464 554 512 550 q 335 206 385 384 q 283 -81 283 28 q 302 -158 283 -134 m 743 943 q 616 821 683 911 q 493 614 551 731 q 663 566 588 595 l 743 943 z "},"Æ":{"ha":1061,"x_min":12,"x_max":1263,"o":"m 302 -157 q 226 -150 255 -155 q 174 -133 197 -146 q 117 -1 117 -100 q 131 105 117 43 q 173 241 146 168 q 321 554 232 402 q 213 534 254 550 q 158 482 173 517 q 170 468 164 482 q 176 439 176 454 q 155 400 176 415 q 92 385 134 385 q 37 405 58 385 q 12 472 12 429 q 34 532 12 503 q 94 584 56 561 q 182 619 132 606 q 283 632 231 632 q 366 628 320 632 q 599 920 480 812 q 850 1043 734 1043 q 900 1040 875 1043 q 967 1029 924 1036 q 1039 1019 1010 1023 q 1100 1015 1067 1015 q 1263 1042 1185 1015 l 1247 992 q 1182 905 1229 932 q 1114 889 1156 889 q 1021 904 1067 889 q 982 918 1002 909 l 942 933 l 867 582 l 1082 582 l 1054 479 l 844 479 l 774 147 l 1084 147 l 1055 0 l 543 0 l 650 504 q 554 538 599 527 q 463 554 510 550 q 334 208 384 381 q 283 -79 283 29 q 287 -119 283 -104 q 293 -140 290 -133 q 300 -150 295 -145 q 302 -157 302 -153 m 743 943 q 614 820 681 909 q 490 612 551 735 q 663 566 587 595 l 743 943 z "},"Ǽ":{"ha":1061,"x_min":12,"x_max":1263,"o":"m 1008 1389 l 1154 1389 l 958 1126 l 882 1126 l 1008 1389 m 302 -157 q 226 -150 255 -155 q 174 -133 197 -146 q 117 -1 117 -100 q 131 105 117 43 q 173 241 146 168 q 321 554 232 402 q 213 534 254 550 q 158 482 173 517 q 170 468 164 482 q 176 439 176 454 q 155 400 176 415 q 92 385 134 385 q 37 405 58 385 q 12 472 12 429 q 34 532 12 503 q 94 584 56 561 q 182 619 132 606 q 283 632 231 632 q 366 628 320 632 q 599 920 480 812 q 850 1043 734 1043 q 900 1040 875 1043 q 967 1029 924 1036 q 1039 1019 1010 1023 q 1100 1015 1067 1015 q 1263 1042 1185 1015 l 1247 992 q 1182 905 1229 932 q 1114 889 1156 889 q 1021 904 1067 889 q 982 918 1002 909 l 942 933 l 867 582 l 1082 582 l 1054 479 l 844 479 l 774 147 l 1084 147 l 1055 0 l 543 0 l 650 504 q 554 538 599 527 q 463 554 510 550 q 334 208 384 381 q 283 -79 283 29 q 287 -119 283 -104 q 293 -140 290 -133 q 300 -150 295 -145 q 302 -157 302 -153 m 743 943 q 614 820 681 909 q 490 612 551 735 q 663 566 587 595 l 743 943 z "},"B":{"ha":890,"x_min":17,"x_max":842,"o":"m 538 -24 q 447 -4 480 -24 q 400 79 400 23 q 418 160 400 117 q 465 121 444 132 q 511 110 487 110 q 618 195 581 110 q 641 274 633 230 q 648 359 648 317 q 621 484 648 439 q 517 536 587 536 q 453 532 479 536 l 339 0 l 139 0 l 328 884 l 533 911 l 468 603 l 476 603 q 553 623 516 603 q 617 676 589 642 q 660 749 644 709 q 676 828 676 789 q 666 885 676 858 q 634 932 655 911 q 493 978 586 978 q 331 941 408 978 q 200 829 245 900 q 146 640 146 747 q 156 571 146 595 q 163 555 159 562 q 165 546 165 551 q 54 575 92 546 q 17 673 17 605 q 90 854 17 768 q 171 929 123 895 q 274 989 218 964 q 521 1042 393 1042 q 745 974 664 1042 q 799 904 781 944 q 817 821 817 865 q 781 699 817 755 q 677 600 742 636 q 804 519 761 585 q 842 376 842 462 q 835 298 842 341 q 814 214 828 256 q 720 50 781 109 q 538 -24 644 -24 z "},"C":{"ha":690,"x_min":26,"x_max":743,"o":"m 330 -22 q 195 -4 252 -22 q 102 55 139 15 q 45 161 64 96 q 26 319 26 227 q 51 538 26 425 q 132 775 79 671 q 282 964 194 897 q 511 1042 382 1042 q 676 998 615 1042 q 743 856 743 951 q 722 764 743 796 q 646 728 696 728 q 605 735 625 728 q 567 764 585 743 q 591 783 579 770 q 611 814 602 796 q 631 892 631 853 q 612 951 631 929 q 546 977 589 977 q 472 949 509 977 q 403 871 436 922 q 344 759 371 823 q 298 622 317 694 q 268 473 279 549 q 257 328 257 397 q 265 237 257 276 q 290 172 273 199 q 424 111 329 111 q 575 148 505 111 q 694 250 645 184 l 726 236 q 653 120 700 170 q 549 37 607 70 q 438 -7 495 7 q 330 -22 381 -22 z "},"Ć":{"ha":690,"x_min":26,"x_max":743,"o":"m 595 1389 l 741 1389 l 572 1126 l 468 1126 l 595 1389 m 330 -22 q 195 -4 252 -22 q 102 55 139 15 q 45 161 64 96 q 26 319 26 227 q 51 538 26 425 q 132 775 79 671 q 282 964 194 897 q 511 1042 382 1042 q 676 998 615 1042 q 743 856 743 951 q 722 764 743 796 q 646 728 696 728 q 605 735 625 728 q 567 764 585 743 q 591 783 579 770 q 611 814 602 796 q 631 892 631 853 q 612 951 631 929 q 546 977 589 977 q 472 949 509 977 q 403 871 436 922 q 344 759 371 823 q 298 622 317 694 q 268 473 279 549 q 257 328 257 397 q 265 237 257 276 q 290 172 273 199 q 424 111 329 111 q 575 148 505 111 q 694 250 645 184 l 726 236 q 653 120 700 170 q 549 37 607 70 q 438 -7 495 7 q 330 -22 381 -22 z "},"Č":{"ha":690,"x_min":26,"x_max":812,"o":"m 406 1389 l 450 1389 l 533 1278 l 751 1389 l 812 1389 l 518 1126 l 489 1126 l 406 1389 m 330 -22 q 195 -4 252 -22 q 102 55 139 15 q 45 161 64 96 q 26 319 26 227 q 51 538 26 425 q 132 775 79 671 q 282 964 194 897 q 511 1042 382 1042 q 676 998 615 1042 q 743 856 743 951 q 722 764 743 796 q 646 728 696 728 q 605 735 625 728 q 567 764 585 743 q 591 783 579 770 q 611 814 602 796 q 631 892 631 853 q 612 951 631 929 q 546 977 589 977 q 472 949 509 977 q 403 871 436 922 q 344 759 371 823 q 298 622 317 694 q 268 473 279 549 q 257 328 257 397 q 265 237 257 276 q 290 172 273 199 q 424 111 329 111 q 575 148 505 111 q 694 250 645 184 l 726 236 q 653 120 700 170 q 549 37 607 70 q 438 -7 495 7 q 330 -22 381 -22 z "},"Ç":{"ha":690,"x_min":26,"x_max":743,"o":"m 336 -302 q 250 -291 287 -302 q 187 -264 218 -281 q 212 -232 199 -243 q 243 -220 224 -220 q 274 -224 262 -220 q 300 -238 287 -229 q 324 -253 315 -248 q 346 -257 333 -257 q 376 -239 362 -257 q 387 -199 387 -222 q 374 -163 387 -177 q 334 -149 361 -149 q 293 -153 309 -149 q 261 -165 278 -157 l 313 -22 q 185 0 239 -20 q 97 60 132 20 q 44 164 61 100 q 26 319 26 229 q 51 538 26 425 q 132 775 79 671 q 282 964 194 897 q 511 1042 382 1042 q 676 998 615 1042 q 743 856 743 951 q 722 764 743 796 q 646 728 696 728 q 605 735 625 728 q 567 764 585 743 q 591 783 579 770 q 611 814 602 796 q 631 892 631 853 q 612 951 631 929 q 546 977 589 977 q 472 949 509 977 q 403 871 436 922 q 344 759 371 823 q 298 622 317 694 q 268 473 279 549 q 257 328 257 397 q 265 237 257 276 q 290 172 273 199 q 424 111 329 111 q 575 148 505 111 q 694 250 645 184 l 726 236 q 572 51 680 121 q 474 4 525 21 q 372 -20 422 -14 l 343 -92 q 416 -81 386 -81 q 503 -150 503 -81 q 489 -215 503 -186 q 450 -264 475 -244 q 397 -292 427 -282 q 336 -302 368 -302 z "},"Ĉ":{"ha":690,"x_min":26,"x_max":743,"o":"m 575 1389 l 604 1389 l 688 1126 l 643 1126 l 559 1238 l 342 1126 l 281 1126 l 575 1389 m 330 -22 q 195 -4 252 -22 q 102 55 139 15 q 45 161 64 96 q 26 319 26 227 q 51 538 26 425 q 132 775 79 671 q 282 964 194 897 q 511 1042 382 1042 q 676 998 615 1042 q 743 856 743 951 q 722 764 743 796 q 646 728 696 728 q 605 735 625 728 q 567 764 585 743 q 591 783 579 770 q 611 814 602 796 q 631 892 631 853 q 612 951 631 929 q 546 977 589 977 q 472 949 509 977 q 403 871 436 922 q 344 759 371 823 q 298 622 317 694 q 268 473 279 549 q 257 328 257 397 q 265 237 257 276 q 290 172 273 199 q 424 111 329 111 q 575 148 505 111 q 694 250 645 184 l 726 236 q 653 120 700 170 q 549 37 607 70 q 438 -7 495 7 q 330 -22 381 -22 z "},"Ċ":{"ha":690,"x_min":26,"x_max":743,"o":"m 618 1141 q 576 1150 596 1141 q 541 1173 555 1158 q 517 1208 526 1187 q 509 1251 509 1228 q 517 1294 509 1273 q 541 1329 526 1314 q 576 1353 555 1344 q 618 1362 596 1362 q 661 1353 641 1362 q 697 1329 682 1344 q 721 1294 713 1314 q 730 1251 730 1273 q 721 1208 730 1228 q 697 1173 713 1187 q 661 1150 682 1158 q 618 1141 641 1141 m 330 -22 q 195 -4 252 -22 q 102 55 139 15 q 45 161 64 96 q 26 319 26 227 q 51 538 26 425 q 132 775 79 671 q 282 964 194 897 q 511 1042 382 1042 q 676 998 615 1042 q 743 856 743 951 q 722 764 743 796 q 646 728 696 728 q 605 735 625 728 q 567 764 585 743 q 591 783 579 770 q 611 814 602 796 q 631 892 631 853 q 612 951 631 929 q 546 977 589 977 q 472 949 509 977 q 403 871 436 922 q 344 759 371 823 q 298 622 317 694 q 268 473 279 549 q 257 328 257 397 q 265 237 257 276 q 290 172 273 199 q 424 111 329 111 q 575 148 505 111 q 694 250 645 184 l 726 236 q 653 120 700 170 q 549 37 607 70 q 438 -7 495 7 q 330 -22 381 -22 z "},"D":{"ha":921,"x_min":8,"x_max":896,"o":"m 511 -18 q 342 56 427 -18 l 330 0 l 131 0 l 319 884 l 525 911 l 358 132 q 437 104 396 104 q 514 130 477 104 q 581 201 550 155 q 672 433 637 286 q 704 715 704 570 q 648 918 704 851 q 501 978 597 978 q 357 955 424 978 q 242 888 291 932 q 165 781 192 844 q 138 640 138 718 q 147 571 138 597 q 154 555 150 562 q 157 546 157 551 q 46 576 84 546 q 8 675 8 606 q 26 767 8 722 q 79 854 45 813 q 161 929 113 895 q 266 989 209 964 q 525 1042 387 1042 q 741 985 653 1042 q 860 840 821 933 q 896 642 896 752 q 882 484 896 564 q 842 329 868 404 q 781 192 817 256 q 703 82 745 129 q 610 8 659 34 q 511 -18 562 -18 z "},"Ð":{"ha":921,"x_min":8,"x_max":896,"o":"m 511 -18 q 342 56 427 -18 l 330 0 l 131 0 l 233 479 l 179 479 l 207 582 l 256 582 l 319 884 l 525 911 l 454 582 l 564 582 l 536 479 l 432 479 l 358 132 q 437 104 396 104 q 514 130 477 104 q 581 201 550 155 q 672 431 637 286 q 704 705 704 566 q 696 825 704 775 q 668 907 688 874 q 609 960 647 942 q 513 978 571 978 q 359 955 428 978 q 241 888 290 932 q 164 781 191 844 q 138 640 138 718 q 147 571 138 597 q 154 555 150 562 q 157 546 157 551 q 47 576 81 546 q 8 681 8 608 q 28 771 8 726 q 83 857 47 815 q 164 930 117 896 q 267 989 212 964 q 496 1042 382 1042 q 743 988 648 1042 q 863 850 825 941 q 896 667 896 774 q 842 330 896 490 q 781 190 817 254 q 703 79 745 126 q 611 7 659 33 q 511 -18 562 -18 z "},"Ď":{"ha":921,"x_min":8,"x_max":896,"o":"m 416 1389 l 460 1389 l 543 1278 l 762 1389 l 823 1389 l 528 1126 l 499 1126 l 416 1389 m 511 -18 q 342 56 427 -18 l 330 0 l 131 0 l 319 884 l 525 911 l 358 132 q 437 104 396 104 q 514 130 477 104 q 581 201 550 155 q 672 433 637 286 q 704 715 704 570 q 648 918 704 851 q 501 978 597 978 q 357 955 424 978 q 242 888 291 932 q 165 781 192 844 q 138 640 138 718 q 147 571 138 597 q 154 555 150 562 q 157 546 157 551 q 46 576 84 546 q 8 675 8 606 q 26 767 8 722 q 79 854 45 813 q 161 929 113 895 q 266 989 209 964 q 525 1042 387 1042 q 741 985 653 1042 q 860 840 821 933 q 896 642 896 752 q 882 484 896 564 q 842 329 868 404 q 781 192 817 256 q 703 82 745 129 q 610 8 659 34 q 511 -18 562 -18 z "},"Đ":{"ha":921,"x_min":8,"x_max":896,"o":"m 511 -18 q 342 56 427 -18 l 330 0 l 131 0 l 233 479 l 179 479 l 207 582 l 256 582 l 319 884 l 525 911 l 454 582 l 564 582 l 536 479 l 432 479 l 358 132 q 437 104 396 104 q 514 130 477 104 q 581 201 550 155 q 672 431 637 286 q 704 705 704 566 q 696 825 704 775 q 668 907 688 874 q 609 960 647 942 q 513 978 571 978 q 359 955 428 978 q 241 888 290 932 q 164 781 191 844 q 138 640 138 718 q 147 571 138 597 q 154 555 150 562 q 157 546 157 551 q 47 576 81 546 q 8 681 8 608 q 28 771 8 726 q 83 857 47 815 q 164 930 117 896 q 267 989 212 964 q 496 1042 382 1042 q 743 988 648 1042 q 863 850 825 941 q 896 667 896 774 q 842 330 896 490 q 781 190 817 254 q 703 79 745 126 q 611 7 659 33 q 511 -18 562 -18 z "},"Ḍ":{"ha":921,"x_min":8,"x_max":896,"o":"m 511 -18 q 342 56 427 -18 l 330 0 l 131 0 l 319 884 l 525 911 l 358 132 q 437 104 396 104 q 514 130 477 104 q 581 201 550 155 q 672 433 637 286 q 704 715 704 570 q 648 918 704 851 q 501 978 597 978 q 357 955 424 978 q 242 888 291 932 q 165 781 192 844 q 138 640 138 718 q 147 571 138 597 q 154 555 150 562 q 157 546 157 551 q 46 576 84 546 q 8 675 8 606 q 26 767 8 722 q 79 854 45 813 q 161 929 113 895 q 266 989 209 964 q 525 1042 387 1042 q 741 985 653 1042 q 860 840 821 933 q 896 642 896 752 q 882 484 896 564 q 842 329 868 404 q 781 192 817 256 q 703 82 745 129 q 610 8 659 34 q 511 -18 562 -18 m 368 -321 q 326 -312 346 -321 q 290 -289 305 -304 q 267 -254 275 -274 q 258 -211 258 -233 q 267 -168 258 -189 q 290 -132 275 -148 q 326 -108 305 -117 q 368 -100 346 -100 q 411 -108 391 -100 q 447 -132 431 -117 q 471 -168 463 -148 q 479 -211 479 -189 q 471 -254 479 -233 q 447 -289 463 -274 q 411 -312 431 -304 q 368 -321 391 -321 z "},"E":{"ha":637,"x_min":9,"x_max":685,"o":"m 265 -25 q 151 -6 200 -25 q 71 49 102 14 q 25 126 40 82 q 9 220 9 170 q 27 332 9 275 q 78 439 45 389 q 160 527 112 490 q 267 579 208 564 q 202 654 223 610 q 182 746 182 697 q 204 853 182 800 q 268 949 227 906 q 366 1019 310 994 q 486 1044 422 1044 q 564 1033 528 1044 q 627 1000 601 1022 q 670 945 655 978 q 685 871 685 913 q 677 814 685 840 q 654 768 669 787 q 621 737 640 748 q 582 726 602 726 q 517 764 544 726 q 540 780 528 768 q 560 810 551 793 q 573 847 568 827 q 578 885 578 867 q 554 945 578 924 q 501 962 534 962 q 445 946 471 962 q 399 901 418 930 q 370 838 380 873 q 359 766 359 803 q 392 653 359 701 q 500 581 427 600 q 370 509 429 565 q 283 385 316 457 q 252 249 252 312 q 282 149 252 186 q 383 109 316 109 q 453 118 416 109 q 524 144 490 127 q 640 250 603 184 l 672 236 q 505 45 617 116 q 389 -7 450 11 q 265 -25 328 -25 z "},"É":{"ha":637,"x_min":9,"x_max":730,"o":"m 585 1389 l 730 1389 l 562 1126 l 458 1126 l 585 1389 m 265 -25 q 151 -6 200 -25 q 71 49 102 14 q 25 126 40 82 q 9 220 9 170 q 27 332 9 275 q 78 439 45 389 q 160 527 112 490 q 267 579 208 564 q 202 654 223 610 q 182 746 182 697 q 204 853 182 800 q 268 949 227 906 q 366 1019 310 994 q 486 1044 422 1044 q 564 1033 528 1044 q 627 1000 601 1022 q 670 945 655 978 q 685 871 685 913 q 677 814 685 840 q 654 768 669 787 q 621 737 640 748 q 582 726 602 726 q 517 764 544 726 q 540 780 528 768 q 560 810 551 793 q 573 847 568 827 q 578 885 578 867 q 554 945 578 924 q 501 962 534 962 q 445 946 471 962 q 399 901 418 930 q 370 838 380 873 q 359 766 359 803 q 392 653 359 701 q 500 581 427 600 q 370 509 429 565 q 283 385 316 457 q 252 249 252 312 q 282 149 252 186 q 383 109 316 109 q 453 118 416 109 q 524 144 490 127 q 640 250 603 184 l 672 236 q 505 45 617 116 q 389 -7 450 11 q 265 -25 328 -25 z "},"Ĕ":{"ha":637,"x_min":9,"x_max":813,"o":"m 520 1133 q 362 1181 416 1133 q 309 1324 309 1230 l 433 1324 q 461 1239 433 1269 q 542 1209 490 1209 q 596 1218 570 1209 q 644 1243 623 1227 q 677 1280 664 1259 q 694 1324 690 1301 l 813 1324 q 782 1250 807 1284 q 717 1188 757 1215 q 627 1147 677 1162 q 520 1133 576 1133 m 265 -25 q 151 -6 200 -25 q 71 49 102 14 q 25 126 40 82 q 9 220 9 170 q 27 332 9 275 q 78 439 45 389 q 160 527 112 490 q 267 579 208 564 q 202 654 223 610 q 182 746 182 697 q 204 853 182 800 q 268 949 227 906 q 366 1019 310 994 q 486 1044 422 1044 q 564 1033 528 1044 q 627 1000 601 1022 q 670 945 655 978 q 685 871 685 913 q 677 814 685 840 q 654 768 669 787 q 621 737 640 748 q 582 726 602 726 q 517 764 544 726 q 540 780 528 768 q 560 810 551 793 q 573 847 568 827 q 578 885 578 867 q 554 945 578 924 q 501 962 534 962 q 445 946 471 962 q 399 901 418 930 q 370 838 380 873 q 359 766 359 803 q 392 653 359 701 q 500 581 427 600 q 370 509 429 565 q 283 385 316 457 q 252 249 252 312 q 282 149 252 186 q 383 109 316 109 q 453 118 416 109 q 524 144 490 127 q 640 250 603 184 l 672 236 q 505 45 617 116 q 389 -7 450 11 q 265 -25 328 -25 z "},"Ě":{"ha":637,"x_min":9,"x_max":823,"o":"m 416 1389 l 460 1389 l 543 1278 l 762 1389 l 823 1389 l 528 1126 l 499 1126 l 416 1389 m 265 -25 q 151 -6 200 -25 q 71 49 102 14 q 25 126 40 82 q 9 220 9 170 q 27 332 9 275 q 78 439 45 389 q 160 527 112 490 q 267 579 208 564 q 202 654 223 610 q 182 746 182 697 q 204 853 182 800 q 268 949 227 906 q 366 1019 310 994 q 486 1044 422 1044 q 564 1033 528 1044 q 627 1000 601 1022 q 670 945 655 978 q 685 871 685 913 q 677 814 685 840 q 654 768 669 787 q 621 737 640 748 q 582 726 602 726 q 517 764 544 726 q 540 780 528 768 q 560 810 551 793 q 573 847 568 827 q 578 885 578 867 q 554 945 578 924 q 501 962 534 962 q 445 946 471 962 q 399 901 418 930 q 370 838 380 873 q 359 766 359 803 q 392 653 359 701 q 500 581 427 600 q 370 509 429 565 q 283 385 316 457 q 252 249 252 312 q 282 149 252 186 q 383 109 316 109 q 453 118 416 109 q 524 144 490 127 q 640 250 603 184 l 672 236 q 505 45 617 116 q 389 -7 450 11 q 265 -25 328 -25 z "},"Ê":{"ha":637,"x_min":9,"x_max":688,"o":"m 575 1389 l 604 1389 l 688 1126 l 643 1126 l 559 1238 l 342 1126 l 281 1126 l 575 1389 m 265 -25 q 151 -6 200 -25 q 71 49 102 14 q 25 126 40 82 q 9 220 9 170 q 27 332 9 275 q 78 439 45 389 q 160 527 112 490 q 267 579 208 564 q 202 654 223 610 q 182 746 182 697 q 204 853 182 800 q 268 949 227 906 q 366 1019 310 994 q 486 1044 422 1044 q 564 1033 528 1044 q 627 1000 601 1022 q 670 945 655 978 q 685 871 685 913 q 677 814 685 840 q 654 768 669 787 q 621 737 640 748 q 582 726 602 726 q 517 764 544 726 q 540 780 528 768 q 560 810 551 793 q 573 847 568 827 q 578 885 578 867 q 554 945 578 924 q 501 962 534 962 q 445 946 471 962 q 399 901 418 930 q 370 838 380 873 q 359 766 359 803 q 392 653 359 701 q 500 581 427 600 q 370 509 429 565 q 283 385 316 457 q 252 249 252 312 q 282 149 252 186 q 383 109 316 109 q 453 118 416 109 q 524 144 490 127 q 640 250 603 184 l 672 236 q 505 45 617 116 q 389 -7 450 11 q 265 -25 328 -25 z "},"Ế":{"ha":637,"x_min":9,"x_max":848,"o":"m 753 1389 l 848 1389 l 728 1203 l 667 1203 l 753 1389 m 581 1320 l 606 1320 l 675 1126 l 613 1126 l 568 1226 l 415 1126 l 334 1126 l 581 1320 m 265 -25 q 151 -6 200 -25 q 71 49 102 14 q 25 126 40 82 q 9 220 9 170 q 27 332 9 275 q 78 439 45 389 q 160 527 112 490 q 267 579 208 564 q 202 654 223 610 q 182 746 182 697 q 204 853 182 800 q 268 949 227 906 q 366 1019 310 994 q 486 1044 422 1044 q 564 1033 528 1044 q 627 1000 601 1022 q 670 945 655 978 q 685 871 685 913 q 677 814 685 840 q 654 768 669 787 q 621 737 640 748 q 582 726 602 726 q 517 764 544 726 q 540 780 528 768 q 560 810 551 793 q 573 847 568 827 q 578 885 578 867 q 554 945 578 924 q 501 962 534 962 q 445 946 471 962 q 399 901 418 930 q 370 838 380 873 q 359 766 359 803 q 392 653 359 701 q 500 581 427 600 q 370 509 429 565 q 283 385 316 457 q 252 249 252 312 q 282 149 252 186 q 383 109 316 109 q 453 118 416 109 q 524 144 490 127 q 640 250 603 184 l 672 236 q 505 45 617 116 q 389 -7 450 11 q 265 -25 328 -25 z "},"Ệ":{"ha":637,"x_min":9,"x_max":688,"o":"m 575 1389 l 604 1389 l 688 1126 l 643 1126 l 559 1238 l 342 1126 l 281 1126 l 575 1389 m 265 -25 q 151 -6 200 -25 q 71 49 102 14 q 25 126 40 82 q 9 220 9 170 q 27 332 9 275 q 78 439 45 389 q 160 527 112 490 q 267 579 208 564 q 202 654 223 610 q 182 746 182 697 q 204 853 182 800 q 268 949 227 906 q 366 1019 310 994 q 486 1044 422 1044 q 564 1033 528 1044 q 627 1000 601 1022 q 670 945 655 978 q 685 871 685 913 q 677 814 685 840 q 654 768 669 787 q 621 737 640 748 q 582 726 602 726 q 517 764 544 726 q 540 780 528 768 q 560 810 551 793 q 573 847 568 827 q 578 885 578 867 q 554 945 578 924 q 501 962 534 962 q 445 946 471 962 q 399 901 418 930 q 370 838 380 873 q 359 766 359 803 q 392 653 359 701 q 500 581 427 600 q 370 509 429 565 q 283 385 316 457 q 252 249 252 312 q 282 149 252 186 q 383 109 316 109 q 453 118 416 109 q 524 144 490 127 q 640 250 603 184 l 672 236 q 505 45 617 116 q 389 -7 450 11 q 265 -25 328 -25 m 212 -321 q 170 -312 190 -321 q 134 -289 149 -304 q 111 -254 119 -274 q 102 -211 102 -233 q 111 -168 102 -189 q 134 -132 119 -148 q 170 -108 149 -117 q 212 -100 190 -100 q 255 -108 235 -100 q 291 -132 275 -117 q 315 -168 307 -148 q 323 -211 323 -189 q 315 -254 323 -233 q 291 -289 307 -274 q 255 -312 275 -304 q 212 -321 235 -321 z "},"Ề":{"ha":637,"x_min":9,"x_max":784,"o":"m 665 1388 l 758 1388 l 784 1202 l 728 1202 l 665 1388 m 581 1320 l 606 1320 l 675 1126 l 613 1126 l 568 1226 l 415 1126 l 334 1126 l 581 1320 m 265 -25 q 151 -6 200 -25 q 71 49 102 14 q 25 126 40 82 q 9 220 9 170 q 27 332 9 275 q 78 439 45 389 q 160 527 112 490 q 267 579 208 564 q 202 654 223 610 q 182 746 182 697 q 204 853 182 800 q 268 949 227 906 q 366 1019 310 994 q 486 1044 422 1044 q 564 1033 528 1044 q 627 1000 601 1022 q 670 945 655 978 q 685 871 685 913 q 677 814 685 840 q 654 768 669 787 q 621 737 640 748 q 582 726 602 726 q 517 764 544 726 q 540 780 528 768 q 560 810 551 793 q 573 847 568 827 q 578 885 578 867 q 554 945 578 924 q 501 962 534 962 q 445 946 471 962 q 399 901 418 930 q 370 838 380 873 q 359 766 359 803 q 392 653 359 701 q 500 581 427 600 q 370 509 429 565 q 283 385 316 457 q 252 249 252 312 q 282 149 252 186 q 383 109 316 109 q 453 118 416 109 q 524 144 490 127 q 640 250 603 184 l 672 236 q 505 45 617 116 q 389 -7 450 11 q 265 -25 328 -25 z "},"Ể":{"ha":637,"x_min":9,"x_max":867,"o":"m 711 1189 l 711 1274 q 755 1268 732 1268 q 801 1305 801 1268 q 755 1340 801 1340 q 696 1324 722 1340 l 671 1364 q 713 1382 688 1375 q 765 1389 739 1389 q 839 1367 810 1389 q 867 1311 867 1345 q 839 1253 867 1276 q 762 1226 810 1230 l 758 1186 l 711 1189 m 581 1320 l 606 1320 l 675 1126 l 613 1126 l 568 1226 l 415 1126 l 334 1126 l 581 1320 m 265 -25 q 151 -6 200 -25 q 71 49 102 14 q 25 126 40 82 q 9 220 9 170 q 27 332 9 275 q 78 439 45 389 q 160 527 112 490 q 267 579 208 564 q 202 654 223 610 q 182 746 182 697 q 204 853 182 800 q 268 949 227 906 q 366 1019 310 994 q 486 1044 422 1044 q 564 1033 528 1044 q 627 1000 601 1022 q 670 945 655 978 q 685 871 685 913 q 677 814 685 840 q 654 768 669 787 q 621 737 640 748 q 582 726 602 726 q 517 764 544 726 q 540 780 528 768 q 560 810 551 793 q 573 847 568 827 q 578 885 578 867 q 554 945 578 924 q 501 962 534 962 q 445 946 471 962 q 399 901 418 930 q 370 838 380 873 q 359 766 359 803 q 392 653 359 701 q 500 581 427 600 q 370 509 429 565 q 283 385 316 457 q 252 249 252 312 q 282 149 252 186 q 383 109 316 109 q 453 118 416 109 q 524 144 490 127 q 640 250 603 184 l 672 236 q 505 45 617 116 q 389 -7 450 11 q 265 -25 328 -25 z "},"Ễ":{"ha":637,"x_min":9,"x_max":790,"o":"m 550 1295 q 505 1310 522 1305 q 467 1315 487 1315 q 404 1290 431 1315 l 397 1292 q 463 1363 420 1339 q 561 1388 505 1388 q 604 1384 585 1388 q 647 1372 623 1380 q 688 1359 673 1363 q 723 1356 704 1356 q 784 1378 764 1356 l 790 1377 q 772 1342 787 1360 q 736 1310 758 1324 q 632 1278 686 1278 l 621 1278 l 675 1126 l 613 1126 l 568 1226 l 415 1126 l 334 1126 l 550 1295 m 265 -25 q 151 -6 200 -25 q 71 49 102 14 q 25 126 40 82 q 9 220 9 170 q 27 332 9 275 q 78 439 45 389 q 160 527 112 490 q 267 579 208 564 q 202 654 223 610 q 182 746 182 697 q 204 853 182 800 q 268 949 227 906 q 366 1019 310 994 q 486 1044 422 1044 q 564 1033 528 1044 q 627 1000 601 1022 q 670 945 655 978 q 685 871 685 913 q 677 814 685 840 q 654 768 669 787 q 621 737 640 748 q 582 726 602 726 q 517 764 544 726 q 540 780 528 768 q 560 810 551 793 q 573 847 568 827 q 578 885 578 867 q 554 945 578 924 q 501 962 534 962 q 445 946 471 962 q 399 901 418 930 q 370 838 380 873 q 359 766 359 803 q 392 653 359 701 q 500 581 427 600 q 370 509 429 565 q 283 385 316 457 q 252 249 252 312 q 282 149 252 186 q 383 109 316 109 q 453 118 416 109 q 524 144 490 127 q 640 250 603 184 l 672 236 q 505 45 617 116 q 389 -7 450 11 q 265 -25 328 -25 z "},"Ȅ":{"ha":637,"x_min":9,"x_max":685,"o":"m 148 1389 l 294 1389 l 420 1126 l 344 1126 l 148 1389 m 373 1389 l 519 1389 l 645 1126 l 569 1126 l 373 1389 m 265 -25 q 151 -6 200 -25 q 71 49 102 14 q 25 126 40 82 q 9 220 9 170 q 27 332 9 275 q 78 439 45 389 q 160 527 112 490 q 267 579 208 564 q 202 654 223 610 q 182 746 182 697 q 204 853 182 800 q 268 949 227 906 q 366 1019 310 994 q 486 1044 422 1044 q 564 1033 528 1044 q 627 1000 601 1022 q 670 945 655 978 q 685 871 685 913 q 677 814 685 840 q 654 768 669 787 q 621 737 640 748 q 582 726 602 726 q 517 764 544 726 q 540 780 528 768 q 560 810 551 793 q 573 847 568 827 q 578 885 578 867 q 554 945 578 924 q 501 962 534 962 q 445 946 471 962 q 399 901 418 930 q 370 838 380 873 q 359 766 359 803 q 392 653 359 701 q 500 581 427 600 q 370 509 429 565 q 283 385 316 457 q 252 249 252 312 q 282 149 252 186 q 383 109 316 109 q 453 118 416 109 q 524 144 490 127 q 640 250 603 184 l 672 236 q 505 45 617 116 q 389 -7 450 11 q 265 -25 328 -25 z "},"Ë":{"ha":637,"x_min":9,"x_max":750,"o":"m 415 1143 q 355 1168 380 1143 q 330 1227 330 1191 q 337 1260 330 1244 q 355 1287 343 1276 q 415 1312 380 1312 q 448 1305 432 1312 q 475 1287 463 1299 q 493 1260 486 1276 q 500 1227 500 1244 q 475 1168 500 1192 q 447 1150 463 1156 q 415 1143 431 1143 m 665 1143 q 605 1168 629 1143 q 581 1227 581 1192 q 587 1259 581 1244 q 605 1287 593 1275 q 665 1312 629 1312 q 698 1305 682 1312 q 725 1287 713 1299 q 743 1260 736 1276 q 750 1227 750 1244 q 725 1168 750 1192 q 697 1150 713 1156 q 665 1143 682 1143 m 265 -25 q 151 -6 200 -25 q 71 49 102 14 q 25 126 40 82 q 9 220 9 170 q 27 332 9 275 q 78 439 45 389 q 160 527 112 490 q 267 579 208 564 q 202 654 223 610 q 182 746 182 697 q 204 853 182 800 q 268 949 227 906 q 366 1019 310 994 q 486 1044 422 1044 q 564 1033 528 1044 q 627 1000 601 1022 q 670 945 655 978 q 685 871 685 913 q 677 814 685 840 q 654 768 669 787 q 621 737 640 748 q 582 726 602 726 q 517 764 544 726 q 540 780 528 768 q 560 810 551 793 q 573 847 568 827 q 578 885 578 867 q 554 945 578 924 q 501 962 534 962 q 445 946 471 962 q 399 901 418 930 q 370 838 380 873 q 359 766 359 803 q 392 653 359 701 q 500 581 427 600 q 370 509 429 565 q 283 385 316 457 q 252 249 252 312 q 282 149 252 186 q 383 109 316 109 q 453 118 416 109 q 524 144 490 127 q 640 250 603 184 l 672 236 q 505 45 617 116 q 389 -7 450 11 q 265 -25 328 -25 z "},"Ė":{"ha":637,"x_min":9,"x_max":685,"o":"m 557 1141 q 515 1150 535 1141 q 479 1173 494 1158 q 456 1208 465 1187 q 448 1251 448 1228 q 456 1294 448 1273 q 479 1329 465 1314 q 515 1353 494 1344 q 557 1362 535 1362 q 600 1353 580 1362 q 636 1329 621 1344 q 660 1294 652 1314 q 669 1251 669 1273 q 660 1208 669 1228 q 636 1173 652 1187 q 600 1150 621 1158 q 557 1141 580 1141 m 265 -25 q 151 -6 200 -25 q 71 49 102 14 q 25 126 40 82 q 9 220 9 170 q 27 332 9 275 q 78 439 45 389 q 160 527 112 490 q 267 579 208 564 q 202 654 223 610 q 182 746 182 697 q 204 853 182 800 q 268 949 227 906 q 366 1019 310 994 q 486 1044 422 1044 q 564 1033 528 1044 q 627 1000 601 1022 q 670 945 655 978 q 685 871 685 913 q 677 814 685 840 q 654 768 669 787 q 621 737 640 748 q 582 726 602 726 q 517 764 544 726 q 540 780 528 768 q 560 810 551 793 q 573 847 568 827 q 578 885 578 867 q 554 945 578 924 q 501 962 534 962 q 445 946 471 962 q 399 901 418 930 q 370 838 380 873 q 359 766 359 803 q 392 653 359 701 q 500 581 427 600 q 370 509 429 565 q 283 385 316 457 q 252 249 252 312 q 282 149 252 186 q 383 109 316 109 q 453 118 416 109 q 524 144 490 127 q 640 250 603 184 l 672 236 q 505 45 617 116 q 389 -7 450 11 q 265 -25 328 -25 z "},"Ẹ":{"ha":637,"x_min":9,"x_max":685,"o":"m 265 -25 q 151 -6 200 -25 q 71 49 102 14 q 25 126 40 82 q 9 220 9 170 q 27 332 9 275 q 78 439 45 389 q 160 527 112 490 q 267 579 208 564 q 202 654 223 610 q 182 746 182 697 q 204 853 182 800 q 268 949 227 906 q 366 1019 310 994 q 486 1044 422 1044 q 564 1033 528 1044 q 627 1000 601 1022 q 670 945 655 978 q 685 871 685 913 q 677 814 685 840 q 654 768 669 787 q 621 737 640 748 q 582 726 602 726 q 517 764 544 726 q 540 780 528 768 q 560 810 551 793 q 573 847 568 827 q 578 885 578 867 q 554 945 578 924 q 501 962 534 962 q 445 946 471 962 q 399 901 418 930 q 370 838 380 873 q 359 766 359 803 q 392 653 359 701 q 500 581 427 600 q 370 509 429 565 q 283 385 316 457 q 252 249 252 312 q 282 149 252 186 q 383 109 316 109 q 453 118 416 109 q 524 144 490 127 q 640 250 603 184 l 672 236 q 505 45 617 116 q 389 -7 450 11 q 265 -25 328 -25 m 212 -321 q 170 -312 190 -321 q 134 -289 149 -304 q 111 -254 119 -274 q 102 -211 102 -233 q 111 -168 102 -189 q 134 -132 119 -148 q 170 -108 149 -117 q 212 -100 190 -100 q 255 -108 235 -100 q 291 -132 275 -117 q 315 -168 307 -148 q 323 -211 323 -189 q 315 -254 323 -233 q 291 -289 307 -274 q 255 -312 275 -304 q 212 -321 235 -321 z "},"È":{"ha":637,"x_min":9,"x_max":685,"o":"m 350 1389 l 496 1389 l 536 1126 l 432 1126 l 350 1389 m 265 -25 q 151 -6 200 -25 q 71 49 102 14 q 25 126 40 82 q 9 220 9 170 q 27 332 9 275 q 78 439 45 389 q 160 527 112 490 q 267 579 208 564 q 202 654 223 610 q 182 746 182 697 q 204 853 182 800 q 268 949 227 906 q 366 1019 310 994 q 486 1044 422 1044 q 564 1033 528 1044 q 627 1000 601 1022 q 670 945 655 978 q 685 871 685 913 q 677 814 685 840 q 654 768 669 787 q 621 737 640 748 q 582 726 602 726 q 517 764 544 726 q 540 780 528 768 q 560 810 551 793 q 573 847 568 827 q 578 885 578 867 q 554 945 578 924 q 501 962 534 962 q 445 946 471 962 q 399 901 418 930 q 370 838 380 873 q 359 766 359 803 q 392 653 359 701 q 500 581 427 600 q 370 509 429 565 q 283 385 316 457 q 252 249 252 312 q 282 149 252 186 q 383 109 316 109 q 453 118 416 109 q 524 144 490 127 q 640 250 603 184 l 672 236 q 505 45 617 116 q 389 -7 450 11 q 265 -25 328 -25 z "},"Ẻ":{"ha":637,"x_min":9,"x_max":692,"o":"m 470 1103 l 470 1225 q 532 1219 497 1219 q 580 1232 564 1219 q 597 1268 597 1245 q 532 1318 597 1318 q 449 1296 483 1318 l 412 1354 q 474 1379 437 1369 q 548 1388 511 1388 q 605 1380 578 1388 q 652 1358 632 1372 q 682 1322 671 1343 q 692 1277 692 1301 q 681 1232 692 1253 q 651 1195 671 1211 q 545 1156 610 1161 l 535 1100 l 470 1103 m 265 -25 q 151 -6 200 -25 q 71 49 102 14 q 25 126 40 82 q 9 220 9 170 q 27 332 9 275 q 78 439 45 389 q 160 527 112 490 q 267 579 208 564 q 202 654 223 610 q 182 746 182 697 q 204 853 182 800 q 268 949 227 906 q 366 1019 310 994 q 486 1044 422 1044 q 564 1033 528 1044 q 627 1000 601 1022 q 670 945 655 978 q 685 871 685 913 q 677 814 685 840 q 654 768 669 787 q 621 737 640 748 q 582 726 602 726 q 517 764 544 726 q 540 780 528 768 q 560 810 551 793 q 573 847 568 827 q 578 885 578 867 q 554 945 578 924 q 501 962 534 962 q 445 946 471 962 q 399 901 418 930 q 370 838 380 873 q 359 766 359 803 q 392 653 359 701 q 500 581 427 600 q 370 509 429 565 q 283 385 316 457 q 252 249 252 312 q 282 149 252 186 q 383 109 316 109 q 453 118 416 109 q 524 144 490 127 q 640 250 603 184 l 672 236 q 505 45 617 116 q 389 -7 450 11 q 265 -25 328 -25 z "},"Ȇ":{"ha":637,"x_min":9,"x_max":784,"o":"m 279 1141 q 311 1216 286 1181 q 376 1278 336 1251 q 466 1319 415 1305 q 572 1333 517 1333 q 730 1284 676 1333 q 784 1141 784 1236 l 660 1141 q 631 1227 660 1197 q 551 1257 603 1257 q 497 1248 523 1257 q 450 1223 471 1239 q 415 1186 429 1207 q 399 1141 402 1165 l 279 1141 m 265 -25 q 151 -6 200 -25 q 71 49 102 14 q 25 126 40 82 q 9 220 9 170 q 27 332 9 275 q 78 439 45 389 q 160 527 112 490 q 267 579 208 564 q 202 654 223 610 q 182 746 182 697 q 204 853 182 800 q 268 949 227 906 q 366 1019 310 994 q 486 1044 422 1044 q 564 1033 528 1044 q 627 1000 601 1022 q 670 945 655 978 q 685 871 685 913 q 677 814 685 840 q 654 768 669 787 q 621 737 640 748 q 582 726 602 726 q 517 764 544 726 q 540 780 528 768 q 560 810 551 793 q 573 847 568 827 q 578 885 578 867 q 554 945 578 924 q 501 962 534 962 q 445 946 471 962 q 399 901 418 930 q 370 838 380 873 q 359 766 359 803 q 392 653 359 701 q 500 581 427 600 q 370 509 429 565 q 283 385 316 457 q 252 249 252 312 q 282 149 252 186 q 383 109 316 109 q 453 118 416 109 q 524 144 490 127 q 640 250 603 184 l 672 236 q 505 45 617 116 q 389 -7 450 11 q 265 -25 328 -25 z "},"Ē":{"ha":637,"x_min":9,"x_max":777,"o":"m 333 1282 l 777 1282 l 757 1179 l 311 1179 l 333 1282 m 265 -25 q 151 -6 200 -25 q 71 49 102 14 q 25 126 40 82 q 9 220 9 170 q 27 332 9 275 q 78 439 45 389 q 160 527 112 490 q 267 579 208 564 q 202 654 223 610 q 182 746 182 697 q 204 853 182 800 q 268 949 227 906 q 366 1019 310 994 q 486 1044 422 1044 q 564 1033 528 1044 q 627 1000 601 1022 q 670 945 655 978 q 685 871 685 913 q 677 814 685 840 q 654 768 669 787 q 621 737 640 748 q 582 726 602 726 q 517 764 544 726 q 540 780 528 768 q 560 810 551 793 q 573 847 568 827 q 578 885 578 867 q 554 945 578 924 q 501 962 534 962 q 445 946 471 962 q 399 901 418 930 q 370 838 380 873 q 359 766 359 803 q 392 653 359 701 q 500 581 427 600 q 370 509 429 565 q 283 385 316 457 q 252 249 252 312 q 282 149 252 186 q 383 109 316 109 q 453 118 416 109 q 524 144 490 127 q 640 250 603 184 l 672 236 q 505 45 617 116 q 389 -7 450 11 q 265 -25 328 -25 z "},"Ę":{"ha":637,"x_min":16,"x_max":693,"o":"m 416 -268 q 334 -232 363 -268 q 314 -198 321 -216 q 307 -160 307 -179 q 333 -79 307 -121 q 407 1 359 -37 q 302 -8 363 -8 q 179 15 233 -8 q 87 79 125 38 q 34 167 52 117 q 16 272 16 217 q 32 372 16 322 q 79 463 47 421 q 159 537 112 507 q 267 579 206 568 q 162 675 198 616 q 129 790 129 729 q 150 884 129 838 q 209 964 170 929 q 308 1021 250 1000 q 437 1042 366 1042 q 533 1031 488 1042 q 614 998 578 1020 q 672 939 651 975 q 693 856 693 903 q 671 764 693 796 q 596 728 646 728 q 554 735 574 728 q 517 764 534 742 q 560 812 539 771 q 573 846 568 828 q 578 878 578 865 q 566 938 578 913 q 537 969 556 957 q 486 981 517 981 q 418 967 449 981 q 363 930 387 954 q 329 876 341 907 q 317 810 317 844 q 359 687 317 743 q 500 581 407 623 q 313 450 374 528 q 258 301 258 381 q 271 230 258 264 q 307 171 283 196 q 358 131 329 145 q 421 117 388 117 q 551 151 498 117 q 598 191 576 166 q 640 250 619 215 l 672 236 q 633 156 657 190 q 578 96 610 123 q 523 51 553 72 q 471 6 492 28 q 437 -44 450 -16 q 422 -117 422 -74 q 435 -163 422 -144 q 476 -186 449 -186 q 526 -169 497 -186 q 549 -154 547 -156 l 571 -139 q 568 -182 568 -161 q 539 -210 555 -195 q 507 -237 523 -225 q 416 -268 463 -268 z "},"Ẽ":{"ha":637,"x_min":9,"x_max":842,"o":"m 618 1137 q 560 1144 587 1137 q 496 1163 533 1150 q 434 1183 458 1177 q 385 1189 411 1189 q 294 1153 334 1189 l 286 1156 q 378 1257 319 1223 q 517 1292 437 1292 q 578 1286 551 1292 q 640 1269 605 1280 q 698 1251 676 1257 q 747 1246 720 1246 q 796 1254 773 1246 q 834 1278 819 1262 l 842 1276 q 816 1227 837 1252 q 765 1183 795 1202 q 695 1149 734 1162 q 618 1137 656 1137 m 265 -25 q 151 -6 200 -25 q 71 49 102 14 q 25 126 40 82 q 9 220 9 170 q 27 332 9 275 q 78 439 45 389 q 160 527 112 490 q 267 579 208 564 q 202 654 223 610 q 182 746 182 697 q 204 853 182 800 q 268 949 227 906 q 366 1019 310 994 q 486 1044 422 1044 q 564 1033 528 1044 q 627 1000 601 1022 q 670 945 655 978 q 685 871 685 913 q 677 814 685 840 q 654 768 669 787 q 621 737 640 748 q 582 726 602 726 q 517 764 544 726 q 540 780 528 768 q 560 810 551 793 q 573 847 568 827 q 578 885 578 867 q 554 945 578 924 q 501 962 534 962 q 445 946 471 962 q 399 901 418 930 q 370 838 380 873 q 359 766 359 803 q 392 653 359 701 q 500 581 427 600 q 370 509 429 565 q 283 385 316 457 q 252 249 252 312 q 282 149 252 186 q 383 109 316 109 q 453 118 416 109 q 524 144 490 127 q 640 250 603 184 l 672 236 q 505 45 617 116 q 389 -7 450 11 q 265 -25 328 -25 z "},"F":{"ha":637,"x_min":12,"x_max":842,"o":"m 322 928 q 247 912 279 926 q 192 866 215 897 q 142 640 142 798 q 152 571 142 595 q 159 555 155 562 q 161 546 161 551 q 51 576 87 546 q 12 681 12 608 q 39 817 12 753 q 121 930 66 882 q 271 1013 180 983 q 486 1042 362 1042 q 534 1039 510 1042 l 569 1036 q 651 1027 632 1029 q 717 1025 680 1025 q 842 1042 791 1025 q 829 995 836 1024 q 773 903 814 937 q 710 875 749 883 q 515 901 626 875 l 457 625 l 660 625 l 637 522 l 435 522 l 322 0 l 122 0 l 322 928 z "},"G":{"ha":803,"x_min":26,"x_max":789,"o":"m 321 -288 q 229 -274 271 -288 q 158 -235 188 -260 q 112 -175 128 -210 q 96 -98 96 -140 q 110 -23 96 -58 q 150 39 124 12 q 210 80 175 65 q 283 94 244 94 q 369 68 336 94 q 401 -1 401 43 q 386 -54 401 -35 q 352 -28 373 -37 q 307 -18 330 -18 q 239 -45 264 -18 q 212 -118 212 -73 q 238 -190 212 -162 q 302 -218 263 -218 q 385 -175 351 -218 q 439 -47 420 -132 l 508 260 l 503 260 q 411 179 464 207 q 294 151 357 151 q 184 176 233 151 q 99 247 134 201 q 45 358 64 293 q 26 503 26 423 q 43 650 26 579 q 94 783 60 721 q 275 978 160 907 q 533 1051 393 1051 q 639 1038 591 1051 q 720 1000 687 1025 q 771 940 753 975 q 789 860 789 904 q 760 764 789 801 q 725 737 745 747 q 683 728 705 728 q 634 739 657 728 q 595 771 611 750 q 637 825 620 787 q 655 899 655 862 q 631 963 655 941 q 562 986 607 986 q 482 967 522 986 q 406 913 442 948 q 339 832 370 880 q 287 730 309 785 q 240 486 240 614 q 273 327 240 381 q 369 272 306 272 q 502 350 445 272 q 594 582 558 429 l 758 581 l 656 114 q 531 -191 612 -92 q 321 -288 450 -288 z "},"Ǵ":{"ha":803,"x_min":26,"x_max":791,"o":"m 646 1389 l 791 1389 l 623 1126 l 519 1126 l 646 1389 m 321 -288 q 229 -274 271 -288 q 158 -235 188 -260 q 112 -175 128 -210 q 96 -98 96 -140 q 110 -23 96 -58 q 150 39 124 12 q 210 80 175 65 q 283 94 244 94 q 369 68 336 94 q 401 -1 401 43 q 386 -54 401 -35 q 352 -28 373 -37 q 307 -18 330 -18 q 239 -45 264 -18 q 212 -118 212 -73 q 238 -190 212 -162 q 302 -218 263 -218 q 385 -175 351 -218 q 439 -47 420 -132 l 508 260 l 503 260 q 411 179 464 207 q 294 151 357 151 q 184 176 233 151 q 99 247 134 201 q 45 358 64 293 q 26 503 26 423 q 43 650 26 579 q 94 783 60 721 q 275 978 160 907 q 533 1051 393 1051 q 639 1038 591 1051 q 720 1000 687 1025 q 771 940 753 975 q 789 860 789 904 q 760 764 789 801 q 725 737 745 747 q 683 728 705 728 q 634 739 657 728 q 595 771 611 750 q 637 825 620 787 q 655 899 655 862 q 631 963 655 941 q 562 986 607 986 q 482 967 522 986 q 406 913 442 948 q 339 832 370 880 q 287 730 309 785 q 240 486 240 614 q 273 327 240 381 q 369 272 306 272 q 502 350 445 272 q 594 582 558 429 l 758 581 l 656 114 q 531 -191 612 -92 q 321 -288 450 -288 z "},"Ğ":{"ha":803,"x_min":26,"x_max":894,"o":"m 601 1133 q 443 1181 497 1133 q 389 1324 389 1230 l 513 1324 q 542 1239 513 1269 q 623 1209 570 1209 q 677 1218 650 1209 q 724 1243 703 1227 q 758 1280 745 1259 q 774 1324 771 1301 l 894 1324 q 863 1250 888 1284 q 798 1188 838 1215 q 708 1147 758 1162 q 601 1133 657 1133 m 321 -288 q 229 -274 271 -288 q 158 -235 188 -260 q 112 -175 128 -210 q 96 -98 96 -140 q 110 -23 96 -58 q 150 39 124 12 q 210 80 175 65 q 283 94 244 94 q 369 68 336 94 q 401 -1 401 43 q 386 -54 401 -35 q 352 -28 373 -37 q 307 -18 330 -18 q 239 -45 264 -18 q 212 -118 212 -73 q 238 -190 212 -162 q 302 -218 263 -218 q 385 -175 351 -218 q 439 -47 420 -132 l 508 260 l 503 260 q 411 179 464 207 q 294 151 357 151 q 184 176 233 151 q 99 247 134 201 q 45 358 64 293 q 26 503 26 423 q 43 650 26 579 q 94 783 60 721 q 275 978 160 907 q 533 1051 393 1051 q 639 1038 591 1051 q 720 1000 687 1025 q 771 940 753 975 q 789 860 789 904 q 760 764 789 801 q 725 737 745 747 q 683 728 705 728 q 634 739 657 728 q 595 771 611 750 q 637 825 620 787 q 655 899 655 862 q 631 963 655 941 q 562 986 607 986 q 482 967 522 986 q 406 913 442 948 q 339 832 370 880 q 287 730 309 785 q 240 486 240 614 q 273 327 240 381 q 369 272 306 272 q 502 350 445 272 q 594 582 558 429 l 758 581 l 656 114 q 531 -191 612 -92 q 321 -288 450 -288 z "},"Ǧ":{"ha":803,"x_min":26,"x_max":897,"o":"m 490 1389 l 534 1389 l 618 1278 l 836 1389 l 897 1389 l 603 1126 l 574 1126 l 490 1389 m 321 -288 q 229 -274 271 -288 q 158 -235 188 -260 q 112 -175 128 -210 q 96 -98 96 -140 q 110 -23 96 -58 q 150 39 124 12 q 210 80 175 65 q 283 94 244 94 q 369 68 336 94 q 401 -1 401 43 q 386 -54 401 -35 q 352 -28 373 -37 q 307 -18 330 -18 q 239 -45 264 -18 q 212 -118 212 -73 q 238 -190 212 -162 q 302 -218 263 -218 q 385 -175 351 -218 q 439 -47 420 -132 l 508 260 l 503 260 q 411 179 464 207 q 294 151 357 151 q 184 176 233 151 q 99 247 134 201 q 45 358 64 293 q 26 503 26 423 q 43 650 26 579 q 94 783 60 721 q 275 978 160 907 q 533 1051 393 1051 q 639 1038 591 1051 q 720 1000 687 1025 q 771 940 753 975 q 789 860 789 904 q 760 764 789 801 q 725 737 745 747 q 683 728 705 728 q 634 739 657 728 q 595 771 611 750 q 637 825 620 787 q 655 899 655 862 q 631 963 655 941 q 562 986 607 986 q 482 967 522 986 q 406 913 442 948 q 339 832 370 880 q 287 730 309 785 q 240 486 240 614 q 273 327 240 381 q 369 272 306 272 q 502 350 445 272 q 594 582 558 429 l 758 581 l 656 114 q 531 -191 612 -92 q 321 -288 450 -288 z "},"Ĝ":{"ha":803,"x_min":26,"x_max":789,"o":"m 641 1389 l 670 1389 l 753 1126 l 709 1126 l 626 1238 l 408 1126 l 347 1126 l 641 1389 m 321 -288 q 229 -274 271 -288 q 158 -235 188 -260 q 112 -175 128 -210 q 96 -98 96 -140 q 110 -23 96 -58 q 150 39 124 12 q 210 80 175 65 q 283 94 244 94 q 369 68 336 94 q 401 -1 401 43 q 386 -54 401 -35 q 352 -28 373 -37 q 307 -18 330 -18 q 239 -45 264 -18 q 212 -118 212 -73 q 238 -190 212 -162 q 302 -218 263 -218 q 385 -175 351 -218 q 439 -47 420 -132 l 508 260 l 503 260 q 411 179 464 207 q 294 151 357 151 q 184 176 233 151 q 99 247 134 201 q 45 358 64 293 q 26 503 26 423 q 43 650 26 579 q 94 783 60 721 q 275 978 160 907 q 533 1051 393 1051 q 639 1038 591 1051 q 720 1000 687 1025 q 771 940 753 975 q 789 860 789 904 q 760 764 789 801 q 725 737 745 747 q 683 728 705 728 q 634 739 657 728 q 595 771 611 750 q 637 825 620 787 q 655 899 655 862 q 631 963 655 941 q 562 986 607 986 q 482 967 522 986 q 406 913 442 948 q 339 832 370 880 q 287 730 309 785 q 240 486 240 614 q 273 327 240 381 q 369 272 306 272 q 502 350 445 272 q 594 582 558 429 l 758 581 l 656 114 q 531 -191 612 -92 q 321 -288 450 -288 z "},"Ģ":{"ha":803,"x_min":8,"x_max":745,"o":"m 273 -8 q 162 17 211 -8 q 78 90 113 42 q 26 207 44 137 q 8 363 8 276 q 26 539 8 452 q 79 704 45 625 q 159 844 113 781 q 261 954 205 907 q 380 1026 317 1001 q 509 1051 444 1051 q 599 1037 557 1051 q 670 998 640 1023 q 716 938 700 973 q 732 861 732 903 q 703 767 732 804 q 669 740 689 749 q 627 730 649 730 q 542 774 574 730 q 583 827 566 790 q 599 900 599 861 q 581 963 599 940 q 530 986 562 986 q 462 961 497 986 q 395 890 427 936 q 334 784 362 845 q 284 655 305 724 q 239 364 239 505 q 268 180 239 246 q 349 113 297 113 q 418 143 382 113 q 485 229 454 174 q 542 358 517 285 q 581 514 566 432 l 745 514 l 631 0 l 451 0 l 471 94 l 465 94 q 377 16 422 40 q 273 -8 332 -8 m 281 -318 q 318 -274 305 -291 q 329 -245 329 -259 q 323 -226 329 -235 q 304 -203 317 -217 q 285 -180 292 -191 q 279 -154 279 -169 q 300 -107 279 -125 q 357 -89 322 -89 q 410 -109 390 -89 q 430 -165 430 -130 q 397 -262 430 -212 q 309 -346 362 -312 l 281 -318 z "},"Ġ":{"ha":803,"x_min":26,"x_max":789,"o":"m 578 1141 q 535 1150 555 1141 q 500 1173 515 1158 q 476 1208 485 1187 q 468 1251 468 1228 q 476 1294 468 1273 q 500 1329 485 1314 q 535 1353 515 1344 q 578 1362 555 1362 q 621 1353 600 1362 q 656 1329 641 1344 q 681 1294 672 1314 q 689 1251 689 1273 q 681 1208 689 1228 q 656 1173 672 1187 q 621 1150 641 1158 q 578 1141 600 1141 m 321 -288 q 229 -274 271 -288 q 158 -235 188 -260 q 112 -175 128 -210 q 96 -98 96 -140 q 110 -23 96 -58 q 150 39 124 12 q 210 80 175 65 q 283 94 244 94 q 369 68 336 94 q 401 -1 401 43 q 386 -54 401 -35 q 352 -28 373 -37 q 307 -18 330 -18 q 239 -45 264 -18 q 212 -118 212 -73 q 238 -190 212 -162 q 302 -218 263 -218 q 385 -175 351 -218 q 439 -47 420 -132 l 508 260 l 503 260 q 411 179 464 207 q 294 151 357 151 q 184 176 233 151 q 99 247 134 201 q 45 358 64 293 q 26 503 26 423 q 43 650 26 579 q 94 783 60 721 q 275 978 160 907 q 533 1051 393 1051 q 639 1038 591 1051 q 720 1000 687 1025 q 771 940 753 975 q 789 860 789 904 q 760 764 789 801 q 725 737 745 747 q 683 728 705 728 q 634 739 657 728 q 595 771 611 750 q 637 825 620 787 q 655 899 655 862 q 631 963 655 941 q 562 986 607 986 q 482 967 522 986 q 406 913 442 948 q 339 832 370 880 q 287 730 309 785 q 240 486 240 614 q 273 327 240 381 q 369 272 306 272 q 502 350 445 272 q 594 582 558 429 l 758 581 l 656 114 q 531 -191 612 -92 q 321 -288 450 -288 z "},"Ḡ":{"ha":803,"x_min":26,"x_max":791,"o":"m 347 1282 l 791 1282 l 770 1179 l 324 1179 l 347 1282 m 321 -288 q 229 -274 271 -288 q 158 -235 188 -260 q 112 -175 128 -210 q 96 -98 96 -140 q 110 -23 96 -58 q 150 39 124 12 q 210 80 175 65 q 283 94 244 94 q 369 68 336 94 q 401 -1 401 43 q 386 -54 401 -35 q 352 -28 373 -37 q 307 -18 330 -18 q 239 -45 264 -18 q 212 -118 212 -73 q 238 -190 212 -162 q 302 -218 263 -218 q 385 -175 351 -218 q 439 -47 420 -132 l 508 260 l 503 260 q 411 179 464 207 q 294 151 357 151 q 184 176 233 151 q 99 247 134 201 q 45 358 64 293 q 26 503 26 423 q 43 650 26 579 q 94 783 60 721 q 275 978 160 907 q 533 1051 393 1051 q 639 1038 591 1051 q 720 1000 687 1025 q 771 940 753 975 q 789 860 789 904 q 760 764 789 801 q 725 737 745 747 q 683 728 705 728 q 634 739 657 728 q 595 771 611 750 q 637 825 620 787 q 655 899 655 862 q 631 963 655 941 q 562 986 607 986 q 482 967 522 986 q 406 913 442 948 q 339 832 370 880 q 287 730 309 785 q 240 486 240 614 q 273 327 240 381 q 369 272 306 272 q 502 350 445 272 q 594 582 558 429 l 758 581 l 656 114 q 531 -191 612 -92 q 321 -288 450 -288 z "},"H":{"ha":924,"x_min":17,"x_max":964,"o":"m 340 945 q 196 828 247 905 q 146 640 146 751 q 156 571 146 595 q 163 555 159 562 q 165 546 165 551 q 55 576 91 546 q 17 681 17 608 q 36 770 17 726 q 92 857 56 815 q 173 930 126 897 q 275 989 220 964 q 504 1042 391 1042 q 559 1039 535 1042 l 471 625 l 675 625 l 764 1039 l 964 1039 l 743 0 l 543 0 l 654 522 l 450 522 l 339 0 l 139 0 l 340 945 z "},"Ħ":{"ha":924,"x_min":17,"x_max":1030,"o":"m 292 717 l 227 717 l 246 787 l 307 787 l 340 945 q 196 828 247 905 q 146 640 146 751 q 156 571 146 595 q 163 555 159 562 q 165 546 165 551 q 55 576 91 546 q 17 681 17 608 q 36 770 17 726 q 92 857 56 815 q 173 930 126 897 q 275 989 220 964 q 504 1042 391 1042 q 559 1039 535 1042 l 505 787 l 709 787 l 764 1039 l 964 1039 l 910 787 l 1030 787 l 1010 717 l 895 717 l 743 0 l 543 0 l 654 522 l 450 522 l 339 0 l 139 0 l 292 717 m 675 625 l 694 717 l 490 717 l 471 625 l 675 625 z "},"Ḫ":{"ha":924,"x_min":17,"x_max":964,"o":"m 340 945 q 196 828 247 905 q 146 640 146 751 q 156 571 146 595 q 163 555 159 562 q 165 546 165 551 q 55 576 91 546 q 17 681 17 608 q 36 770 17 726 q 92 857 56 815 q 173 930 126 897 q 275 989 220 964 q 504 1042 391 1042 q 559 1039 535 1042 l 471 625 l 675 625 l 764 1039 l 964 1039 l 743 0 l 543 0 l 654 522 l 450 522 l 339 0 l 139 0 l 340 945 m 382 -281 q 233 -235 284 -281 q 182 -100 182 -189 l 299 -100 q 326 -181 299 -153 q 402 -209 353 -209 q 453 -200 429 -209 q 498 -177 478 -192 q 529 -143 517 -163 q 545 -100 541 -123 l 657 -100 q 628 -171 652 -138 q 567 -229 604 -204 q 481 -268 529 -254 q 382 -281 434 -281 z "},"Ĥ":{"ha":924,"x_min":17,"x_max":964,"o":"m 763 1389 l 792 1389 l 876 1126 l 831 1126 l 748 1238 l 530 1126 l 469 1126 l 763 1389 m 340 945 q 196 828 247 905 q 146 640 146 751 q 156 571 146 595 q 163 555 159 562 q 165 546 165 551 q 55 576 91 546 q 17 681 17 608 q 36 770 17 726 q 92 857 56 815 q 173 930 126 897 q 275 989 220 964 q 504 1042 391 1042 q 559 1039 535 1042 l 471 625 l 675 625 l 764 1039 l 964 1039 l 743 0 l 543 0 l 654 522 l 450 522 l 339 0 l 139 0 l 340 945 z "},"Ḥ":{"ha":924,"x_min":17,"x_max":964,"o":"m 340 945 q 196 828 247 905 q 146 640 146 751 q 156 571 146 595 q 163 555 159 562 q 165 546 165 551 q 55 576 91 546 q 17 681 17 608 q 36 770 17 726 q 92 857 56 815 q 173 930 126 897 q 275 989 220 964 q 504 1042 391 1042 q 559 1039 535 1042 l 471 625 l 675 625 l 764 1039 l 964 1039 l 743 0 l 543 0 l 654 522 l 450 522 l 339 0 l 139 0 l 340 945 m 402 -321 q 359 -312 380 -321 q 324 -289 339 -304 q 301 -254 309 -274 q 292 -211 292 -233 q 301 -168 292 -189 q 324 -132 309 -148 q 359 -108 339 -117 q 402 -100 380 -100 q 445 -108 425 -100 q 481 -132 465 -117 q 505 -168 496 -148 q 513 -211 513 -189 q 505 -254 513 -233 q 481 -289 496 -274 q 445 -312 465 -304 q 402 -321 425 -321 z "},"I":{"ha":521,"x_min":8,"x_max":551,"o":"m 332 943 q 188 828 238 905 q 138 640 138 751 q 147 571 138 597 q 154 555 150 562 q 157 546 157 551 q 47 576 81 546 q 8 681 8 608 q 28 771 8 726 q 83 857 47 815 q 164 930 117 896 q 267 989 212 964 q 496 1042 382 1042 q 551 1039 527 1042 l 330 0 l 131 0 l 332 943 z "},"Ĳ":{"ha":921,"x_min":8,"x_max":935,"o":"m 379 -288 q 210 -233 268 -288 q 155 -97 155 -183 q 176 0 155 -43 l 131 0 l 332 943 q 188 828 238 905 q 138 640 138 751 q 147 571 138 597 q 154 555 150 562 q 157 546 157 551 q 47 576 81 546 q 8 681 8 608 q 28 771 8 726 q 83 857 47 815 q 164 930 117 896 q 267 989 212 964 q 496 1042 382 1042 q 551 1039 527 1042 l 347 81 q 415 50 390 74 q 440 -8 440 26 q 431 -54 440 -28 q 363 -22 399 -22 q 328 -30 345 -22 q 298 -52 311 -38 q 279 -85 286 -66 q 272 -123 272 -103 q 298 -191 272 -165 q 371 -218 326 -218 q 411 -211 393 -218 q 444 -184 429 -203 q 498 -47 479 -143 l 726 996 l 935 1042 l 726 56 q 619 -189 694 -103 q 379 -288 531 -288 z "},"Í":{"ha":521,"x_min":8,"x_max":680,"o":"m 534 1389 l 680 1389 l 512 1126 l 408 1126 l 534 1389 m 332 943 q 188 828 238 905 q 138 640 138 751 q 147 571 138 597 q 154 555 150 562 q 157 546 157 551 q 47 576 81 546 q 8 681 8 608 q 28 771 8 726 q 83 857 47 815 q 164 930 117 896 q 267 989 212 964 q 496 1042 382 1042 q 551 1039 527 1042 l 330 0 l 131 0 l 332 943 z "},"Ĭ":{"ha":521,"x_min":8,"x_max":745,"o":"m 452 1133 q 295 1181 349 1133 q 241 1324 241 1230 l 365 1324 q 393 1239 365 1269 q 474 1209 422 1209 q 528 1218 502 1209 q 576 1243 555 1227 q 609 1280 596 1259 q 626 1324 623 1301 l 745 1324 q 714 1250 739 1284 q 649 1188 689 1215 q 559 1147 610 1162 q 452 1133 508 1133 m 332 943 q 188 828 238 905 q 138 640 138 751 q 147 571 138 597 q 154 555 150 562 q 157 546 157 551 q 47 576 81 546 q 8 681 8 608 q 28 771 8 726 q 83 857 47 815 q 164 930 117 896 q 267 989 212 964 q 496 1042 382 1042 q 551 1039 527 1042 l 330 0 l 131 0 l 332 943 z "},"Ǐ":{"ha":521,"x_min":8,"x_max":775,"o":"m 368 1389 l 412 1389 l 496 1278 l 714 1389 l 775 1389 l 481 1126 l 452 1126 l 368 1389 m 332 943 q 188 828 238 905 q 138 640 138 751 q 147 571 138 597 q 154 555 150 562 q 157 546 157 551 q 47 576 81 546 q 8 681 8 608 q 28 771 8 726 q 83 857 47 815 q 164 930 117 896 q 267 989 212 964 q 496 1042 382 1042 q 551 1039 527 1042 l 330 0 l 131 0 l 332 943 z "},"Î":{"ha":521,"x_min":8,"x_max":644,"o":"m 531 1389 l 560 1389 l 644 1126 l 600 1126 l 516 1238 l 298 1126 l 237 1126 l 531 1389 m 332 943 q 188 828 238 905 q 138 640 138 751 q 147 571 138 597 q 154 555 150 562 q 157 546 157 551 q 47 576 81 546 q 8 681 8 608 q 28 771 8 726 q 83 857 47 815 q 164 930 117 896 q 267 989 212 964 q 496 1042 382 1042 q 551 1039 527 1042 l 330 0 l 131 0 l 332 943 z "},"Ȉ":{"ha":521,"x_min":8,"x_max":584,"o":"m 87 1389 l 233 1389 l 359 1126 l 283 1126 l 87 1389 m 312 1389 l 458 1389 l 584 1126 l 508 1126 l 312 1389 m 332 943 q 188 828 238 905 q 138 640 138 751 q 147 571 138 597 q 154 555 150 562 q 157 546 157 551 q 47 576 81 546 q 8 681 8 608 q 28 771 8 726 q 83 857 47 815 q 164 930 117 896 q 267 989 212 964 q 496 1042 382 1042 q 551 1039 527 1042 l 330 0 l 131 0 l 332 943 z "},"Ï":{"ha":521,"x_min":8,"x_max":679,"o":"m 344 1143 q 283 1168 308 1143 q 259 1227 259 1192 q 266 1259 259 1244 q 283 1287 272 1275 q 344 1312 307 1312 q 376 1305 361 1312 q 404 1287 392 1299 q 422 1260 415 1276 q 429 1227 429 1244 q 404 1168 429 1192 q 376 1150 391 1156 q 344 1143 360 1143 m 594 1143 q 534 1168 558 1143 q 509 1227 509 1192 q 516 1259 509 1244 q 534 1287 522 1275 q 594 1312 557 1312 q 654 1287 627 1312 q 672 1260 665 1276 q 679 1227 679 1244 q 654 1168 679 1192 q 594 1143 627 1143 m 332 943 q 188 828 238 905 q 138 640 138 751 q 147 571 138 597 q 154 555 150 562 q 157 546 157 551 q 47 576 81 546 q 8 681 8 608 q 28 771 8 726 q 83 857 47 815 q 164 930 117 896 q 267 989 212 964 q 496 1042 382 1042 q 551 1039 527 1042 l 330 0 l 131 0 l 332 943 z "},"İ":{"ha":521,"x_min":8,"x_max":607,"o":"m 496 1141 q 453 1150 473 1141 q 418 1173 433 1158 q 394 1208 403 1187 q 386 1251 386 1228 q 394 1294 386 1273 q 418 1329 403 1314 q 453 1353 433 1344 q 496 1362 473 1362 q 538 1353 518 1362 q 574 1329 559 1344 q 598 1294 590 1314 q 607 1251 607 1273 q 598 1208 607 1228 q 574 1173 590 1187 q 538 1150 559 1158 q 496 1141 518 1141 m 332 943 q 188 828 238 905 q 138 640 138 751 q 147 571 138 597 q 154 555 150 562 q 157 546 157 551 q 47 576 81 546 q 8 681 8 608 q 28 771 8 726 q 83 857 47 815 q 164 930 117 896 q 267 989 212 964 q 496 1042 382 1042 q 551 1039 527 1042 l 330 0 l 131 0 l 332 943 z "},"Ị":{"ha":521,"x_min":8,"x_max":551,"o":"m 332 943 q 188 828 238 905 q 138 640 138 751 q 147 571 138 597 q 154 555 150 562 q 157 546 157 551 q 47 576 81 546 q 8 681 8 608 q 28 771 8 726 q 83 857 47 815 q 164 930 117 896 q 267 989 212 964 q 496 1042 382 1042 q 551 1039 527 1042 l 330 0 l 131 0 l 332 943 m 191 -321 q 149 -312 169 -321 q 113 -289 128 -304 q 90 -254 98 -274 q 81 -211 81 -233 q 90 -168 81 -189 q 113 -132 98 -148 q 149 -108 128 -117 q 191 -100 169 -100 q 234 -108 214 -100 q 270 -132 254 -117 q 294 -168 286 -148 q 302 -211 302 -189 q 294 -254 302 -233 q 270 -289 286 -274 q 234 -312 254 -304 q 191 -321 214 -321 z "},"Ì":{"ha":521,"x_min":8,"x_max":551,"o":"m 298 1389 l 444 1389 l 485 1126 l 380 1126 l 298 1389 m 332 943 q 188 828 238 905 q 138 640 138 751 q 147 571 138 597 q 154 555 150 562 q 157 546 157 551 q 47 576 81 546 q 8 681 8 608 q 28 771 8 726 q 83 857 47 815 q 164 930 117 896 q 267 989 212 964 q 496 1042 382 1042 q 551 1039 527 1042 l 330 0 l 131 0 l 332 943 z "},"Ỉ":{"ha":521,"x_min":8,"x_max":637,"o":"m 416 1103 l 416 1225 q 477 1219 443 1219 q 526 1232 509 1219 q 543 1268 543 1245 q 477 1318 543 1318 q 395 1296 429 1318 l 358 1354 q 419 1379 382 1369 q 494 1388 456 1388 q 551 1380 524 1388 q 597 1358 578 1372 q 627 1322 617 1343 q 637 1277 637 1301 q 627 1232 637 1253 q 597 1195 616 1211 q 491 1156 555 1161 l 481 1100 l 416 1103 m 332 943 q 188 828 238 905 q 138 640 138 751 q 147 571 138 597 q 154 555 150 562 q 157 546 157 551 q 47 576 81 546 q 8 681 8 608 q 28 771 8 726 q 83 857 47 815 q 164 930 117 896 q 267 989 212 964 q 496 1042 382 1042 q 551 1039 527 1042 l 330 0 l 131 0 l 332 943 z "},"Ȋ":{"ha":521,"x_min":8,"x_max":690,"o":"m 185 1141 q 216 1216 191 1181 q 281 1278 241 1251 q 372 1319 321 1305 q 478 1333 422 1333 q 636 1284 582 1333 q 690 1141 690 1236 l 566 1141 q 537 1227 566 1197 q 456 1257 509 1257 q 402 1248 429 1257 q 355 1223 376 1239 q 321 1186 334 1207 q 304 1141 308 1165 l 185 1141 m 332 943 q 188 828 238 905 q 138 640 138 751 q 147 571 138 597 q 154 555 150 562 q 157 546 157 551 q 47 576 81 546 q 8 681 8 608 q 28 771 8 726 q 83 857 47 815 q 164 930 117 896 q 267 989 212 964 q 496 1042 382 1042 q 551 1039 527 1042 l 330 0 l 131 0 l 332 943 z "},"Ī":{"ha":521,"x_min":8,"x_max":679,"o":"m 235 1282 l 679 1282 l 659 1179 l 212 1179 l 235 1282 m 332 943 q 188 828 238 905 q 138 640 138 751 q 147 571 138 597 q 154 555 150 562 q 157 546 157 551 q 47 576 81 546 q 8 681 8 608 q 28 771 8 726 q 83 857 47 815 q 164 930 117 896 q 267 989 212 964 q 496 1042 382 1042 q 551 1039 527 1042 l 330 0 l 131 0 l 332 943 z "},"Į":{"ha":521,"x_min":8,"x_max":551,"o":"m 237 1389 l 383 1389 l 424 1126 l 319 1126 l 237 1389 m 220 -297 q 121 -260 160 -297 q 92 -219 102 -243 q 82 -168 82 -195 q 184 0 82 -72 l 131 0 l 332 943 q 188 828 238 905 q 138 640 138 751 q 147 571 138 597 q 154 555 150 562 q 157 546 157 551 q 47 576 81 546 q 8 681 8 608 q 28 771 8 726 q 83 857 47 815 q 164 930 117 896 q 267 989 212 964 q 496 1042 382 1042 q 551 1039 527 1042 l 330 0 l 256 0 q 213 -53 229 -20 q 197 -122 197 -85 q 218 -184 197 -161 q 274 -207 239 -207 q 325 -193 300 -207 q 374 -153 351 -179 l 397 -184 q 324 -264 377 -231 q 273 -289 300 -280 q 220 -297 246 -297 z "},"Ĩ":{"ha":521,"x_min":8,"x_max":741,"o":"m 517 1137 q 459 1144 486 1137 q 395 1163 431 1150 q 333 1183 356 1177 q 283 1189 309 1189 q 192 1153 232 1189 l 184 1156 q 276 1257 217 1223 q 416 1292 336 1292 q 476 1286 449 1292 q 538 1269 503 1280 q 596 1251 574 1257 q 645 1246 618 1246 q 694 1254 671 1246 q 732 1278 717 1262 l 741 1276 q 714 1227 735 1252 q 663 1183 694 1202 q 593 1149 632 1162 q 517 1137 555 1137 m 332 943 q 188 828 238 905 q 138 640 138 751 q 147 571 138 597 q 154 555 150 562 q 157 546 157 551 q 47 576 81 546 q 8 681 8 608 q 28 771 8 726 q 83 857 47 815 q 164 930 117 896 q 267 989 212 964 q 496 1042 382 1042 q 551 1039 527 1042 l 330 0 l 131 0 l 332 943 z "},"J":{"ha":745,"x_min":24,"x_max":803,"o":"m 229 -288 q 77 -233 131 -288 q 24 -92 24 -182 q 35 -23 24 -56 q 68 37 47 11 q 122 79 90 64 q 193 94 153 94 q 242 92 221 94 q 282 81 264 90 q 329 1 329 60 q 321 -54 329 -23 q 277 -25 296 -33 q 237 -18 260 -18 q 165 -50 191 -18 q 146 -82 153 -64 q 140 -121 140 -101 q 173 -197 140 -170 q 202 -213 186 -208 q 235 -218 218 -218 q 278 -212 259 -218 q 312 -187 296 -205 q 367 -47 344 -150 l 585 945 q 440 828 491 906 q 389 640 389 751 q 399 571 389 595 q 406 555 401 562 q 408 546 408 551 q 298 576 333 546 q 260 681 260 608 q 279 771 260 726 q 335 857 299 815 q 416 930 369 896 q 518 989 463 964 q 747 1042 633 1042 l 803 1042 l 595 56 q 550 -90 577 -27 q 481 -195 522 -153 q 375 -264 437 -241 q 229 -288 313 -288 z "},"Ĵ":{"ha":745,"x_min":24,"x_max":889,"o":"m 777 1389 l 806 1389 l 889 1126 l 845 1126 l 762 1238 l 543 1126 l 482 1126 l 777 1389 m 229 -288 q 77 -233 131 -288 q 24 -92 24 -182 q 35 -23 24 -56 q 68 37 47 11 q 122 79 90 64 q 193 94 153 94 q 242 92 221 94 q 282 81 264 90 q 329 1 329 60 q 321 -54 329 -23 q 277 -25 296 -33 q 237 -18 260 -18 q 165 -50 191 -18 q 146 -82 153 -64 q 140 -121 140 -101 q 173 -197 140 -170 q 202 -213 186 -208 q 235 -218 218 -218 q 278 -212 259 -218 q 312 -187 296 -205 q 367 -47 344 -150 l 585 945 q 440 828 491 906 q 389 640 389 751 q 399 571 389 595 q 406 555 401 562 q 408 546 408 551 q 298 576 333 546 q 260 681 260 608 q 279 771 260 726 q 335 857 299 815 q 416 930 369 896 q 518 989 463 964 q 747 1042 633 1042 l 803 1042 l 595 56 q 550 -90 577 -27 q 481 -195 522 -153 q 375 -264 437 -241 q 229 -288 313 -288 z "},"K":{"ha":835,"x_min":8,"x_max":922,"o":"m 606 -24 q 518 7 545 -24 q 497 69 497 30 q 507 141 497 100 q 534 248 516 182 q 562 356 553 313 q 571 435 571 399 q 553 503 571 479 q 488 529 532 529 q 441 524 461 529 l 330 0 l 131 0 l 332 945 q 188 828 238 905 q 138 640 138 751 q 147 571 138 597 q 154 555 150 562 q 157 546 157 551 q 47 576 81 546 q 8 681 8 608 q 28 771 8 726 q 83 857 47 815 q 164 930 117 896 q 267 989 212 964 q 496 1042 382 1042 q 551 1039 527 1042 l 461 614 l 500 666 q 600 800 538 718 l 652 869 l 700 934 l 739 987 l 766 1022 l 777 1035 l 922 1035 l 536 590 q 562 591 554 590 q 585 591 569 591 q 722 549 680 591 q 757 443 757 513 q 748 360 757 404 q 723 257 739 317 q 697 156 705 191 q 689 92 689 121 q 704 34 689 59 q 743 0 718 9 q 606 -24 660 -24 z "},"Ķ":{"ha":835,"x_min":8,"x_max":922,"o":"m 606 -24 q 518 7 545 -24 q 497 69 497 30 q 507 141 497 100 q 534 248 516 182 q 562 356 553 313 q 571 435 571 399 q 553 503 571 479 q 488 529 532 529 q 441 524 461 529 l 330 0 l 131 0 l 332 945 q 188 828 238 905 q 138 640 138 751 q 147 571 138 597 q 154 555 150 562 q 157 546 157 551 q 47 576 81 546 q 8 681 8 608 q 28 771 8 726 q 83 857 47 815 q 164 930 117 896 q 267 989 212 964 q 496 1042 382 1042 q 551 1039 527 1042 l 461 614 l 500 666 q 600 800 538 718 l 652 869 l 700 934 l 739 987 l 766 1022 l 777 1035 l 922 1035 l 536 590 q 562 591 554 590 q 585 591 569 591 q 722 549 680 591 q 757 443 757 513 q 748 360 757 404 q 723 257 739 317 q 697 156 705 191 q 689 92 689 121 q 704 34 689 59 q 743 0 718 9 q 606 -24 660 -24 m 349 -318 q 386 -274 373 -291 q 397 -245 397 -259 q 391 -226 397 -235 q 372 -203 385 -217 q 353 -180 359 -191 q 347 -154 347 -169 q 368 -107 347 -125 q 425 -89 390 -89 q 478 -109 458 -89 q 498 -165 498 -130 q 465 -262 498 -212 q 377 -346 430 -312 l 349 -318 z "},"L":{"ha":526,"x_min":8,"x_max":921,"o":"m 777 -347 q 684 -326 730 -347 q 583 -265 637 -304 q 484 -189 533 -231 q 275 -55 370 -94 q 157 -32 220 -32 l 141 -32 q 125 -33 137 -32 l 332 929 q 188 814 238 890 q 138 627 138 738 q 147 557 138 584 q 154 541 150 548 q 157 532 157 536 q 47 562 81 532 q 8 667 8 595 q 28 756 8 712 q 83 842 47 801 q 165 917 118 882 q 267 976 212 951 q 496 1028 382 1028 q 551 1025 521 1028 l 338 28 q 405 5 371 20 q 484 -33 439 -9 l 559 -74 q 719 -140 648 -122 q 804 -151 760 -151 q 921 -129 867 -151 q 871 -288 909 -231 q 829 -332 853 -317 q 777 -347 805 -347 z "},"Ĺ":{"ha":526,"x_min":8,"x_max":921,"o":"m 551 1389 l 696 1389 l 528 1126 l 424 1126 l 551 1389 m 777 -347 q 684 -326 730 -347 q 583 -265 637 -304 q 484 -189 533 -231 q 275 -55 370 -94 q 157 -32 220 -32 l 141 -32 q 125 -33 137 -32 l 332 929 q 188 814 238 890 q 138 627 138 738 q 147 557 138 584 q 154 541 150 548 q 157 532 157 536 q 47 562 81 532 q 8 667 8 595 q 28 756 8 712 q 83 842 47 801 q 165 917 118 882 q 267 976 212 951 q 496 1028 382 1028 q 551 1025 521 1028 l 338 28 q 405 5 371 20 q 484 -33 439 -9 l 559 -74 q 719 -140 648 -122 q 804 -151 760 -151 q 921 -129 867 -151 q 871 -288 909 -231 q 829 -332 853 -317 q 777 -347 805 -347 z "},"Ľ":{"ha":526,"x_min":8,"x_max":921,"o":"m 395 1389 l 439 1389 l 523 1278 l 741 1389 l 802 1389 l 508 1126 l 479 1126 l 395 1389 m 777 -347 q 684 -326 730 -347 q 583 -265 637 -304 q 484 -189 533 -231 q 275 -55 370 -94 q 157 -32 220 -32 l 141 -32 q 125 -33 137 -32 l 332 929 q 188 814 238 890 q 138 627 138 738 q 147 557 138 584 q 154 541 150 548 q 157 532 157 536 q 47 562 81 532 q 8 667 8 595 q 28 756 8 712 q 83 842 47 801 q 165 917 118 882 q 267 976 212 951 q 496 1028 382 1028 q 551 1025 521 1028 l 338 28 q 405 5 371 20 q 484 -33 439 -9 l 559 -74 q 719 -140 648 -122 q 804 -151 760 -151 q 921 -129 867 -151 q 871 -288 909 -231 q 829 -332 853 -317 q 777 -347 805 -347 z "},"Ļ":{"ha":526,"x_min":8,"x_max":921,"o":"m 777 -347 q 684 -326 730 -347 q 583 -265 637 -304 q 484 -189 533 -231 q 275 -55 370 -94 q 157 -32 220 -32 l 141 -32 q 125 -33 137 -32 l 332 929 q 188 814 238 890 q 138 627 138 738 q 147 557 138 584 q 154 541 150 548 q 157 532 157 536 q 47 562 81 532 q 8 667 8 595 q 28 756 8 712 q 83 842 47 801 q 165 917 118 882 q 267 976 212 951 q 496 1028 382 1028 q 551 1025 521 1028 l 338 28 q 405 5 371 20 q 484 -33 439 -9 l 559 -74 q 719 -140 648 -122 q 804 -151 760 -151 q 921 -129 867 -151 q 871 -288 909 -231 q 829 -332 853 -317 q 777 -347 805 -347 m 112 -318 q 149 -274 136 -291 q 159 -245 159 -259 q 153 -226 159 -235 q 134 -203 147 -217 q 116 -180 122 -191 q 109 -154 109 -169 q 131 -107 109 -125 q 187 -89 153 -89 q 240 -109 220 -89 q 260 -165 260 -130 q 227 -262 260 -212 q 140 -346 193 -312 l 112 -318 z "},"Ŀ":{"ha":841,"x_min":8,"x_max":921,"o":"m 777 -347 q 684 -326 730 -347 q 583 -265 637 -304 q 484 -189 533 -231 q 275 -55 370 -94 q 157 -32 220 -32 l 141 -32 q 125 -33 137 -32 l 332 929 q 188 814 238 890 q 138 627 138 738 q 147 557 138 584 q 154 541 150 548 q 157 532 157 536 q 47 562 81 532 q 8 667 8 595 q 28 756 8 712 q 83 842 47 801 q 165 917 118 882 q 267 976 212 951 q 496 1028 382 1028 q 551 1025 521 1028 l 338 28 q 405 5 371 20 q 484 -33 439 -9 l 559 -74 q 719 -140 648 -122 q 804 -151 760 -151 q 921 -129 867 -151 q 871 -288 909 -231 q 829 -332 853 -317 q 777 -347 805 -347 m 667 239 q 625 247 645 239 q 589 271 604 256 q 566 305 574 285 q 557 348 557 326 q 566 391 557 370 q 589 427 574 412 q 625 450 604 441 q 667 459 645 459 q 710 450 690 459 q 746 427 730 441 q 770 391 762 412 q 779 348 779 370 q 770 305 779 326 q 746 271 762 285 q 710 247 730 256 q 667 239 690 239 z "},"Ḷ":{"ha":526,"x_min":8,"x_max":921,"o":"m 777 -347 q 684 -326 730 -347 q 583 -265 637 -304 q 484 -189 533 -231 q 275 -55 370 -94 q 157 -32 220 -32 l 141 -32 q 125 -33 137 -32 l 332 929 q 188 814 238 890 q 138 627 138 738 q 147 557 138 584 q 154 541 150 548 q 157 532 157 536 q 47 562 81 532 q 8 667 8 595 q 28 756 8 712 q 83 842 47 801 q 165 917 118 882 q 267 976 212 951 q 496 1028 382 1028 q 551 1025 521 1028 l 338 28 q 405 5 371 20 q 484 -33 439 -9 l 559 -74 q 719 -140 648 -122 q 804 -151 760 -151 q 921 -129 867 -151 q 871 -288 909 -231 q 829 -332 853 -317 q 777 -347 805 -347 m 205 -321 q 163 -312 183 -321 q 127 -289 142 -304 q 104 -254 113 -274 q 96 -211 96 -233 q 104 -168 96 -189 q 127 -132 113 -148 q 163 -108 142 -117 q 205 -100 183 -100 q 248 -108 228 -100 q 284 -132 269 -117 q 308 -168 300 -148 q 317 -211 317 -189 q 308 -254 317 -233 q 284 -289 300 -274 q 248 -312 269 -304 q 205 -321 228 -321 z "},"Ł":{"ha":545,"x_min":8,"x_max":921,"o":"m 777 -347 q 684 -326 730 -347 q 583 -265 637 -304 q 484 -189 533 -231 q 275 -55 370 -94 q 157 -32 220 -32 l 141 -32 q 125 -33 137 -32 l 222 410 l 132 355 l 135 429 l 240 497 l 332 929 q 188 814 238 890 q 138 627 138 738 q 147 557 138 584 q 154 541 150 548 q 157 532 157 536 q 47 562 81 532 q 8 667 8 595 q 28 756 8 712 q 83 842 47 801 q 165 917 118 882 q 267 976 212 951 q 496 1028 382 1028 q 551 1025 521 1028 l 475 660 l 636 755 l 631 671 l 454 562 l 338 28 q 405 5 371 20 q 484 -33 439 -9 q 637 -112 583 -88 q 804 -151 727 -151 q 921 -129 867 -151 q 871 -288 909 -231 q 829 -332 853 -317 q 777 -347 805 -347 z "},"M":{"ha":1093,"x_min":93,"x_max":1117,"o":"m 446 954 q 282 839 340 919 q 225 642 225 760 q 235 571 225 597 q 241 556 237 564 q 244 546 244 551 q 136 574 174 546 q 96 672 96 606 q 113 760 96 715 q 163 847 131 805 q 238 923 195 888 q 330 985 280 959 q 432 1027 379 1013 q 538 1042 486 1042 q 643 1022 589 1042 l 611 290 l 917 1022 l 1117 1022 l 971 0 l 771 0 l 860 624 l 599 0 l 408 0 l 436 627 l 204 0 l 93 0 l 446 954 z "},"Ṃ":{"ha":1093,"x_min":93,"x_max":1117,"o":"m 446 954 q 282 839 340 919 q 225 642 225 760 q 235 571 225 597 q 241 556 237 564 q 244 546 244 551 q 136 574 174 546 q 96 672 96 606 q 113 760 96 715 q 163 847 131 805 q 238 923 195 888 q 330 985 280 959 q 432 1027 379 1013 q 538 1042 486 1042 q 643 1022 589 1042 l 611 290 l 917 1022 l 1117 1022 l 971 0 l 771 0 l 860 624 l 599 0 l 408 0 l 436 627 l 204 0 l 93 0 l 446 954 m 463 -321 q 420 -312 441 -321 q 385 -289 400 -304 q 362 -254 370 -274 q 353 -211 353 -233 q 362 -168 353 -189 q 385 -132 370 -148 q 420 -108 400 -117 q 463 -100 441 -100 q 506 -108 486 -100 q 542 -132 526 -117 q 566 -168 557 -148 q 574 -211 574 -189 q 566 -254 574 -233 q 542 -289 557 -274 q 506 -312 526 -304 q 463 -321 486 -321 z "},"N":{"ha":928,"x_min":8,"x_max":998,"o":"m 337 951 q 193 847 241 918 q 144 673 144 776 q 154 592 144 629 q 182 532 164 555 q 50 568 92 532 q 8 682 8 604 q 66 865 8 779 q 218 997 122 947 q 430 1047 316 1047 q 486 1043 462 1047 q 540 1028 510 1038 l 707 285 l 863 1039 l 998 1039 l 771 0 l 579 0 l 418 689 l 260 0 l 128 0 l 337 951 z "},"Ń":{"ha":975,"x_min":8,"x_max":998,"o":"m 815 1389 l 961 1389 l 793 1126 l 689 1126 l 815 1389 m 337 951 q 193 847 241 918 q 144 673 144 776 q 154 592 144 629 q 182 532 164 555 q 50 568 92 532 q 8 682 8 604 q 66 865 8 779 q 218 997 122 947 q 430 1047 316 1047 q 486 1043 462 1047 q 540 1028 510 1038 l 707 285 l 863 1039 l 998 1039 l 771 0 l 579 0 l 418 689 l 260 0 l 128 0 l 337 951 z "},"Ň":{"ha":928,"x_min":8,"x_max":1019,"o":"m 612 1389 l 656 1389 l 740 1278 l 958 1389 l 1019 1389 l 725 1126 l 696 1126 l 612 1389 m 337 951 q 193 847 241 918 q 144 673 144 776 q 154 592 144 629 q 182 532 164 555 q 50 568 92 532 q 8 682 8 604 q 66 865 8 779 q 218 997 122 947 q 430 1047 316 1047 q 486 1043 462 1047 q 540 1028 510 1038 l 707 285 l 863 1039 l 998 1039 l 771 0 l 579 0 l 418 689 l 260 0 l 128 0 l 337 951 z "},"Ņ":{"ha":928,"x_min":8,"x_max":998,"o":"m 337 951 q 193 847 241 918 q 144 673 144 776 q 154 592 144 629 q 182 532 164 555 q 50 568 92 532 q 8 682 8 604 q 66 865 8 779 q 218 997 122 947 q 430 1047 316 1047 q 486 1043 462 1047 q 540 1028 510 1038 l 707 285 l 863 1039 l 998 1039 l 771 0 l 579 0 l 418 689 l 260 0 l 128 0 l 337 951 m 342 -318 q 379 -274 366 -291 q 390 -245 390 -259 q 384 -226 390 -235 q 365 -203 378 -217 q 346 -180 353 -191 q 340 -154 340 -169 q 361 -107 340 -125 q 418 -89 383 -89 q 471 -109 451 -89 q 491 -165 491 -130 q 458 -262 491 -212 q 370 -346 423 -312 l 342 -318 z "},"Ṅ":{"ha":928,"x_min":8,"x_max":998,"o":"m 741 1141 q 698 1150 718 1141 q 663 1173 677 1158 q 639 1208 648 1187 q 631 1251 631 1228 q 639 1294 631 1273 q 663 1329 648 1314 q 698 1353 677 1344 q 741 1362 718 1362 q 783 1353 763 1362 q 819 1329 804 1344 q 843 1294 835 1314 q 852 1251 852 1273 q 843 1208 852 1228 q 819 1173 835 1187 q 783 1150 804 1158 q 741 1141 763 1141 m 337 951 q 193 847 241 918 q 144 673 144 776 q 154 592 144 629 q 182 532 164 555 q 50 568 92 532 q 8 682 8 604 q 66 865 8 779 q 218 997 122 947 q 430 1047 316 1047 q 486 1043 462 1047 q 540 1028 510 1038 l 707 285 l 863 1039 l 998 1039 l 771 0 l 579 0 l 418 689 l 260 0 l 128 0 l 337 951 z "},"Ṇ":{"ha":928,"x_min":8,"x_max":998,"o":"m 337 951 q 193 847 241 918 q 144 673 144 776 q 154 592 144 629 q 182 532 164 555 q 50 568 92 532 q 8 682 8 604 q 66 865 8 779 q 218 997 122 947 q 430 1047 316 1047 q 486 1043 462 1047 q 540 1028 510 1038 l 707 285 l 863 1039 l 998 1039 l 771 0 l 579 0 l 418 689 l 260 0 l 128 0 l 337 951 m 416 -321 q 373 -312 393 -321 q 338 -289 353 -304 q 314 -254 323 -274 q 306 -211 306 -233 q 314 -168 306 -189 q 338 -132 323 -148 q 373 -108 353 -117 q 416 -100 393 -100 q 458 -108 438 -100 q 494 -132 479 -117 q 518 -168 510 -148 q 527 -211 527 -189 q 518 -254 527 -233 q 494 -289 510 -274 q 458 -312 479 -304 q 416 -321 438 -321 z "},"Ŋ":{"ha":1004,"x_min":71,"x_max":1071,"o":"m 525 -286 q 445 -275 481 -286 q 382 -241 408 -263 q 343 -190 357 -220 q 329 -123 329 -160 q 353 -44 329 -73 q 419 -16 378 -16 q 471 -31 450 -16 q 497 -71 492 -45 q 477 -76 486 -71 q 460 -92 467 -82 q 446 -142 446 -113 q 466 -196 446 -175 q 519 -216 487 -216 q 563 -204 542 -216 q 601 -170 583 -193 q 654 -46 637 -124 l 665 0 l 481 689 l 322 0 l 191 0 l 406 951 q 258 846 309 918 q 207 673 207 775 q 217 592 207 629 q 244 532 227 555 q 112 568 154 532 q 71 684 71 605 q 130 865 71 780 q 285 997 187 947 q 498 1047 385 1047 q 551 1043 527 1047 q 608 1028 576 1038 l 770 285 l 936 1044 l 1071 1044 l 863 115 q 525 -286 772 -286 z "},"Ñ":{"ha":953,"x_min":8,"x_max":998,"o":"m 761 1137 q 703 1144 730 1137 q 639 1163 675 1150 q 577 1183 600 1177 q 528 1189 553 1189 q 436 1153 476 1189 l 428 1156 q 520 1257 461 1223 q 660 1292 580 1292 q 720 1286 693 1292 q 782 1269 747 1280 q 840 1251 819 1257 q 889 1246 862 1246 q 938 1254 916 1246 q 977 1278 961 1262 l 985 1276 q 959 1227 979 1252 q 907 1183 938 1202 q 838 1149 876 1162 q 761 1137 799 1137 m 337 951 q 193 847 241 918 q 144 673 144 776 q 154 592 144 629 q 182 532 164 555 q 50 568 92 532 q 8 682 8 604 q 66 865 8 779 q 218 997 122 947 q 430 1047 316 1047 q 486 1043 462 1047 q 540 1028 510 1038 l 707 285 l 863 1039 l 998 1039 l 771 0 l 579 0 l 418 689 l 260 0 l 128 0 l 337 951 z "},"O":{"ha":924,"x_min":22,"x_max":911,"o":"m 399 -8 q 220 55 283 -8 q 150 271 150 125 q 161 399 150 328 q 192 540 172 469 q 246 684 214 615 q 318 804 278 752 q 526 922 411 922 q 564 920 547 922 q 599 911 581 918 q 479 758 538 876 q 391 511 425 648 q 355 265 355 374 q 374 150 355 192 q 436 104 395 104 q 505 131 470 104 q 574 205 540 157 q 634 314 606 252 q 682 447 662 376 q 726 734 726 599 q 719 844 726 800 q 692 917 711 888 q 637 963 672 948 q 549 978 603 978 q 397 953 469 978 q 269 882 324 928 q 180 768 212 834 q 149 621 149 701 q 156 568 149 590 q 161 555 158 559 q 163 546 163 550 q 58 573 94 546 q 22 663 22 601 q 102 848 22 758 q 307 987 181 935 q 582 1042 439 1042 q 838 942 755 1042 q 911 686 911 852 q 898 539 911 616 q 859 387 885 462 q 789 235 831 306 q 693 113 747 165 q 399 -8 568 -8 z "},"Ó":{"ha":924,"x_min":22,"x_max":911,"o":"m 677 1389 l 823 1389 l 656 1126 l 551 1126 l 677 1389 m 399 -8 q 220 55 283 -8 q 150 271 150 125 q 161 399 150 328 q 192 540 172 469 q 246 684 214 615 q 318 804 278 752 q 526 922 411 922 q 564 920 547 922 q 599 911 581 918 q 479 758 538 876 q 391 511 425 648 q 355 265 355 374 q 374 150 355 192 q 436 104 395 104 q 505 131 470 104 q 574 205 540 157 q 634 314 606 252 q 682 447 662 376 q 726 734 726 599 q 719 844 726 800 q 692 917 711 888 q 637 963 672 948 q 549 978 603 978 q 397 953 469 978 q 269 882 324 928 q 180 768 212 834 q 149 621 149 701 q 156 568 149 590 q 161 555 158 559 q 163 546 163 550 q 58 573 94 546 q 22 663 22 601 q 102 848 22 758 q 307 987 181 935 q 582 1042 439 1042 q 838 942 755 1042 q 911 686 911 852 q 898 539 911 616 q 859 387 885 462 q 789 235 831 306 q 693 113 747 165 q 399 -8 568 -8 z "},"Ŏ":{"ha":924,"x_min":22,"x_max":928,"o":"m 635 1133 q 478 1181 532 1133 q 424 1324 424 1230 l 548 1324 q 576 1239 548 1269 q 657 1209 605 1209 q 711 1218 685 1209 q 759 1243 738 1227 q 792 1280 779 1259 q 809 1324 806 1301 l 928 1324 q 897 1250 922 1284 q 832 1188 872 1215 q 742 1147 793 1162 q 635 1133 691 1133 m 399 -8 q 220 55 283 -8 q 150 271 150 125 q 161 399 150 328 q 192 540 172 469 q 246 684 214 615 q 318 804 278 752 q 526 922 411 922 q 564 920 547 922 q 599 911 581 918 q 479 758 538 876 q 391 511 425 648 q 355 265 355 374 q 374 150 355 192 q 436 104 395 104 q 505 131 470 104 q 574 205 540 157 q 634 314 606 252 q 682 447 662 376 q 726 734 726 599 q 719 844 726 800 q 692 917 711 888 q 637 963 672 948 q 549 978 603 978 q 397 953 469 978 q 269 882 324 928 q 180 768 212 834 q 149 621 149 701 q 156 568 149 590 q 161 555 158 559 q 163 546 163 550 q 58 573 94 546 q 22 663 22 601 q 102 848 22 758 q 307 987 181 935 q 582 1042 439 1042 q 838 942 755 1042 q 911 686 911 852 q 898 539 911 616 q 859 387 885 462 q 789 235 831 306 q 693 113 747 165 q 399 -8 568 -8 z "},"Ǒ":{"ha":924,"x_min":22,"x_max":972,"o":"m 565 1389 l 609 1389 l 692 1278 l 911 1389 l 972 1389 l 677 1126 l 648 1126 l 565 1389 m 399 -8 q 220 55 283 -8 q 150 271 150 125 q 161 399 150 328 q 192 540 172 469 q 246 684 214 615 q 318 804 278 752 q 526 922 411 922 q 564 920 547 922 q 599 911 581 918 q 479 758 538 876 q 391 511 425 648 q 355 265 355 374 q 374 150 355 192 q 436 104 395 104 q 505 131 470 104 q 574 205 540 157 q 634 314 606 252 q 682 447 662 376 q 726 734 726 599 q 719 844 726 800 q 692 917 711 888 q 637 963 672 948 q 549 978 603 978 q 397 953 469 978 q 269 882 324 928 q 180 768 212 834 q 149 621 149 701 q 156 568 149 590 q 161 555 158 559 q 163 546 163 550 q 58 573 94 546 q 22 663 22 601 q 102 848 22 758 q 307 987 181 935 q 582 1042 439 1042 q 838 942 755 1042 q 911 686 911 852 q 898 539 911 616 q 859 387 885 462 q 789 235 831 306 q 693 113 747 165 q 399 -8 568 -8 z "},"Ô":{"ha":924,"x_min":22,"x_max":911,"o":"m 672 1389 l 701 1389 l 785 1126 l 741 1126 l 657 1238 l 439 1126 l 378 1126 l 672 1389 m 399 -8 q 220 55 283 -8 q 150 271 150 125 q 161 399 150 328 q 192 540 172 469 q 246 684 214 615 q 318 804 278 752 q 526 922 411 922 q 564 920 547 922 q 599 911 581 918 q 479 758 538 876 q 391 511 425 648 q 355 265 355 374 q 374 150 355 192 q 436 104 395 104 q 505 131 470 104 q 574 205 540 157 q 634 314 606 252 q 682 447 662 376 q 726 734 726 599 q 719 844 726 800 q 692 917 711 888 q 637 963 672 948 q 549 978 603 978 q 397 953 469 978 q 269 882 324 928 q 180 768 212 834 q 149 621 149 701 q 156 568 149 590 q 161 555 158 559 q 163 546 163 550 q 58 573 94 546 q 22 663 22 601 q 102 848 22 758 q 307 987 181 935 q 582 1042 439 1042 q 838 942 755 1042 q 911 686 911 852 q 898 539 911 616 q 859 387 885 462 q 789 235 831 306 q 693 113 747 165 q 399 -8 568 -8 z "},"Ố":{"ha":924,"x_min":22,"x_max":964,"o":"m 868 1389 l 964 1389 l 843 1203 l 782 1203 l 868 1389 m 696 1320 l 721 1320 l 791 1126 l 728 1126 l 684 1226 l 530 1126 l 449 1126 l 696 1320 m 399 -8 q 220 55 283 -8 q 150 271 150 125 q 161 399 150 328 q 192 540 172 469 q 246 684 214 615 q 318 804 278 752 q 526 922 411 922 q 564 920 547 922 q 599 911 581 918 q 479 758 538 876 q 391 511 425 648 q 355 265 355 374 q 374 150 355 192 q 436 104 395 104 q 505 131 470 104 q 574 205 540 157 q 634 314 606 252 q 682 447 662 376 q 726 734 726 599 q 719 844 726 800 q 692 917 711 888 q 637 963 672 948 q 549 978 603 978 q 397 953 469 978 q 269 882 324 928 q 180 768 212 834 q 149 621 149 701 q 156 568 149 590 q 161 555 158 559 q 163 546 163 550 q 58 573 94 546 q 22 663 22 601 q 102 848 22 758 q 307 987 181 935 q 582 1042 439 1042 q 838 942 755 1042 q 911 686 911 852 q 898 539 911 616 q 859 387 885 462 q 789 235 831 306 q 693 113 747 165 q 399 -8 568 -8 z "},"Ộ":{"ha":924,"x_min":22,"x_max":911,"o":"m 672 1389 l 701 1389 l 785 1126 l 741 1126 l 657 1238 l 439 1126 l 378 1126 l 672 1389 m 399 -8 q 220 55 283 -8 q 150 271 150 125 q 161 399 150 328 q 192 540 172 469 q 246 684 214 615 q 318 804 278 752 q 526 922 411 922 q 564 920 547 922 q 599 911 581 918 q 479 758 538 876 q 391 511 425 648 q 355 265 355 374 q 374 150 355 192 q 436 104 395 104 q 505 131 470 104 q 574 205 540 157 q 634 314 606 252 q 682 447 662 376 q 726 734 726 599 q 719 844 726 800 q 692 917 711 888 q 637 963 672 948 q 549 978 603 978 q 397 953 469 978 q 269 882 324 928 q 180 768 212 834 q 149 621 149 701 q 156 568 149 590 q 161 555 158 559 q 163 546 163 550 q 58 573 94 546 q 22 663 22 601 q 102 848 22 758 q 307 987 181 935 q 582 1042 439 1042 q 838 942 755 1042 q 911 686 911 852 q 898 539 911 616 q 859 387 885 462 q 789 235 831 306 q 693 113 747 165 q 399 -8 568 -8 m 361 -321 q 319 -312 339 -321 q 283 -289 298 -304 q 260 -254 269 -274 q 252 -211 252 -233 q 260 -168 252 -189 q 283 -132 269 -148 q 319 -108 298 -117 q 361 -100 339 -100 q 404 -108 384 -100 q 440 -132 425 -117 q 464 -168 456 -148 q 473 -211 473 -189 q 464 -254 473 -233 q 440 -289 456 -274 q 404 -312 425 -304 q 361 -321 384 -321 z "},"Ồ":{"ha":924,"x_min":22,"x_max":911,"o":"m 780 1388 l 872 1388 l 899 1202 l 842 1202 l 780 1388 m 696 1320 l 720 1320 l 790 1126 l 728 1126 l 683 1226 l 530 1126 l 448 1126 l 696 1320 m 399 -8 q 220 55 283 -8 q 150 271 150 125 q 161 399 150 328 q 192 540 172 469 q 246 684 214 615 q 318 804 278 752 q 526 922 411 922 q 564 920 547 922 q 599 911 581 918 q 479 758 538 876 q 391 511 425 648 q 355 265 355 374 q 374 150 355 192 q 436 104 395 104 q 505 131 470 104 q 574 205 540 157 q 634 314 606 252 q 682 447 662 376 q 726 734 726 599 q 719 844 726 800 q 692 917 711 888 q 637 963 672 948 q 549 978 603 978 q 397 953 469 978 q 269 882 324 928 q 180 768 212 834 q 149 621 149 701 q 156 568 149 590 q 161 555 158 559 q 163 546 163 550 q 58 573 94 546 q 22 663 22 601 q 102 848 22 758 q 307 987 181 935 q 582 1042 439 1042 q 838 942 755 1042 q 911 686 911 852 q 898 539 911 616 q 859 387 885 462 q 789 235 831 306 q 693 113 747 165 q 399 -8 568 -8 z "},"Ổ":{"ha":924,"x_min":22,"x_max":983,"o":"m 827 1189 l 827 1274 q 870 1268 847 1268 q 916 1305 916 1268 q 870 1340 916 1340 q 812 1324 838 1340 l 787 1364 q 829 1382 803 1375 q 880 1389 854 1389 q 954 1367 926 1389 q 983 1311 983 1345 q 954 1253 983 1276 q 878 1226 925 1230 l 873 1186 l 827 1189 m 696 1320 l 720 1320 l 790 1126 l 728 1126 l 683 1226 l 530 1126 l 448 1126 l 696 1320 m 399 -8 q 220 55 283 -8 q 150 271 150 125 q 161 399 150 328 q 192 540 172 469 q 246 684 214 615 q 318 804 278 752 q 526 922 411 922 q 564 920 547 922 q 599 911 581 918 q 479 758 538 876 q 391 511 425 648 q 355 265 355 374 q 374 150 355 192 q 436 104 395 104 q 505 131 470 104 q 574 205 540 157 q 634 314 606 252 q 682 447 662 376 q 726 734 726 599 q 719 844 726 800 q 692 917 711 888 q 637 963 672 948 q 549 978 603 978 q 397 953 469 978 q 269 882 324 928 q 180 768 212 834 q 149 621 149 701 q 156 568 149 590 q 161 555 158 559 q 163 546 163 550 q 58 573 94 546 q 22 663 22 601 q 102 848 22 758 q 307 987 181 935 q 582 1042 439 1042 q 838 942 755 1042 q 911 686 911 852 q 898 539 911 616 q 859 387 885 462 q 789 235 831 306 q 693 113 747 165 q 399 -8 568 -8 z "},"Ỗ":{"ha":924,"x_min":22,"x_max":911,"o":"m 665 1295 q 620 1310 637 1305 q 583 1315 602 1315 q 519 1290 546 1315 l 513 1292 q 578 1363 536 1339 q 676 1388 620 1388 q 719 1384 700 1388 q 762 1372 739 1380 q 804 1359 788 1363 q 838 1356 819 1356 q 899 1378 879 1356 l 905 1377 q 887 1342 902 1360 q 850 1310 872 1324 q 797 1287 826 1295 q 736 1278 767 1278 l 791 1126 l 728 1126 l 684 1226 l 530 1126 l 449 1126 l 665 1295 m 399 -8 q 220 55 283 -8 q 150 271 150 125 q 161 399 150 328 q 192 540 172 469 q 246 684 214 615 q 318 804 278 752 q 526 922 411 922 q 564 920 547 922 q 599 911 581 918 q 479 758 538 876 q 391 511 425 648 q 355 265 355 374 q 374 150 355 192 q 436 104 395 104 q 505 131 470 104 q 574 205 540 157 q 634 314 606 252 q 682 447 662 376 q 726 734 726 599 q 719 844 726 800 q 692 917 711 888 q 637 963 672 948 q 549 978 603 978 q 397 953 469 978 q 269 882 324 928 q 180 768 212 834 q 149 621 149 701 q 156 568 149 590 q 161 555 158 559 q 163 546 163 550 q 58 573 94 546 q 22 663 22 601 q 102 848 22 758 q 307 987 181 935 q 582 1042 439 1042 q 838 942 755 1042 q 911 686 911 852 q 898 539 911 616 q 859 387 885 462 q 789 235 831 306 q 693 113 747 165 q 399 -8 568 -8 z "},"Ȍ":{"ha":924,"x_min":22,"x_max":911,"o":"m 262 1389 l 408 1389 l 535 1126 l 458 1126 l 262 1389 m 488 1389 l 633 1389 l 760 1126 l 684 1126 l 488 1389 m 399 -8 q 220 55 283 -8 q 150 271 150 125 q 161 399 150 328 q 192 540 172 469 q 246 684 214 615 q 318 804 278 752 q 526 922 411 922 q 564 920 547 922 q 599 911 581 918 q 479 758 538 876 q 391 511 425 648 q 355 265 355 374 q 374 150 355 192 q 436 104 395 104 q 505 131 470 104 q 574 205 540 157 q 634 314 606 252 q 682 447 662 376 q 726 734 726 599 q 719 844 726 800 q 692 917 711 888 q 637 963 672 948 q 549 978 603 978 q 397 953 469 978 q 269 882 324 928 q 180 768 212 834 q 149 621 149 701 q 156 568 149 590 q 161 555 158 559 q 163 546 163 550 q 58 573 94 546 q 22 663 22 601 q 102 848 22 758 q 307 987 181 935 q 582 1042 439 1042 q 838 942 755 1042 q 911 686 911 852 q 898 539 911 616 q 859 387 885 462 q 789 235 831 306 q 693 113 747 165 q 399 -8 568 -8 z "},"Ö":{"ha":924,"x_min":22,"x_max":911,"o":"m 485 1143 q 425 1168 449 1143 q 400 1227 400 1192 q 407 1259 400 1244 q 425 1287 413 1275 q 485 1312 448 1312 q 545 1287 518 1312 q 563 1260 556 1276 q 570 1227 570 1244 q 545 1168 570 1192 q 485 1143 518 1143 m 734 1143 q 674 1168 700 1143 q 650 1227 650 1191 q 656 1260 650 1244 q 674 1287 663 1276 q 734 1312 699 1312 q 767 1305 751 1312 q 794 1287 783 1299 q 812 1260 806 1276 q 819 1227 819 1244 q 794 1168 819 1192 q 766 1150 782 1156 q 734 1143 751 1143 m 399 -8 q 220 55 283 -8 q 150 271 150 125 q 161 399 150 328 q 192 540 172 469 q 246 684 214 615 q 318 804 278 752 q 526 922 411 922 q 564 920 547 922 q 599 911 581 918 q 479 758 538 876 q 391 511 425 648 q 355 265 355 374 q 374 150 355 192 q 436 104 395 104 q 505 131 470 104 q 574 205 540 157 q 634 314 606 252 q 682 447 662 376 q 726 734 726 599 q 719 844 726 800 q 692 917 711 888 q 637 963 672 948 q 549 978 603 978 q 397 953 469 978 q 269 882 324 928 q 180 768 212 834 q 149 621 149 701 q 156 568 149 590 q 161 555 158 559 q 163 546 163 550 q 58 573 94 546 q 22 663 22 601 q 102 848 22 758 q 307 987 181 935 q 582 1042 439 1042 q 838 942 755 1042 q 911 686 911 852 q 898 539 911 616 q 859 387 885 462 q 789 235 831 306 q 693 113 747 165 q 399 -8 568 -8 z "},"Ọ":{"ha":924,"x_min":22,"x_max":911,"o":"m 399 -8 q 220 55 283 -8 q 150 271 150 125 q 161 399 150 328 q 192 540 172 469 q 246 684 214 615 q 318 804 278 752 q 526 922 411 922 q 564 920 547 922 q 599 911 581 918 q 479 758 538 876 q 391 511 425 648 q 355 265 355 374 q 374 150 355 192 q 436 104 395 104 q 505 131 470 104 q 574 205 540 157 q 634 314 606 252 q 682 447 662 376 q 726 734 726 599 q 719 844 726 800 q 692 917 711 888 q 637 963 672 948 q 549 978 603 978 q 397 953 469 978 q 269 882 324 928 q 180 768 212 834 q 149 621 149 701 q 156 568 149 590 q 161 555 158 559 q 163 546 163 550 q 58 573 94 546 q 22 663 22 601 q 102 848 22 758 q 307 987 181 935 q 582 1042 439 1042 q 838 942 755 1042 q 911 686 911 852 q 898 539 911 616 q 859 387 885 462 q 789 235 831 306 q 693 113 747 165 q 399 -8 568 -8 m 361 -321 q 319 -312 339 -321 q 283 -289 298 -304 q 260 -254 269 -274 q 252 -211 252 -233 q 260 -168 252 -189 q 283 -132 269 -148 q 319 -108 298 -117 q 361 -100 339 -100 q 404 -108 384 -100 q 440 -132 425 -117 q 464 -168 456 -148 q 473 -211 473 -189 q 464 -254 473 -233 q 440 -289 456 -274 q 404 -312 425 -304 q 361 -321 384 -321 z "},"Ò":{"ha":924,"x_min":22,"x_max":911,"o":"m 419 1389 l 565 1389 l 605 1126 l 501 1126 l 419 1389 m 399 -8 q 220 55 283 -8 q 150 271 150 125 q 161 399 150 328 q 192 540 172 469 q 246 684 214 615 q 318 804 278 752 q 526 922 411 922 q 564 920 547 922 q 599 911 581 918 q 479 758 538 876 q 391 511 425 648 q 355 265 355 374 q 374 150 355 192 q 436 104 395 104 q 505 131 470 104 q 574 205 540 157 q 634 314 606 252 q 682 447 662 376 q 726 734 726 599 q 719 844 726 800 q 692 917 711 888 q 637 963 672 948 q 549 978 603 978 q 397 953 469 978 q 269 882 324 928 q 180 768 212 834 q 149 621 149 701 q 156 568 149 590 q 161 555 158 559 q 163 546 163 550 q 58 573 94 546 q 22 663 22 601 q 102 848 22 758 q 307 987 181 935 q 582 1042 439 1042 q 838 942 755 1042 q 911 686 911 852 q 898 539 911 616 q 859 387 885 462 q 789 235 831 306 q 693 113 747 165 q 399 -8 568 -8 z "},"Ỏ":{"ha":924,"x_min":22,"x_max":911,"o":"m 592 1103 l 592 1225 q 654 1219 619 1219 q 702 1232 686 1219 q 719 1268 719 1245 q 654 1318 719 1318 q 571 1296 605 1318 l 534 1354 q 596 1379 559 1369 q 670 1388 633 1388 q 727 1380 701 1388 q 774 1358 754 1372 q 804 1322 793 1343 q 814 1277 814 1301 q 803 1232 814 1253 q 773 1195 793 1211 q 667 1156 732 1161 l 657 1100 l 592 1103 m 399 -8 q 220 55 283 -8 q 150 271 150 125 q 161 399 150 328 q 192 540 172 469 q 246 684 214 615 q 318 804 278 752 q 526 922 411 922 q 564 920 547 922 q 599 911 581 918 q 479 758 538 876 q 391 511 425 648 q 355 265 355 374 q 374 150 355 192 q 436 104 395 104 q 505 131 470 104 q 574 205 540 157 q 634 314 606 252 q 682 447 662 376 q 726 734 726 599 q 719 844 726 800 q 692 917 711 888 q 637 963 672 948 q 549 978 603 978 q 397 953 469 978 q 269 882 324 928 q 180 768 212 834 q 149 621 149 701 q 156 568 149 590 q 161 555 158 559 q 163 546 163 550 q 58 573 94 546 q 22 663 22 601 q 102 848 22 758 q 307 987 181 935 q 582 1042 439 1042 q 838 942 755 1042 q 911 686 911 852 q 898 539 911 616 q 859 387 885 462 q 789 235 831 306 q 693 113 747 165 q 399 -8 568 -8 z "},"Ơ":{"ha":924,"x_min":22,"x_max":1006,"o":"m 399 -8 q 220 55 283 -8 q 150 271 150 125 q 161 399 150 328 q 192 540 172 469 q 246 684 214 615 q 318 804 278 752 q 526 922 411 922 q 564 920 547 922 q 599 911 581 918 q 479 758 538 876 q 391 511 425 648 q 355 265 355 374 q 374 150 355 192 q 436 104 395 104 q 505 131 470 104 q 574 205 540 157 q 634 314 606 252 q 682 447 662 376 q 726 734 726 599 q 719 844 726 800 q 692 917 711 888 q 637 963 672 948 q 549 978 603 978 q 397 953 469 978 q 269 882 324 928 q 180 768 212 834 q 149 621 149 701 q 156 568 149 590 q 161 555 158 559 q 163 546 163 550 q 58 573 94 546 q 22 663 22 601 q 102 848 22 758 q 307 987 181 935 q 582 1042 439 1042 q 806 973 724 1042 q 863 1039 846 998 q 877 1125 877 1074 q 869 1199 877 1164 q 909 1220 888 1212 q 950 1228 930 1228 q 1006 1162 1006 1228 q 964 1023 1006 1095 q 917 959 943 988 q 859 910 890 930 q 911 686 911 825 q 898 539 911 616 q 859 387 885 462 q 789 235 831 306 q 693 113 747 165 q 399 -8 568 -8 z "},"Ớ":{"ha":924,"x_min":22,"x_max":1006,"o":"m 677 1389 l 823 1389 l 656 1126 l 551 1126 l 677 1389 m 399 -8 q 220 55 283 -8 q 150 271 150 125 q 161 399 150 328 q 192 540 172 469 q 246 684 214 615 q 318 804 278 752 q 526 922 411 922 q 564 920 547 922 q 599 911 581 918 q 479 758 538 876 q 391 511 425 648 q 355 265 355 374 q 374 150 355 192 q 436 104 395 104 q 505 131 470 104 q 574 205 540 157 q 634 314 606 252 q 682 447 662 376 q 726 734 726 599 q 719 844 726 800 q 692 917 711 888 q 637 963 672 948 q 549 978 603 978 q 397 953 469 978 q 269 882 324 928 q 180 768 212 834 q 149 621 149 701 q 156 568 149 590 q 161 555 158 559 q 163 546 163 550 q 58 573 94 546 q 22 663 22 601 q 102 848 22 758 q 307 987 181 935 q 582 1042 439 1042 q 806 973 724 1042 q 863 1039 846 998 q 877 1125 877 1074 q 869 1199 877 1164 q 909 1220 888 1212 q 950 1228 930 1228 q 1006 1162 1006 1228 q 964 1023 1006 1095 q 917 959 943 988 q 859 910 890 930 q 911 686 911 825 q 898 539 911 616 q 859 387 885 462 q 789 235 831 306 q 693 113 747 165 q 399 -8 568 -8 z "},"Ợ":{"ha":924,"x_min":22,"x_max":1006,"o":"m 399 -8 q 220 55 283 -8 q 150 271 150 125 q 161 399 150 328 q 192 540 172 469 q 246 684 214 615 q 318 804 278 752 q 526 922 411 922 q 564 920 547 922 q 599 911 581 918 q 479 758 538 876 q 391 511 425 648 q 355 265 355 374 q 374 150 355 192 q 436 104 395 104 q 505 131 470 104 q 574 205 540 157 q 634 314 606 252 q 682 447 662 376 q 726 734 726 599 q 719 844 726 800 q 692 917 711 888 q 637 963 672 948 q 549 978 603 978 q 397 953 469 978 q 269 882 324 928 q 180 768 212 834 q 149 621 149 701 q 156 568 149 590 q 161 555 158 559 q 163 546 163 550 q 58 573 94 546 q 22 663 22 601 q 102 848 22 758 q 307 987 181 935 q 582 1042 439 1042 q 806 973 724 1042 q 863 1039 846 998 q 877 1125 877 1074 q 869 1199 877 1164 q 909 1220 888 1212 q 950 1228 930 1228 q 1006 1162 1006 1228 q 964 1023 1006 1095 q 917 959 943 988 q 859 910 890 930 q 911 686 911 825 q 898 539 911 616 q 859 387 885 462 q 789 235 831 306 q 693 113 747 165 q 399 -8 568 -8 m 361 -321 q 319 -312 339 -321 q 283 -289 298 -304 q 260 -254 269 -274 q 252 -211 252 -233 q 260 -168 252 -189 q 283 -132 269 -148 q 319 -108 298 -117 q 361 -100 339 -100 q 404 -108 384 -100 q 440 -132 425 -117 q 464 -168 456 -148 q 473 -211 473 -189 q 464 -254 473 -233 q 440 -289 456 -274 q 404 -312 425 -304 q 361 -321 384 -321 z "},"Ờ":{"ha":924,"x_min":22,"x_max":1006,"o":"m 419 1389 l 565 1389 l 605 1126 l 501 1126 l 419 1389 m 399 -8 q 220 55 283 -8 q 150 271 150 125 q 161 399 150 328 q 192 540 172 469 q 246 684 214 615 q 318 804 278 752 q 526 922 411 922 q 564 920 547 922 q 599 911 581 918 q 479 758 538 876 q 391 511 425 648 q 355 265 355 374 q 374 150 355 192 q 436 104 395 104 q 505 131 470 104 q 574 205 540 157 q 634 314 606 252 q 682 447 662 376 q 726 734 726 599 q 719 844 726 800 q 692 917 711 888 q 637 963 672 948 q 549 978 603 978 q 397 953 469 978 q 269 882 324 928 q 180 768 212 834 q 149 621 149 701 q 156 568 149 590 q 161 555 158 559 q 163 546 163 550 q 58 573 94 546 q 22 663 22 601 q 102 848 22 758 q 307 987 181 935 q 582 1042 439 1042 q 806 973 724 1042 q 863 1039 846 998 q 877 1125 877 1074 q 869 1199 877 1164 q 909 1220 888 1212 q 950 1228 930 1228 q 1006 1162 1006 1228 q 964 1023 1006 1095 q 917 959 943 988 q 859 910 890 930 q 911 686 911 825 q 898 539 911 616 q 859 387 885 462 q 789 235 831 306 q 693 113 747 165 q 399 -8 568 -8 z "},"Ở":{"ha":924,"x_min":22,"x_max":1006,"o":"m 592 1103 l 592 1225 q 654 1219 619 1219 q 702 1232 686 1219 q 719 1268 719 1245 q 654 1318 719 1318 q 571 1296 605 1318 l 534 1354 q 596 1379 559 1369 q 670 1388 633 1388 q 727 1380 701 1388 q 774 1358 754 1372 q 804 1322 793 1343 q 814 1277 814 1301 q 803 1232 814 1253 q 773 1195 793 1211 q 667 1156 732 1161 l 657 1100 l 592 1103 m 399 -8 q 220 55 283 -8 q 150 271 150 125 q 161 399 150 328 q 192 540 172 469 q 246 684 214 615 q 318 804 278 752 q 526 922 411 922 q 564 920 547 922 q 599 911 581 918 q 479 758 538 876 q 391 511 425 648 q 355 265 355 374 q 374 150 355 192 q 436 104 395 104 q 505 131 470 104 q 574 205 540 157 q 634 314 606 252 q 682 447 662 376 q 726 734 726 599 q 719 844 726 800 q 692 917 711 888 q 637 963 672 948 q 549 978 603 978 q 397 953 469 978 q 269 882 324 928 q 180 768 212 834 q 149 621 149 701 q 156 568 149 590 q 161 555 158 559 q 163 546 163 550 q 58 573 94 546 q 22 663 22 601 q 102 848 22 758 q 307 987 181 935 q 582 1042 439 1042 q 806 973 724 1042 q 863 1039 846 998 q 877 1125 877 1074 q 869 1199 877 1164 q 909 1220 888 1212 q 950 1228 930 1228 q 1006 1162 1006 1228 q 964 1023 1006 1095 q 917 959 943 988 q 859 910 890 930 q 911 686 911 825 q 898 539 911 616 q 859 387 885 462 q 789 235 831 306 q 693 113 747 165 q 399 -8 568 -8 z "},"Ỡ":{"ha":924,"x_min":22,"x_max":1006,"o":"m 626 1137 q 573 1144 598 1137 q 517 1163 549 1151 q 463 1183 484 1177 q 420 1189 442 1189 q 338 1153 374 1189 l 332 1156 q 414 1257 361 1223 q 536 1292 467 1292 q 591 1286 566 1292 q 644 1269 615 1280 q 696 1251 675 1257 q 739 1246 716 1246 q 782 1254 762 1246 q 817 1278 802 1262 l 823 1276 q 801 1228 819 1253 q 755 1183 783 1203 q 694 1149 728 1162 q 626 1137 660 1137 m 399 -8 q 220 55 283 -8 q 150 271 150 125 q 161 399 150 328 q 192 540 172 469 q 246 684 214 615 q 318 804 278 752 q 526 922 411 922 q 564 920 547 922 q 599 911 581 918 q 479 758 538 876 q 391 511 425 648 q 355 265 355 374 q 374 150 355 192 q 436 104 395 104 q 505 131 470 104 q 574 205 540 157 q 634 314 606 252 q 682 447 662 376 q 726 734 726 599 q 719 844 726 800 q 692 917 711 888 q 637 963 672 948 q 549 978 603 978 q 397 953 469 978 q 269 882 324 928 q 180 768 212 834 q 149 621 149 701 q 156 568 149 590 q 161 555 158 559 q 163 546 163 550 q 58 573 94 546 q 22 663 22 601 q 102 848 22 758 q 307 987 181 935 q 582 1042 439 1042 q 806 973 724 1042 q 863 1039 846 998 q 877 1125 877 1074 q 869 1199 877 1164 q 909 1220 888 1212 q 950 1228 930 1228 q 1006 1162 1006 1228 q 964 1023 1006 1095 q 917 959 943 988 q 859 910 890 930 q 911 686 911 825 q 898 539 911 616 q 859 387 885 462 q 789 235 831 306 q 693 113 747 165 q 399 -8 568 -8 z "},"Ő":{"ha":924,"x_min":22,"x_max":1013,"o":"m 642 1388 l 788 1388 l 592 1125 l 515 1125 l 642 1388 m 867 1388 l 1013 1388 l 817 1125 l 741 1125 l 867 1388 m 399 -8 q 220 55 283 -8 q 150 271 150 125 q 161 399 150 328 q 192 540 172 469 q 246 684 214 615 q 318 804 278 752 q 526 922 411 922 q 564 920 547 922 q 599 911 581 918 q 479 758 538 876 q 391 511 425 648 q 355 265 355 374 q 374 150 355 192 q 436 104 395 104 q 505 131 470 104 q 574 205 540 157 q 634 314 606 252 q 682 447 662 376 q 726 734 726 599 q 719 844 726 800 q 692 917 711 888 q 637 963 672 948 q 549 978 603 978 q 397 953 469 978 q 269 882 324 928 q 180 768 212 834 q 149 621 149 701 q 156 568 149 590 q 161 555 158 559 q 163 546 163 550 q 58 573 94 546 q 22 663 22 601 q 102 848 22 758 q 307 987 181 935 q 582 1042 439 1042 q 838 942 755 1042 q 911 686 911 852 q 898 539 911 616 q 859 387 885 462 q 789 235 831 306 q 693 113 747 165 q 399 -8 568 -8 z "},"Ȏ":{"ha":924,"x_min":22,"x_max":911,"o":"m 402 1141 q 433 1216 408 1181 q 498 1278 458 1251 q 589 1319 538 1305 q 695 1333 640 1333 q 853 1284 799 1333 q 907 1141 907 1236 l 783 1141 q 754 1227 783 1197 q 673 1257 726 1257 q 620 1248 646 1257 q 572 1223 593 1239 q 538 1186 551 1207 q 522 1141 525 1165 l 402 1141 m 399 -8 q 220 55 283 -8 q 150 271 150 125 q 161 399 150 328 q 192 540 172 469 q 246 684 214 615 q 318 804 278 752 q 526 922 411 922 q 564 920 547 922 q 599 911 581 918 q 479 758 538 876 q 391 511 425 648 q 355 265 355 374 q 374 150 355 192 q 436 104 395 104 q 505 131 470 104 q 574 205 540 157 q 634 314 606 252 q 682 447 662 376 q 726 734 726 599 q 719 844 726 800 q 692 917 711 888 q 637 963 672 948 q 549 978 603 978 q 397 953 469 978 q 269 882 324 928 q 180 768 212 834 q 149 621 149 701 q 156 568 149 590 q 161 555 158 559 q 163 546 163 550 q 58 573 94 546 q 22 663 22 601 q 102 848 22 758 q 307 987 181 935 q 582 1042 439 1042 q 838 942 755 1042 q 911 686 911 852 q 898 539 911 616 q 859 387 885 462 q 789 235 831 306 q 693 113 747 165 q 399 -8 568 -8 z "},"Ō":{"ha":924,"x_min":22,"x_max":911,"o":"m 397 1282 l 841 1282 l 821 1179 l 374 1179 l 397 1282 m 399 -8 q 220 55 283 -8 q 150 271 150 125 q 161 399 150 328 q 192 540 172 469 q 246 684 214 615 q 318 804 278 752 q 526 922 411 922 q 564 920 547 922 q 599 911 581 918 q 479 758 538 876 q 391 511 425 648 q 355 265 355 374 q 374 150 355 192 q 436 104 395 104 q 505 131 470 104 q 574 205 540 157 q 634 314 606 252 q 682 447 662 376 q 726 734 726 599 q 719 844 726 800 q 692 917 711 888 q 637 963 672 948 q 549 978 603 978 q 397 953 469 978 q 269 882 324 928 q 180 768 212 834 q 149 621 149 701 q 156 568 149 590 q 161 555 158 559 q 163 546 163 550 q 58 573 94 546 q 22 663 22 601 q 102 848 22 758 q 307 987 181 935 q 582 1042 439 1042 q 838 942 755 1042 q 911 686 911 852 q 898 539 911 616 q 859 387 885 462 q 789 235 831 306 q 693 113 747 165 q 399 -8 568 -8 z "},"Ǫ":{"ha":924,"x_min":22,"x_max":911,"o":"m 406 1389 l 551 1389 l 591 1126 l 488 1126 l 406 1389 m 376 -297 q 277 -260 316 -297 q 248 -219 258 -243 q 238 -168 238 -195 q 336 -3 238 -75 q 201 77 248 13 q 150 271 150 146 q 161 399 150 328 q 192 540 172 469 q 246 684 214 615 q 318 804 278 752 q 526 922 411 922 q 564 920 547 922 q 599 911 581 918 q 479 758 538 876 q 391 511 425 648 q 355 265 355 374 q 374 150 355 192 q 436 104 395 104 q 505 131 470 104 q 574 205 540 157 q 634 314 606 252 q 682 447 662 376 q 726 734 726 599 q 719 844 726 800 q 692 917 711 888 q 637 963 672 948 q 549 978 603 978 q 397 953 469 978 q 269 882 324 928 q 180 768 212 834 q 149 621 149 701 q 156 568 149 590 q 161 555 158 559 q 163 546 163 550 q 58 573 94 546 q 22 663 22 601 q 102 848 22 758 q 307 987 181 935 q 582 1042 439 1042 q 838 942 755 1042 q 911 686 911 852 q 898 540 911 617 q 859 388 885 463 q 790 237 831 307 q 694 114 749 166 q 562 24 635 56 q 402 -8 489 -7 q 366 -59 379 -29 q 353 -122 353 -88 q 374 -184 353 -161 q 430 -207 395 -207 q 481 -193 456 -207 q 530 -153 507 -179 l 553 -184 q 480 -264 533 -231 q 429 -289 456 -280 q 376 -297 402 -297 z "},"Ø":{"ha":914,"x_min":21,"x_max":878,"o":"m 387 -8 l 385 -8 q 212 52 272 -8 q 144 254 144 119 q 155 374 144 308 q 185 506 165 440 q 307 753 231 659 q 507 864 395 864 q 570 854 545 864 l 582 911 q 529 916 560 916 q 382 892 452 916 q 259 825 312 869 q 174 718 204 781 q 143 581 143 656 q 150 531 143 550 l 155 519 q 157 511 157 515 q 56 537 90 511 q 21 619 21 562 q 41 709 21 665 q 98 793 61 753 q 185 866 134 833 q 296 924 235 899 q 561 975 422 975 l 578 975 q 595 974 583 975 l 610 1042 l 682 1042 l 665 964 q 830 850 777 937 q 878 642 878 772 q 867 516 878 582 q 835 385 856 450 q 700 138 786 235 q 461 -1 598 22 l 440 -98 l 368 -98 l 387 -8 m 488 122 q 592 256 541 161 q 669 462 640 346 q 700 688 700 582 q 689 808 700 763 q 647 880 677 853 l 488 122 m 568 847 q 458 701 510 808 q 376 473 408 600 q 343 249 343 345 q 410 97 343 111 l 568 847 z "},"Ǿ":{"ha":914,"x_min":21,"x_max":880,"o":"m 734 1389 l 880 1389 l 711 1126 l 607 1126 l 734 1389 m 387 -8 l 385 -8 q 212 52 272 -8 q 144 254 144 119 q 155 374 144 308 q 185 506 165 440 q 307 753 231 659 q 507 864 395 864 q 570 854 545 864 l 582 911 q 529 916 560 916 q 382 892 452 916 q 259 825 312 869 q 174 718 204 781 q 143 581 143 656 q 150 531 143 550 l 155 519 q 157 511 157 515 q 56 537 90 511 q 21 619 21 562 q 41 709 21 665 q 98 793 61 753 q 185 866 134 833 q 296 924 235 899 q 561 975 422 975 l 578 975 q 595 974 583 975 l 610 1042 l 682 1042 l 665 964 q 830 850 777 937 q 878 642 878 772 q 867 516 878 582 q 835 385 856 450 q 700 138 786 235 q 461 -1 598 22 l 440 -98 l 368 -98 l 387 -8 m 488 122 q 592 256 541 161 q 669 462 640 346 q 700 688 700 582 q 689 808 700 763 q 647 880 677 853 l 488 122 m 568 847 q 458 701 510 808 q 376 473 408 600 q 343 249 343 345 q 410 97 343 111 l 568 847 z "},"Õ":{"ha":924,"x_min":22,"x_max":937,"o":"m 714 1137 q 655 1144 683 1137 q 591 1163 628 1150 q 529 1183 552 1177 q 481 1189 507 1189 q 389 1153 429 1189 l 380 1156 q 474 1257 414 1223 q 612 1292 533 1292 q 673 1286 646 1292 q 734 1269 701 1280 q 793 1251 771 1257 q 842 1246 814 1246 q 891 1254 868 1246 q 929 1278 913 1262 l 937 1276 q 911 1227 932 1252 q 860 1183 890 1202 q 790 1149 829 1162 q 714 1137 752 1137 m 399 -8 q 220 55 283 -8 q 150 271 150 125 q 161 399 150 328 q 192 540 172 469 q 246 684 214 615 q 318 804 278 752 q 526 922 411 922 q 564 920 547 922 q 599 911 581 918 q 479 758 538 876 q 391 511 425 648 q 355 265 355 374 q 374 150 355 192 q 436 104 395 104 q 505 131 470 104 q 574 205 540 157 q 634 314 606 252 q 682 447 662 376 q 726 734 726 599 q 719 844 726 800 q 692 917 711 888 q 637 963 672 948 q 549 978 603 978 q 397 953 469 978 q 269 882 324 928 q 180 768 212 834 q 149 621 149 701 q 156 568 149 590 q 161 555 158 559 q 163 546 163 550 q 58 573 94 546 q 22 663 22 601 q 102 848 22 758 q 307 987 181 935 q 582 1042 439 1042 q 838 942 755 1042 q 911 686 911 852 q 898 539 911 616 q 859 387 885 462 q 789 235 831 306 q 693 113 747 165 q 399 -8 568 -8 z "},"Œ":{"ha":1175,"x_min":22,"x_max":1270,"o":"m 399 -8 q 220 55 283 -8 q 150 271 150 125 q 161 399 150 328 q 192 540 172 469 q 246 684 214 615 q 318 804 278 752 q 526 922 411 922 q 564 920 547 922 q 599 911 581 918 q 479 758 538 876 q 391 511 425 648 q 355 265 355 374 q 374 150 355 192 q 436 104 395 104 q 505 131 470 104 q 574 205 540 157 q 634 314 606 252 q 682 447 662 376 q 726 734 726 599 q 719 844 726 800 q 692 917 711 888 q 637 963 672 948 q 549 978 603 978 q 397 953 469 978 q 269 882 324 928 q 180 768 212 834 q 149 621 149 701 q 156 568 149 590 q 161 555 158 559 q 163 546 163 550 q 58 573 94 546 q 22 663 22 601 q 102 848 22 758 q 307 987 181 935 q 582 1042 439 1042 q 734 1015 670 1042 q 813 1035 771 1029 q 914 1042 856 1042 q 962 1039 938 1042 l 997 1036 q 1079 1027 1060 1029 q 1145 1025 1107 1025 q 1270 1042 1219 1025 q 1257 995 1263 1024 q 1200 903 1242 938 q 1137 875 1177 883 q 1064 881 1100 875 q 987 897 1028 886 q 918 913 944 907 q 850 925 883 922 q 911 686 911 838 q 904 582 911 633 l 1089 582 l 1061 479 l 885 479 q 823 299 863 385 q 725 147 783 213 l 1064 147 l 1035 0 l 497 0 l 498 3 q 399 -8 452 -8 z "},"P":{"ha":796,"x_min":8,"x_max":823,"o":"m 319 884 l 525 911 l 427 447 q 552 508 492 452 q 638 637 606 559 q 669 789 669 711 q 629 922 669 870 q 574 963 608 949 q 497 978 541 978 q 346 955 413 978 q 233 888 279 932 q 162 782 186 845 q 138 640 138 719 q 147 571 138 597 q 154 555 150 562 q 157 546 157 551 q 47 576 81 546 q 8 681 8 608 q 28 771 8 726 q 83 857 47 815 q 164 930 117 896 q 267 989 212 964 q 496 1042 382 1042 q 745 958 656 1042 q 804 872 785 921 q 823 768 823 823 q 796 635 823 701 q 717 516 768 568 q 588 428 663 460 q 422 396 513 396 l 415 396 l 330 0 l 131 0 l 319 884 z "},"Þ":{"ha":810,"x_min":8,"x_max":823,"o":"m 297 781 q 178 666 218 740 q 138 488 138 592 q 147 418 138 445 q 154 403 149 410 q 157 393 157 398 q 47 423 81 393 q 8 528 8 456 q 32 627 8 577 q 98 721 56 676 q 195 799 140 764 q 313 856 250 834 l 347 1014 l 553 1042 l 519 889 q 654 862 596 885 q 751 800 712 839 q 805 716 787 764 q 823 615 823 669 q 796 482 823 548 q 717 363 768 416 q 588 275 663 307 q 422 243 513 243 l 382 243 l 330 0 l 131 0 l 297 781 m 412 294 q 545 350 482 294 q 635 480 602 401 q 669 636 669 559 q 631 766 669 716 q 507 825 589 821 l 393 294 l 412 294 z "},"Q":{"ha":924,"x_min":22,"x_max":911,"o":"m 707 -157 q 632 -143 663 -157 q 581 -103 602 -129 q 553 -56 564 -82 q 528 11 541 -29 q 399 -8 468 -8 q 220 55 283 -8 q 150 271 150 125 q 161 399 150 328 q 192 540 172 469 q 246 684 214 615 q 318 804 278 752 q 526 922 411 922 q 564 920 547 922 q 599 911 581 918 q 479 758 538 876 q 391 511 425 648 q 355 265 355 374 l 355 234 q 358 205 355 221 q 444 218 413 218 q 505 209 479 218 q 555 180 532 199 q 621 289 590 225 q 676 427 652 353 q 713 582 700 503 q 726 734 726 661 q 719 844 726 800 q 692 917 711 888 q 637 963 672 948 q 549 978 603 978 q 397 953 469 978 q 269 882 324 928 q 180 768 212 834 q 149 621 149 701 q 156 568 149 590 q 161 555 158 559 q 163 546 163 550 q 58 573 94 546 q 22 663 22 601 q 102 848 22 758 q 307 987 181 935 q 582 1042 439 1042 q 838 942 755 1042 q 911 686 911 852 q 884 471 911 583 q 797 250 853 348 q 646 72 733 137 q 715 -6 680 20 q 819 -40 760 -40 q 850 -37 836 -40 q 787 -133 823 -106 q 707 -157 755 -157 m 436 104 q 489 119 466 104 q 456 155 475 142 q 410 167 438 167 q 370 161 385 167 q 436 104 388 104 z "},"R":{"ha":835,"x_min":8,"x_max":811,"o":"m 606 -24 q 518 7 545 -24 q 497 69 497 30 q 507 141 497 100 q 534 248 516 182 q 562 356 553 313 q 571 435 571 399 q 553 503 571 479 q 488 529 532 529 q 441 524 463 529 l 330 0 l 131 0 l 319 884 l 525 911 l 457 590 l 468 590 q 546 612 509 590 q 610 671 583 634 q 651 749 636 707 q 665 832 665 792 q 656 888 665 862 q 629 935 647 915 q 513 978 589 978 q 359 955 428 978 q 241 888 290 932 q 164 781 191 844 q 138 640 138 718 q 147 571 138 597 q 154 555 150 562 q 157 546 157 551 q 47 576 81 546 q 8 681 8 608 q 28 771 8 726 q 83 857 47 815 q 164 930 117 896 q 267 989 212 964 q 496 1042 382 1042 q 634 1024 574 1042 q 735 973 694 1006 q 792 903 773 943 q 811 819 811 863 q 772 690 811 753 q 661 582 729 621 q 736 530 715 566 q 757 443 757 495 q 748 360 757 404 q 723 257 739 317 q 697 156 705 191 q 689 92 689 121 q 704 34 689 59 q 743 0 718 9 q 606 -24 660 -24 z "},"Ŕ":{"ha":835,"x_min":8,"x_max":811,"o":"m 639 1389 l 785 1389 l 616 1126 l 512 1126 l 639 1389 m 606 -24 q 518 7 545 -24 q 497 69 497 30 q 507 141 497 100 q 534 248 516 182 q 562 356 553 313 q 571 435 571 399 q 553 503 571 479 q 488 529 532 529 q 441 524 463 529 l 330 0 l 131 0 l 319 884 l 525 911 l 457 590 l 468 590 q 546 612 509 590 q 610 671 583 634 q 651 749 636 707 q 665 832 665 792 q 656 888 665 862 q 629 935 647 915 q 513 978 589 978 q 359 955 428 978 q 241 888 290 932 q 164 781 191 844 q 138 640 138 718 q 147 571 138 597 q 154 555 150 562 q 157 546 157 551 q 47 576 81 546 q 8 681 8 608 q 28 771 8 726 q 83 857 47 815 q 164 930 117 896 q 267 989 212 964 q 496 1042 382 1042 q 634 1024 574 1042 q 735 973 694 1006 q 792 903 773 943 q 811 819 811 863 q 772 690 811 753 q 661 582 729 621 q 736 530 715 566 q 757 443 757 495 q 748 360 757 404 q 723 257 739 317 q 697 156 705 191 q 689 92 689 121 q 704 34 689 59 q 743 0 718 9 q 606 -24 660 -24 z "},"Ř":{"ha":835,"x_min":8,"x_max":884,"o":"m 477 1389 l 521 1389 l 604 1278 l 823 1389 l 884 1389 l 589 1126 l 560 1126 l 477 1389 m 606 -24 q 518 7 545 -24 q 497 69 497 30 q 507 141 497 100 q 534 248 516 182 q 562 356 553 313 q 571 435 571 399 q 553 503 571 479 q 488 529 532 529 q 441 524 463 529 l 330 0 l 131 0 l 319 884 l 525 911 l 457 590 l 468 590 q 546 612 509 590 q 610 671 583 634 q 651 749 636 707 q 665 832 665 792 q 656 888 665 862 q 629 935 647 915 q 513 978 589 978 q 359 955 428 978 q 241 888 290 932 q 164 781 191 844 q 138 640 138 718 q 147 571 138 597 q 154 555 150 562 q 157 546 157 551 q 47 576 81 546 q 8 681 8 608 q 28 771 8 726 q 83 857 47 815 q 164 930 117 896 q 267 989 212 964 q 496 1042 382 1042 q 634 1024 574 1042 q 735 973 694 1006 q 792 903 773 943 q 811 819 811 863 q 772 690 811 753 q 661 582 729 621 q 736 530 715 566 q 757 443 757 495 q 748 360 757 404 q 723 257 739 317 q 697 156 705 191 q 689 92 689 121 q 704 34 689 59 q 743 0 718 9 q 606 -24 660 -24 z "},"Ŗ":{"ha":835,"x_min":8,"x_max":811,"o":"m 606 -24 q 518 7 545 -24 q 497 69 497 30 q 507 141 497 100 q 534 248 516 182 q 562 356 553 313 q 571 435 571 399 q 553 503 571 479 q 488 529 532 529 q 441 524 463 529 l 330 0 l 131 0 l 319 884 l 525 911 l 457 590 l 468 590 q 546 612 509 590 q 610 671 583 634 q 651 749 636 707 q 665 832 665 792 q 656 888 665 862 q 629 935 647 915 q 513 978 589 978 q 359 955 428 978 q 241 888 290 932 q 164 781 191 844 q 138 640 138 718 q 147 571 138 597 q 154 555 150 562 q 157 546 157 551 q 47 576 81 546 q 8 681 8 608 q 28 771 8 726 q 83 857 47 815 q 164 930 117 896 q 267 989 212 964 q 496 1042 382 1042 q 634 1024 574 1042 q 735 973 694 1006 q 792 903 773 943 q 811 819 811 863 q 772 690 811 753 q 661 582 729 621 q 736 530 715 566 q 757 443 757 495 q 748 360 757 404 q 723 257 739 317 q 697 156 705 191 q 689 92 689 121 q 704 34 689 59 q 743 0 718 9 q 606 -24 660 -24 m 322 -318 q 359 -274 346 -291 q 370 -245 370 -259 q 363 -226 370 -235 q 345 -203 357 -217 q 326 -180 332 -191 q 319 -154 319 -169 q 341 -107 319 -125 q 397 -89 363 -89 q 451 -109 431 -89 q 471 -165 471 -130 q 437 -262 471 -212 q 350 -346 403 -312 l 322 -318 z "},"Ȑ":{"ha":835,"x_min":8,"x_max":811,"o":"m 161 1389 l 307 1389 l 434 1126 l 357 1126 l 161 1389 m 387 1389 l 532 1389 l 659 1126 l 583 1126 l 387 1389 m 606 -24 q 518 7 545 -24 q 497 69 497 30 q 507 141 497 100 q 534 248 516 182 q 562 356 553 313 q 571 435 571 399 q 553 503 571 479 q 488 529 532 529 q 441 524 463 529 l 330 0 l 131 0 l 319 884 l 525 911 l 457 590 l 468 590 q 546 612 509 590 q 610 671 583 634 q 651 749 636 707 q 665 832 665 792 q 656 888 665 862 q 629 935 647 915 q 513 978 589 978 q 359 955 428 978 q 241 888 290 932 q 164 781 191 844 q 138 640 138 718 q 147 571 138 597 q 154 555 150 562 q 157 546 157 551 q 47 576 81 546 q 8 681 8 608 q 28 771 8 726 q 83 857 47 815 q 164 930 117 896 q 267 989 212 964 q 496 1042 382 1042 q 634 1024 574 1042 q 735 973 694 1006 q 792 903 773 943 q 811 819 811 863 q 772 690 811 753 q 661 582 729 621 q 736 530 715 566 q 757 443 757 495 q 748 360 757 404 q 723 257 739 317 q 697 156 705 191 q 689 92 689 121 q 704 34 689 59 q 743 0 718 9 q 606 -24 660 -24 z "},"Ṛ":{"ha":835,"x_min":8,"x_max":811,"o":"m 606 -24 q 518 7 545 -24 q 497 69 497 30 q 507 141 497 100 q 534 248 516 182 q 562 356 553 313 q 571 435 571 399 q 553 503 571 479 q 488 529 532 529 q 441 524 463 529 l 330 0 l 131 0 l 319 884 l 525 911 l 457 590 l 468 590 q 546 612 509 590 q 610 671 583 634 q 651 749 636 707 q 665 832 665 792 q 656 888 665 862 q 629 935 647 915 q 513 978 589 978 q 359 955 428 978 q 241 888 290 932 q 164 781 191 844 q 138 640 138 718 q 147 571 138 597 q 154 555 150 562 q 157 546 157 551 q 47 576 81 546 q 8 681 8 608 q 28 771 8 726 q 83 857 47 815 q 164 930 117 896 q 267 989 212 964 q 496 1042 382 1042 q 634 1024 574 1042 q 735 973 694 1006 q 792 903 773 943 q 811 819 811 863 q 772 690 811 753 q 661 582 729 621 q 736 530 715 566 q 757 443 757 495 q 748 360 757 404 q 723 257 739 317 q 697 156 705 191 q 689 92 689 121 q 704 34 689 59 q 743 0 718 9 q 606 -24 660 -24 m 395 -321 q 353 -312 373 -321 q 317 -289 332 -304 q 294 -254 302 -274 q 286 -211 286 -233 q 294 -168 286 -189 q 317 -132 302 -148 q 353 -108 332 -117 q 395 -100 373 -100 q 438 -108 418 -100 q 474 -132 458 -117 q 498 -168 490 -148 q 507 -211 507 -189 q 498 -254 507 -233 q 474 -289 490 -274 q 438 -312 458 -304 q 395 -321 418 -321 z "},"Ȓ":{"ha":835,"x_min":8,"x_max":811,"o":"m 280 1141 q 311 1216 286 1181 q 376 1278 336 1251 q 467 1319 416 1305 q 573 1333 517 1333 q 731 1284 677 1333 q 785 1141 785 1236 l 661 1141 q 632 1227 661 1197 q 551 1257 604 1257 q 497 1248 524 1257 q 450 1223 471 1239 q 416 1186 429 1207 q 399 1141 403 1165 l 280 1141 m 606 -24 q 518 7 545 -24 q 497 69 497 30 q 507 141 497 100 q 534 248 516 182 q 562 356 553 313 q 571 435 571 399 q 553 503 571 479 q 488 529 532 529 q 441 524 463 529 l 330 0 l 131 0 l 319 884 l 525 911 l 457 590 l 468 590 q 546 612 509 590 q 610 671 583 634 q 651 749 636 707 q 665 832 665 792 q 656 888 665 862 q 629 935 647 915 q 513 978 589 978 q 359 955 428 978 q 241 888 290 932 q 164 781 191 844 q 138 640 138 718 q 147 571 138 597 q 154 555 150 562 q 157 546 157 551 q 47 576 81 546 q 8 681 8 608 q 28 771 8 726 q 83 857 47 815 q 164 930 117 896 q 267 989 212 964 q 496 1042 382 1042 q 634 1024 574 1042 q 735 973 694 1006 q 792 903 773 943 q 811 819 811 863 q 772 690 811 753 q 661 582 729 621 q 736 530 715 566 q 757 443 757 495 q 748 360 757 404 q 723 257 739 317 q 697 156 705 191 q 689 92 689 121 q 704 34 689 59 q 743 0 718 9 q 606 -24 660 -24 z "},"S":{"ha":791,"x_min":47,"x_max":768,"o":"m 340 -25 q 220 -8 273 -25 q 127 42 166 9 q 67 119 88 75 q 47 218 47 164 q 61 304 47 264 q 102 374 76 345 q 164 421 129 404 q 239 437 199 437 q 321 413 288 437 q 362 346 354 389 q 247 307 290 346 q 215 262 227 289 q 204 204 204 236 q 240 107 204 143 q 336 72 275 72 q 403 85 372 72 q 457 121 434 98 q 493 177 480 144 q 505 245 505 209 q 459 387 505 313 q 419 443 441 415 q 357 515 397 470 q 298 586 322 556 q 256 647 275 616 q 210 795 210 722 q 233 896 210 849 q 298 977 256 942 q 398 1030 341 1011 q 521 1049 455 1049 q 701 996 633 1049 q 750 935 733 970 q 768 854 768 899 q 739 760 768 797 q 705 733 725 743 q 663 724 685 724 q 578 767 610 724 q 620 818 604 786 q 635 885 635 849 q 608 956 635 930 q 536 982 582 982 q 485 972 508 982 q 445 943 461 962 q 419 898 428 924 q 410 842 410 872 q 430 758 410 798 q 488 675 450 718 q 562 595 522 635 q 691 410 653 500 q 713 292 713 357 q 686 166 713 224 q 606 66 658 109 q 486 -1 555 22 q 340 -25 418 -25 z "},"Ś":{"ha":791,"x_min":47,"x_max":770,"o":"m 624 1389 l 770 1389 l 602 1126 l 497 1126 l 624 1389 m 340 -25 q 220 -8 273 -25 q 127 42 166 9 q 67 119 88 75 q 47 218 47 164 q 61 304 47 264 q 102 374 76 345 q 164 421 129 404 q 239 437 199 437 q 321 413 288 437 q 362 346 354 389 q 247 307 290 346 q 215 262 227 289 q 204 204 204 236 q 240 107 204 143 q 336 72 275 72 q 403 85 372 72 q 457 121 434 98 q 493 177 480 144 q 505 245 505 209 q 459 387 505 313 q 419 443 441 415 q 357 515 397 470 q 298 586 322 556 q 256 647 275 616 q 210 795 210 722 q 233 896 210 849 q 298 977 256 942 q 398 1030 341 1011 q 521 1049 455 1049 q 701 996 633 1049 q 750 935 733 970 q 768 854 768 899 q 739 760 768 797 q 705 733 725 743 q 663 724 685 724 q 578 767 610 724 q 620 818 604 786 q 635 885 635 849 q 608 956 635 930 q 536 982 582 982 q 485 972 508 982 q 445 943 461 962 q 419 898 428 924 q 410 842 410 872 q 430 758 410 798 q 488 675 450 718 q 562 595 522 635 q 691 410 653 500 q 713 292 713 357 q 686 166 713 224 q 606 66 658 109 q 486 -1 555 22 q 340 -25 418 -25 z "},"Š":{"ha":791,"x_min":47,"x_max":888,"o":"m 481 1389 l 526 1389 l 610 1278 l 827 1389 l 888 1389 l 594 1126 l 565 1126 l 481 1389 m 340 -25 q 220 -8 273 -25 q 127 42 166 9 q 67 119 88 75 q 47 218 47 164 q 61 304 47 264 q 102 374 76 345 q 164 421 129 404 q 239 437 199 437 q 321 413 288 437 q 362 346 354 389 q 247 307 290 346 q 215 262 227 289 q 204 204 204 236 q 240 107 204 143 q 336 72 275 72 q 403 85 372 72 q 457 121 434 98 q 493 177 480 144 q 505 245 505 209 q 459 387 505 313 q 419 443 441 415 q 357 515 397 470 q 298 586 322 556 q 256 647 275 616 q 210 795 210 722 q 233 896 210 849 q 298 977 256 942 q 398 1030 341 1011 q 521 1049 455 1049 q 701 996 633 1049 q 750 935 733 970 q 768 854 768 899 q 739 760 768 797 q 705 733 725 743 q 663 724 685 724 q 578 767 610 724 q 620 818 604 786 q 635 885 635 849 q 608 956 635 930 q 536 982 582 982 q 485 972 508 982 q 445 943 461 962 q 419 898 428 924 q 410 842 410 872 q 430 758 410 798 q 488 675 450 718 q 562 595 522 635 q 691 410 653 500 q 713 292 713 357 q 686 166 713 224 q 606 66 658 109 q 486 -1 555 22 q 340 -25 418 -25 z "},"Ş":{"ha":791,"x_min":47,"x_max":768,"o":"m 336 -314 q 257 -297 294 -314 q 197 -250 220 -281 l 220 -212 q 268 -243 241 -231 q 321 -254 294 -254 q 371 -238 351 -254 q 390 -197 390 -222 q 374 -162 390 -176 q 332 -149 358 -149 q 264 -165 296 -149 l 258 -160 l 311 -24 q 202 -2 251 -20 q 119 49 153 17 q 65 124 83 81 q 47 218 47 167 q 61 304 47 264 q 102 374 76 345 q 164 421 129 404 q 239 437 199 437 q 321 413 288 437 q 362 346 354 389 q 247 307 290 346 q 215 262 227 289 q 204 204 204 236 q 240 107 204 143 q 336 72 275 72 q 403 85 372 72 q 457 121 434 98 q 493 177 480 144 q 505 245 505 209 q 459 387 505 313 q 419 443 441 415 q 357 515 397 470 q 298 586 322 556 q 256 647 275 616 q 210 795 210 722 q 233 896 210 849 q 298 977 256 942 q 398 1030 341 1011 q 521 1049 455 1049 q 701 996 633 1049 q 750 935 733 970 q 768 854 768 899 q 739 760 768 797 q 705 733 725 743 q 663 724 685 724 q 578 767 610 724 q 620 818 604 786 q 635 885 635 849 q 608 956 635 930 q 536 982 582 982 q 485 972 508 982 q 445 943 461 962 q 419 898 428 924 q 410 842 410 872 q 430 758 410 798 q 488 675 450 718 q 562 595 522 635 q 691 410 653 500 q 713 292 713 357 q 688 173 713 229 q 616 75 663 117 q 508 6 570 32 q 372 -24 445 -19 l 345 -92 q 389 -81 373 -83 q 419 -78 405 -78 q 492 -103 465 -78 q 519 -170 519 -127 q 505 -225 519 -199 q 465 -271 490 -251 q 406 -303 439 -292 q 336 -314 372 -314 z "},"Ŝ":{"ha":791,"x_min":47,"x_max":768,"o":"m 641 1389 l 670 1389 l 753 1126 l 709 1126 l 626 1238 l 408 1126 l 347 1126 l 641 1389 m 340 -25 q 220 -8 273 -25 q 127 42 166 9 q 67 119 88 75 q 47 218 47 164 q 61 304 47 264 q 102 374 76 345 q 164 421 129 404 q 239 437 199 437 q 321 413 288 437 q 362 346 354 389 q 247 307 290 346 q 215 262 227 289 q 204 204 204 236 q 240 107 204 143 q 336 72 275 72 q 403 85 372 72 q 457 121 434 98 q 493 177 480 144 q 505 245 505 209 q 459 387 505 313 q 419 443 441 415 q 357 515 397 470 q 298 586 322 556 q 256 647 275 616 q 210 795 210 722 q 233 896 210 849 q 298 977 256 942 q 398 1030 341 1011 q 521 1049 455 1049 q 701 996 633 1049 q 750 935 733 970 q 768 854 768 899 q 739 760 768 797 q 705 733 725 743 q 663 724 685 724 q 578 767 610 724 q 620 818 604 786 q 635 885 635 849 q 608 956 635 930 q 536 982 582 982 q 485 972 508 982 q 445 943 461 962 q 419 898 428 924 q 410 842 410 872 q 430 758 410 798 q 488 675 450 718 q 562 595 522 635 q 691 410 653 500 q 713 292 713 357 q 686 166 713 224 q 606 66 658 109 q 486 -1 555 22 q 340 -25 418 -25 z "},"Ș":{"ha":791,"x_min":47,"x_max":768,"o":"m 340 -25 q 220 -8 273 -25 q 127 42 166 9 q 67 119 88 75 q 47 218 47 164 q 61 304 47 264 q 102 374 76 345 q 164 421 129 404 q 239 437 199 437 q 321 413 288 437 q 362 346 354 389 q 247 307 290 346 q 215 262 227 289 q 204 204 204 236 q 240 107 204 143 q 336 72 275 72 q 403 85 372 72 q 457 121 434 98 q 493 177 480 144 q 505 245 505 209 q 459 387 505 313 q 419 443 441 415 q 357 515 397 470 q 298 586 322 556 q 256 647 275 616 q 210 795 210 722 q 233 896 210 849 q 298 977 256 942 q 398 1030 341 1011 q 521 1049 455 1049 q 701 996 633 1049 q 750 935 733 970 q 768 854 768 899 q 739 760 768 797 q 705 733 725 743 q 663 724 685 724 q 578 767 610 724 q 620 818 604 786 q 635 885 635 849 q 608 956 635 930 q 536 982 582 982 q 485 972 508 982 q 445 943 461 962 q 419 898 428 924 q 410 842 410 872 q 430 758 410 798 q 488 675 450 718 q 562 595 522 635 q 691 410 653 500 q 713 292 713 357 q 686 166 713 224 q 606 66 658 109 q 486 -1 555 22 q 340 -25 418 -25 m 227 -318 q 264 -274 251 -291 q 275 -245 275 -259 q 269 -226 275 -235 q 250 -203 262 -217 q 231 -180 237 -191 q 224 -154 224 -169 q 246 -107 224 -125 q 302 -89 268 -89 q 356 -109 336 -89 q 376 -165 376 -130 q 342 -262 376 -212 q 255 -346 308 -312 l 227 -318 z "},"Ṡ":{"ha":791,"x_min":47,"x_max":768,"o":"m 578 1141 q 535 1150 555 1141 q 500 1173 515 1158 q 476 1208 485 1187 q 468 1251 468 1228 q 476 1294 468 1273 q 500 1329 485 1314 q 535 1353 515 1344 q 578 1362 555 1362 q 621 1353 600 1362 q 656 1329 641 1344 q 681 1294 672 1314 q 689 1251 689 1273 q 681 1208 689 1228 q 656 1173 672 1187 q 621 1150 641 1158 q 578 1141 600 1141 m 340 -25 q 220 -8 273 -25 q 127 42 166 9 q 67 119 88 75 q 47 218 47 164 q 61 304 47 264 q 102 374 76 345 q 164 421 129 404 q 239 437 199 437 q 321 413 288 437 q 362 346 354 389 q 247 307 290 346 q 215 262 227 289 q 204 204 204 236 q 240 107 204 143 q 336 72 275 72 q 403 85 372 72 q 457 121 434 98 q 493 177 480 144 q 505 245 505 209 q 459 387 505 313 q 419 443 441 415 q 357 515 397 470 q 298 586 322 556 q 256 647 275 616 q 210 795 210 722 q 233 896 210 849 q 298 977 256 942 q 398 1030 341 1011 q 521 1049 455 1049 q 701 996 633 1049 q 750 935 733 970 q 768 854 768 899 q 739 760 768 797 q 705 733 725 743 q 663 724 685 724 q 578 767 610 724 q 620 818 604 786 q 635 885 635 849 q 608 956 635 930 q 536 982 582 982 q 485 972 508 982 q 445 943 461 962 q 419 898 428 924 q 410 842 410 872 q 430 758 410 798 q 488 675 450 718 q 562 595 522 635 q 691 410 653 500 q 713 292 713 357 q 686 166 713 224 q 606 66 658 109 q 486 -1 555 22 q 340 -25 418 -25 z "},"Ṣ":{"ha":791,"x_min":47,"x_max":768,"o":"m 340 -25 q 220 -8 273 -25 q 127 42 166 9 q 67 119 88 75 q 47 218 47 164 q 61 304 47 264 q 102 374 76 345 q 164 421 129 404 q 239 437 199 437 q 321 413 288 437 q 362 346 354 389 q 247 307 290 346 q 215 262 227 289 q 204 204 204 236 q 240 107 204 143 q 336 72 275 72 q 403 85 372 72 q 457 121 434 98 q 493 177 480 144 q 505 245 505 209 q 459 387 505 313 q 419 443 441 415 q 357 515 397 470 q 298 586 322 556 q 256 647 275 616 q 210 795 210 722 q 233 896 210 849 q 298 977 256 942 q 398 1030 341 1011 q 521 1049 455 1049 q 701 996 633 1049 q 750 935 733 970 q 768 854 768 899 q 739 760 768 797 q 705 733 725 743 q 663 724 685 724 q 578 767 610 724 q 620 818 604 786 q 635 885 635 849 q 608 956 635 930 q 536 982 582 982 q 485 972 508 982 q 445 943 461 962 q 419 898 428 924 q 410 842 410 872 q 430 758 410 798 q 488 675 450 718 q 562 595 522 635 q 691 410 653 500 q 713 292 713 357 q 686 166 713 224 q 606 66 658 109 q 486 -1 555 22 q 340 -25 418 -25 m 280 -321 q 237 -312 258 -321 q 202 -289 217 -304 q 179 -254 187 -274 q 170 -211 170 -233 q 179 -168 170 -189 q 202 -132 187 -148 q 237 -108 217 -117 q 280 -100 258 -100 q 323 -108 302 -100 q 359 -132 343 -117 q 383 -168 374 -148 q 391 -211 391 -189 q 383 -254 391 -233 q 359 -289 374 -274 q 323 -312 343 -304 q 280 -321 302 -321 z "},"Ə":{"ha":755,"x_min":28,"x_max":749,"o":"m 244 -8 q 157 7 197 -8 q 87 49 117 22 q 43 113 59 75 q 28 196 28 151 q 46 294 28 245 q 100 387 65 342 q 180 468 134 431 q 280 532 226 505 q 395 575 335 560 q 515 590 455 590 q 521 640 519 608 q 522 703 522 661 q 485 849 522 802 q 368 896 448 896 q 254 866 303 896 q 176 779 205 836 q 144 821 155 796 q 132 875 132 846 q 154 947 132 913 q 216 1006 176 981 q 308 1046 255 1031 q 421 1060 361 1060 q 561 1035 500 1060 q 664 962 622 1010 q 749 684 749 863 q 729 512 749 597 q 675 347 710 426 q 593 205 640 271 q 490 93 545 140 q 370 18 433 45 q 244 -8 307 -8 m 256 94 q 326 126 290 94 q 395 215 361 157 q 456 353 428 273 q 501 524 484 432 q 353 469 425 519 q 243 344 286 421 q 200 182 200 266 q 214 116 200 137 q 256 94 227 94 z "},"T":{"ha":668,"x_min":8,"x_max":999,"o":"m 415 920 l 399 920 q 213 863 275 920 q 138 639 138 795 q 147 570 138 595 q 154 554 150 561 q 157 545 157 549 q 47 574 81 545 q 8 679 8 607 q 35 815 8 751 q 117 929 62 880 q 267 1011 176 982 q 482 1040 358 1040 q 618 1032 553 1040 q 671 1025 639 1030 q 776 1011 726 1015 q 838 1008 800 1008 q 926 1017 884 1008 q 999 1038 968 1025 q 952 904 996 947 q 825 861 909 861 q 734 869 780 861 q 610 892 688 876 l 418 0 l 218 0 l 415 920 z "},"Ŧ":{"ha":668,"x_min":8,"x_max":999,"o":"m 298 375 l 110 375 l 130 444 l 313 444 l 415 920 l 399 920 q 213 863 275 920 q 138 639 138 795 q 147 570 138 595 q 154 554 150 561 q 157 545 157 549 q 47 574 81 545 q 8 679 8 607 q 35 815 8 751 q 117 929 62 880 q 267 1011 176 982 q 482 1040 358 1040 q 618 1032 553 1040 q 671 1025 639 1030 q 776 1011 726 1015 q 838 1008 800 1008 q 926 1017 884 1008 q 999 1038 968 1025 q 952 904 996 947 q 825 861 909 861 q 734 869 780 861 q 610 892 688 876 l 513 444 l 741 444 l 722 375 l 498 375 l 418 0 l 218 0 l 298 375 z "},"Ť":{"ha":668,"x_min":8,"x_max":999,"o":"m 443 1389 l 487 1389 l 570 1278 l 789 1389 l 850 1389 l 555 1126 l 526 1126 l 443 1389 m 415 920 l 399 920 q 213 863 275 920 q 138 639 138 795 q 147 570 138 595 q 154 554 150 561 q 157 545 157 549 q 47 574 81 545 q 8 679 8 607 q 35 815 8 751 q 117 929 62 880 q 267 1011 176 982 q 482 1040 358 1040 q 618 1032 553 1040 q 671 1025 639 1030 q 776 1011 726 1015 q 838 1008 800 1008 q 926 1017 884 1008 q 999 1038 968 1025 q 952 904 996 947 q 825 861 909 861 q 734 869 780 861 q 610 892 688 876 l 418 0 l 218 0 l 415 920 z "},"Ţ":{"ha":668,"x_min":8,"x_max":999,"o":"m 315 -314 q 237 -297 273 -314 q 176 -250 200 -281 l 200 -212 q 247 -243 220 -231 q 300 -254 274 -254 q 350 -238 331 -254 q 370 -197 370 -222 q 354 -162 370 -176 q 311 -149 338 -149 q 243 -165 275 -149 l 237 -160 l 300 0 l 218 0 l 415 920 l 399 920 q 213 863 275 920 q 138 639 138 795 q 147 570 138 595 q 154 554 150 561 q 157 545 157 549 q 47 574 81 545 q 8 679 8 607 q 35 815 8 751 q 117 929 62 880 q 267 1011 176 982 q 482 1040 358 1040 q 618 1032 553 1040 q 671 1025 639 1030 q 776 1011 726 1015 q 838 1008 800 1008 q 926 1017 884 1008 q 999 1038 968 1025 q 952 904 996 947 q 825 861 909 861 q 734 869 780 861 q 610 892 688 876 l 418 0 l 361 0 l 325 -92 q 369 -81 353 -83 q 399 -78 385 -78 q 472 -103 445 -78 q 498 -170 498 -127 q 484 -225 498 -199 q 444 -271 470 -251 q 386 -303 419 -292 q 315 -314 352 -314 z "},"Ț":{"ha":668,"x_min":8,"x_max":999,"o":"m 415 920 l 399 920 q 213 863 275 920 q 138 639 138 795 q 147 570 138 595 q 154 554 150 561 q 157 545 157 549 q 47 574 81 545 q 8 679 8 607 q 35 815 8 751 q 117 929 62 880 q 267 1011 176 982 q 482 1040 358 1040 q 618 1032 553 1040 q 671 1025 639 1030 q 776 1011 726 1015 q 838 1008 800 1008 q 926 1017 884 1008 q 999 1038 968 1025 q 952 904 996 947 q 825 861 909 861 q 734 869 780 861 q 610 892 688 876 l 418 0 l 218 0 l 415 920 m 227 -318 q 264 -274 251 -291 q 275 -245 275 -259 q 269 -226 275 -235 q 250 -203 262 -217 q 231 -180 237 -191 q 224 -154 224 -169 q 246 -107 224 -125 q 302 -89 268 -89 q 356 -109 336 -89 q 376 -165 376 -130 q 342 -262 376 -212 q 255 -346 308 -312 l 227 -318 z "},"Ṭ":{"ha":668,"x_min":8,"x_max":999,"o":"m 415 920 l 399 920 q 213 863 275 920 q 138 639 138 795 q 147 570 138 595 q 154 554 150 561 q 157 545 157 549 q 47 574 81 545 q 8 679 8 607 q 35 815 8 751 q 117 929 62 880 q 267 1011 176 982 q 482 1040 358 1040 q 618 1032 553 1040 q 671 1025 639 1030 q 776 1011 726 1015 q 838 1008 800 1008 q 926 1017 884 1008 q 999 1038 968 1025 q 952 904 996 947 q 825 861 909 861 q 734 869 780 861 q 610 892 688 876 l 418 0 l 218 0 l 415 920 m 288 -321 q 245 -312 265 -321 q 210 -289 224 -304 q 186 -254 195 -274 q 178 -211 178 -233 q 186 -168 178 -189 q 210 -132 195 -148 q 245 -108 224 -117 q 288 -100 265 -100 q 330 -108 310 -100 q 366 -132 351 -117 q 390 -168 382 -148 q 399 -211 399 -189 q 390 -254 399 -233 q 366 -289 382 -274 q 330 -312 351 -304 q 288 -321 310 -321 z "},"U":{"ha":994,"x_min":-7,"x_max":1059,"o":"m 494 -9 q 286 58 355 -9 q 216 257 216 125 q 235 403 216 323 l 377 966 q 270 921 317 951 q 189 851 222 891 q 141 768 157 813 q 124 675 124 723 q 160 543 124 606 q 37 581 81 543 q -7 691 -7 620 q 13 781 -7 736 q 68 866 32 825 q 151 939 102 905 q 258 996 199 972 q 515 1047 382 1047 q 593 1040 562 1047 l 424 399 q 400 249 400 312 q 509 117 400 117 q 724 403 662 117 l 863 1044 l 1059 1044 l 923 403 q 771 95 880 199 q 494 -9 663 -9 z "},"Ú":{"ha":994,"x_min":-7,"x_max":1050,"o":"m 746 1389 l 892 1389 l 724 1126 l 620 1126 l 746 1389 m 477 -9 q 351 5 402 -9 q 268 48 300 19 q 208 211 208 101 q 243 458 208 302 q 279 609 259 532 l 322 778 l 368 961 q 189 850 254 931 q 122 642 122 766 q 132 571 122 595 q 139 556 134 564 q 142 546 142 551 q 33 574 69 546 q -7 673 -7 605 q 13 768 -7 721 q 70 857 33 814 q 154 931 105 897 q 262 990 203 965 q 518 1042 386 1042 q 549 1040 536 1042 q 585 1035 563 1039 q 526 819 543 883 l 479 645 q 418 401 433 477 q 397 252 397 307 q 420 158 397 189 q 493 126 442 126 q 550 131 527 126 q 593 151 573 136 q 634 198 615 166 q 674 283 654 229 q 762 610 713 390 l 854 1039 l 1050 1039 l 958 606 q 911 405 933 488 q 864 258 890 322 q 801 139 836 189 q 721 56 766 89 q 614 7 674 23 q 477 -9 554 -9 z "},"Ŭ":{"ha":994,"x_min":-7,"x_max":1050,"o":"m 730 1133 q 573 1181 627 1133 q 519 1324 519 1230 l 643 1324 q 671 1239 643 1269 q 752 1209 700 1209 q 806 1218 780 1209 q 854 1243 833 1227 q 887 1280 874 1259 q 904 1324 901 1301 l 1023 1324 q 992 1250 1017 1284 q 927 1188 967 1215 q 837 1147 888 1162 q 730 1133 786 1133 m 477 -9 q 351 5 402 -9 q 268 48 300 19 q 208 211 208 101 q 243 458 208 302 q 279 609 259 532 l 322 778 l 368 961 q 189 850 254 931 q 122 642 122 766 q 132 571 122 595 q 139 556 134 564 q 142 546 142 551 q 33 574 69 546 q -7 673 -7 605 q 13 768 -7 721 q 70 857 33 814 q 154 931 105 897 q 262 990 203 965 q 518 1042 386 1042 q 549 1040 536 1042 q 585 1035 563 1039 q 526 819 543 883 l 479 645 q 418 401 433 477 q 397 252 397 307 q 420 158 397 189 q 493 126 442 126 q 550 131 527 126 q 593 151 573 136 q 634 198 615 166 q 674 283 654 229 q 762 610 713 390 l 854 1039 l 1050 1039 l 958 606 q 911 405 933 488 q 864 258 890 322 q 801 139 836 189 q 721 56 766 89 q 614 7 674 23 q 477 -9 554 -9 z "},"Ǔ":{"ha":994,"x_min":-7,"x_max":1050,"o":"m 640 1389 l 684 1389 l 767 1278 l 985 1389 l 1046 1389 l 752 1126 l 723 1126 l 640 1389 m 477 -9 q 351 5 402 -9 q 268 48 300 19 q 208 211 208 101 q 243 458 208 302 q 279 609 259 532 l 322 778 l 368 961 q 189 850 254 931 q 122 642 122 766 q 132 571 122 595 q 139 556 134 564 q 142 546 142 551 q 33 574 69 546 q -7 673 -7 605 q 13 768 -7 721 q 70 857 33 814 q 154 931 105 897 q 262 990 203 965 q 518 1042 386 1042 q 549 1040 536 1042 q 585 1035 563 1039 q 526 819 543 883 l 479 645 q 418 401 433 477 q 397 252 397 307 q 420 158 397 189 q 493 126 442 126 q 550 131 527 126 q 593 151 573 136 q 634 198 615 166 q 674 283 654 229 q 762 610 713 390 l 854 1039 l 1050 1039 l 958 606 q 911 405 933 488 q 864 258 890 322 q 801 139 836 189 q 721 56 766 89 q 614 7 674 23 q 477 -9 554 -9 z "},"Û":{"ha":994,"x_min":-7,"x_max":1050,"o":"m 792 1389 l 821 1389 l 904 1126 l 860 1126 l 777 1238 l 559 1126 l 497 1126 l 792 1389 m 477 -9 q 351 5 402 -9 q 268 48 300 19 q 208 211 208 101 q 243 458 208 302 q 279 609 259 532 l 322 778 l 368 961 q 189 850 254 931 q 122 642 122 766 q 132 571 122 595 q 139 556 134 564 q 142 546 142 551 q 33 574 69 546 q -7 673 -7 605 q 13 768 -7 721 q 70 857 33 814 q 154 931 105 897 q 262 990 203 965 q 518 1042 386 1042 q 549 1040 536 1042 q 585 1035 563 1039 q 526 819 543 883 l 479 645 q 418 401 433 477 q 397 252 397 307 q 420 158 397 189 q 493 126 442 126 q 550 131 527 126 q 593 151 573 136 q 634 198 615 166 q 674 283 654 229 q 762 610 713 390 l 854 1039 l 1050 1039 l 958 606 q 911 405 933 488 q 864 258 890 322 q 801 139 836 189 q 721 56 766 89 q 614 7 674 23 q 477 -9 554 -9 z "},"Ȕ":{"ha":994,"x_min":-7,"x_max":1050,"o":"m 378 1389 l 524 1389 l 651 1126 l 574 1126 l 378 1389 m 604 1389 l 749 1389 l 876 1126 l 800 1126 l 604 1389 m 477 -9 q 351 5 402 -9 q 268 48 300 19 q 208 211 208 101 q 243 458 208 302 q 279 609 259 532 l 322 778 l 368 961 q 189 850 254 931 q 122 642 122 766 q 132 571 122 595 q 139 556 134 564 q 142 546 142 551 q 33 574 69 546 q -7 673 -7 605 q 13 768 -7 721 q 70 857 33 814 q 154 931 105 897 q 262 990 203 965 q 518 1042 386 1042 q 549 1040 536 1042 q 585 1035 563 1039 q 526 819 543 883 l 479 645 q 418 401 433 477 q 397 252 397 307 q 420 158 397 189 q 493 126 442 126 q 550 131 527 126 q 593 151 573 136 q 634 198 615 166 q 674 283 654 229 q 762 610 713 390 l 854 1039 l 1050 1039 l 958 606 q 911 405 933 488 q 864 258 890 322 q 801 139 836 189 q 721 56 766 89 q 614 7 674 23 q 477 -9 554 -9 z "},"Ü":{"ha":994,"x_min":-7,"x_max":1050,"o":"m 610 1143 q 549 1168 574 1143 q 525 1227 525 1192 q 531 1259 525 1244 q 549 1287 538 1275 q 610 1312 573 1312 q 669 1287 643 1312 q 688 1260 681 1276 q 694 1227 694 1244 q 669 1168 694 1192 q 610 1143 643 1143 m 859 1143 q 799 1167 823 1143 q 775 1227 775 1191 q 782 1259 775 1244 q 800 1287 788 1275 q 859 1312 823 1312 q 892 1305 876 1312 q 919 1287 907 1299 q 937 1260 930 1276 q 944 1227 944 1244 q 919 1168 944 1192 q 891 1150 907 1156 q 859 1143 876 1143 m 477 -9 q 351 5 402 -9 q 268 48 300 19 q 208 211 208 101 q 243 458 208 302 q 279 609 259 532 l 322 778 l 368 961 q 189 850 254 931 q 122 642 122 766 q 132 571 122 595 q 139 556 134 564 q 142 546 142 551 q 33 574 69 546 q -7 673 -7 605 q 13 768 -7 721 q 70 857 33 814 q 154 931 105 897 q 262 990 203 965 q 518 1042 386 1042 q 549 1040 536 1042 q 585 1035 563 1039 q 526 819 543 883 l 479 645 q 418 401 433 477 q 397 252 397 307 q 420 158 397 189 q 493 126 442 126 q 550 131 527 126 q 593 151 573 136 q 634 198 615 166 q 674 283 654 229 q 762 610 713 390 l 854 1039 l 1050 1039 l 958 606 q 911 405 933 488 q 864 258 890 322 q 801 139 836 189 q 721 56 766 89 q 614 7 674 23 q 477 -9 554 -9 z "},"Ǘ":{"ha":994,"x_min":-7,"x_max":1053,"o":"m 766 1389 l 912 1389 l 744 1126 l 640 1126 l 766 1389 m 542 1143 q 481 1168 506 1143 q 457 1227 457 1192 q 464 1259 457 1244 q 481 1287 470 1275 q 542 1312 505 1312 q 602 1287 575 1312 q 620 1260 613 1276 q 627 1227 627 1244 q 602 1168 627 1192 q 542 1143 575 1143 m 968 1143 q 907 1167 931 1143 q 884 1227 884 1191 q 890 1259 884 1244 q 908 1287 897 1275 q 968 1312 932 1312 q 1000 1305 985 1312 q 1027 1287 1016 1299 q 1046 1260 1039 1276 q 1053 1227 1053 1244 q 1027 1168 1053 1192 q 1000 1150 1015 1156 q 968 1143 984 1143 m 477 -9 q 351 5 402 -9 q 268 48 300 19 q 208 211 208 101 q 243 458 208 302 q 279 609 259 532 l 322 778 l 368 961 q 189 850 254 931 q 122 642 122 766 q 132 571 122 595 q 139 556 134 564 q 142 546 142 551 q 33 574 69 546 q -7 673 -7 605 q 13 768 -7 721 q 70 857 33 814 q 154 931 105 897 q 262 990 203 965 q 518 1042 386 1042 q 549 1040 536 1042 q 585 1035 563 1039 q 526 819 543 883 l 479 645 q 418 401 433 477 q 397 252 397 307 q 420 158 397 189 q 493 126 442 126 q 550 131 527 126 q 593 151 573 136 q 634 198 615 166 q 674 283 654 229 q 762 610 713 390 l 854 1039 l 1050 1039 l 958 606 q 911 405 933 488 q 864 258 890 322 q 801 139 836 189 q 721 56 766 89 q 614 7 674 23 q 477 -9 554 -9 z "},"Ǚ":{"ha":994,"x_min":-7,"x_max":1053,"o":"m 619 1388 l 658 1388 l 732 1290 l 924 1388 l 979 1388 l 719 1157 l 693 1157 l 619 1388 m 542 1143 q 481 1168 506 1143 q 457 1227 457 1192 q 464 1259 457 1244 q 481 1287 470 1275 q 542 1312 505 1312 q 602 1287 575 1312 q 620 1260 613 1276 q 627 1227 627 1244 q 602 1168 627 1192 q 542 1143 575 1143 m 968 1143 q 907 1167 931 1143 q 884 1227 884 1191 q 890 1259 884 1244 q 908 1287 897 1275 q 968 1312 932 1312 q 1000 1305 985 1312 q 1027 1287 1016 1299 q 1046 1260 1039 1276 q 1053 1227 1053 1244 q 1027 1168 1053 1192 q 1000 1150 1015 1156 q 968 1143 984 1143 m 477 -9 q 351 5 402 -9 q 268 48 300 19 q 208 211 208 101 q 243 458 208 302 q 279 609 259 532 l 322 778 l 368 961 q 189 850 254 931 q 122 642 122 766 q 132 571 122 595 q 139 556 134 564 q 142 546 142 551 q 33 574 69 546 q -7 673 -7 605 q 13 768 -7 721 q 70 857 33 814 q 154 931 105 897 q 262 990 203 965 q 518 1042 386 1042 q 549 1040 536 1042 q 585 1035 563 1039 q 526 819 543 883 l 479 645 q 418 401 433 477 q 397 252 397 307 q 420 158 397 189 q 493 126 442 126 q 550 131 527 126 q 593 151 573 136 q 634 198 615 166 q 674 283 654 229 q 762 610 713 390 l 854 1039 l 1050 1039 l 958 606 q 911 405 933 488 q 864 258 890 322 q 801 139 836 189 q 721 56 766 89 q 614 7 674 23 q 477 -9 554 -9 z "},"Ǜ":{"ha":994,"x_min":-7,"x_max":1053,"o":"m 650 1389 l 795 1389 l 836 1126 l 732 1126 l 650 1389 m 542 1143 q 481 1168 506 1143 q 457 1227 457 1192 q 464 1259 457 1244 q 481 1287 470 1275 q 542 1312 505 1312 q 602 1287 575 1312 q 620 1260 613 1276 q 627 1227 627 1244 q 602 1168 627 1192 q 542 1143 575 1143 m 968 1143 q 907 1167 931 1143 q 884 1227 884 1191 q 890 1259 884 1244 q 908 1287 897 1275 q 968 1312 932 1312 q 1000 1305 985 1312 q 1027 1287 1016 1299 q 1046 1260 1039 1276 q 1053 1227 1053 1244 q 1027 1168 1053 1192 q 1000 1150 1015 1156 q 968 1143 984 1143 m 477 -9 q 351 5 402 -9 q 268 48 300 19 q 208 211 208 101 q 243 458 208 302 q 279 609 259 532 l 322 778 l 368 961 q 189 850 254 931 q 122 642 122 766 q 132 571 122 595 q 139 556 134 564 q 142 546 142 551 q 33 574 69 546 q -7 673 -7 605 q 13 768 -7 721 q 70 857 33 814 q 154 931 105 897 q 262 990 203 965 q 518 1042 386 1042 q 549 1040 536 1042 q 585 1035 563 1039 q 526 819 543 883 l 479 645 q 418 401 433 477 q 397 252 397 307 q 420 158 397 189 q 493 126 442 126 q 550 131 527 126 q 593 151 573 136 q 634 198 615 166 q 674 283 654 229 q 762 610 713 390 l 854 1039 l 1050 1039 l 958 606 q 911 405 933 488 q 864 258 890 322 q 801 139 836 189 q 721 56 766 89 q 614 7 674 23 q 477 -9 554 -9 z "},"Ǖ":{"ha":994,"x_min":-7,"x_max":1050,"o":"m 567 1389 l 1011 1389 l 991 1313 l 545 1313 l 567 1389 m 610 1089 q 549 1114 574 1089 q 525 1173 525 1138 q 531 1205 525 1190 q 549 1233 538 1221 q 610 1258 573 1258 q 669 1233 643 1258 q 688 1206 681 1221 q 694 1173 694 1190 q 669 1114 694 1137 q 610 1089 643 1089 m 900 1089 q 840 1113 863 1089 q 816 1173 816 1137 q 822 1205 816 1190 q 840 1233 829 1221 q 900 1258 864 1258 q 932 1251 917 1258 q 960 1233 948 1244 q 978 1206 971 1221 q 985 1173 985 1190 q 960 1114 985 1137 q 932 1096 947 1102 q 900 1089 916 1089 m 477 -9 q 351 5 402 -9 q 268 48 300 19 q 208 211 208 101 q 243 458 208 302 q 279 609 259 532 l 322 778 l 368 961 q 189 850 254 931 q 122 642 122 766 q 132 571 122 595 q 139 556 134 564 q 142 546 142 551 q 33 574 69 546 q -7 673 -7 605 q 13 768 -7 721 q 70 857 33 814 q 154 931 105 897 q 262 990 203 965 q 518 1042 386 1042 q 549 1040 536 1042 q 585 1035 563 1039 q 526 819 543 883 l 479 645 q 418 401 433 477 q 397 252 397 307 q 420 158 397 189 q 493 126 442 126 q 550 131 527 126 q 593 151 573 136 q 634 198 615 166 q 674 283 654 229 q 762 610 713 390 l 854 1039 l 1050 1039 l 958 606 q 911 405 933 488 q 864 258 890 322 q 801 139 836 189 q 721 56 766 89 q 614 7 674 23 q 477 -9 554 -9 z "},"Ụ":{"ha":994,"x_min":-7,"x_max":1050,"o":"m 477 -9 q 351 5 402 -9 q 268 48 300 19 q 208 211 208 101 q 243 458 208 302 q 279 609 259 532 l 322 778 l 368 961 q 189 850 254 931 q 122 642 122 766 q 132 571 122 595 q 139 556 134 564 q 142 546 142 551 q 33 574 69 546 q -7 673 -7 605 q 13 768 -7 721 q 70 857 33 814 q 154 931 105 897 q 262 990 203 965 q 518 1042 386 1042 q 549 1040 536 1042 q 585 1035 563 1039 q 526 819 543 883 l 479 645 q 418 401 433 477 q 397 252 397 307 q 420 158 397 189 q 493 126 442 126 q 550 131 527 126 q 593 151 573 136 q 634 198 615 166 q 674 283 654 229 q 762 610 713 390 l 854 1039 l 1050 1039 l 958 606 q 911 405 933 488 q 864 258 890 322 q 801 139 836 189 q 721 56 766 89 q 614 7 674 23 q 477 -9 554 -9 m 429 -321 q 387 -312 407 -321 q 351 -289 366 -304 q 328 -254 336 -274 q 319 -211 319 -233 q 328 -168 319 -189 q 351 -132 336 -148 q 387 -108 366 -117 q 429 -100 407 -100 q 472 -108 452 -100 q 508 -132 492 -117 q 532 -168 524 -148 q 541 -211 541 -189 q 532 -254 541 -233 q 508 -289 524 -274 q 472 -312 492 -304 q 429 -321 452 -321 z "},"Ù":{"ha":994,"x_min":-7,"x_max":1050,"o":"m 563 1389 l 709 1389 l 749 1126 l 645 1126 l 563 1389 m 477 -9 q 351 5 402 -9 q 268 48 300 19 q 208 211 208 101 q 243 458 208 302 q 279 609 259 532 l 322 778 l 368 961 q 189 850 254 931 q 122 642 122 766 q 132 571 122 595 q 139 556 134 564 q 142 546 142 551 q 33 574 69 546 q -7 673 -7 605 q 13 768 -7 721 q 70 857 33 814 q 154 931 105 897 q 262 990 203 965 q 518 1042 386 1042 q 549 1040 536 1042 q 585 1035 563 1039 q 526 819 543 883 l 479 645 q 418 401 433 477 q 397 252 397 307 q 420 158 397 189 q 493 126 442 126 q 550 131 527 126 q 593 151 573 136 q 634 198 615 166 q 674 283 654 229 q 762 610 713 390 l 854 1039 l 1050 1039 l 958 606 q 911 405 933 488 q 864 258 890 322 q 801 139 836 189 q 721 56 766 89 q 614 7 674 23 q 477 -9 554 -9 z "},"Ủ":{"ha":994,"x_min":-7,"x_max":1050,"o":"m 694 1103 l 694 1225 q 755 1219 721 1219 q 804 1232 787 1219 q 821 1268 821 1245 q 755 1318 821 1318 q 673 1296 707 1318 l 636 1354 q 697 1379 661 1369 q 772 1388 734 1388 q 829 1380 802 1388 q 876 1358 856 1372 q 905 1322 895 1343 q 916 1277 916 1301 q 905 1232 916 1253 q 875 1195 895 1211 q 769 1156 833 1161 l 759 1100 l 694 1103 m 477 -9 q 351 5 402 -9 q 268 48 300 19 q 208 211 208 101 q 243 458 208 302 q 279 609 259 532 l 322 778 l 368 961 q 189 850 254 931 q 122 642 122 766 q 132 571 122 595 q 139 556 134 564 q 142 546 142 551 q 33 574 69 546 q -7 673 -7 605 q 13 768 -7 721 q 70 857 33 814 q 154 931 105 897 q 262 990 203 965 q 518 1042 386 1042 q 549 1040 536 1042 q 585 1035 563 1039 q 526 819 543 883 l 479 645 q 418 401 433 477 q 397 252 397 307 q 420 158 397 189 q 493 126 442 126 q 550 131 527 126 q 593 151 573 136 q 634 198 615 166 q 674 283 654 229 q 762 610 713 390 l 854 1039 l 1050 1039 l 958 606 q 911 405 933 488 q 864 258 890 322 q 801 139 836 189 q 721 56 766 89 q 614 7 674 23 q 477 -9 554 -9 z "},"Ư":{"ha":994,"x_min":-7,"x_max":1209,"o":"m 477 -9 q 351 5 402 -9 q 268 48 300 19 q 208 211 208 101 q 243 458 208 302 q 279 609 259 532 l 322 778 l 368 961 q 189 850 254 931 q 122 642 122 766 q 132 571 122 595 q 139 556 134 564 q 142 546 142 551 q 33 574 69 546 q -7 673 -7 605 q 13 768 -7 721 q 70 857 33 814 q 154 931 105 897 q 262 990 203 965 q 518 1042 386 1042 q 549 1040 536 1042 q 585 1035 563 1039 q 526 819 543 883 l 479 645 q 418 401 433 477 q 397 252 397 307 q 420 158 397 189 q 493 126 442 126 q 550 131 527 126 q 593 151 573 136 q 634 198 615 166 q 674 283 654 229 q 762 610 713 390 l 854 1039 l 1006 1039 q 1065 1105 1048 1062 q 1080 1193 1080 1142 q 1072 1267 1080 1232 q 1113 1288 1091 1280 q 1154 1296 1134 1296 q 1209 1230 1209 1296 q 1196 1153 1209 1193 q 1158 1076 1182 1113 q 1101 1008 1133 1038 q 1034 962 1069 978 l 958 606 q 911 405 933 488 q 864 258 890 322 q 801 139 836 189 q 721 56 766 89 q 614 7 674 23 q 477 -9 554 -9 z "},"Ứ":{"ha":994,"x_min":-7,"x_max":1209,"o":"m 814 1389 l 960 1389 l 791 1126 l 688 1126 l 814 1389 m 477 -9 q 351 5 402 -9 q 268 48 300 19 q 208 211 208 101 q 243 458 208 302 q 279 609 259 532 l 322 778 l 368 961 q 189 850 254 931 q 122 642 122 766 q 132 571 122 595 q 139 556 134 564 q 142 546 142 551 q 33 574 69 546 q -7 673 -7 605 q 13 768 -7 721 q 70 857 33 814 q 154 931 105 897 q 262 990 203 965 q 518 1042 386 1042 q 549 1040 536 1042 q 585 1035 563 1039 q 526 819 543 883 l 479 645 q 418 401 433 477 q 397 252 397 307 q 420 158 397 189 q 493 126 442 126 q 550 131 527 126 q 593 151 573 136 q 634 198 615 166 q 674 283 654 229 q 762 610 713 390 l 854 1039 l 1006 1039 q 1065 1105 1048 1062 q 1080 1193 1080 1142 q 1072 1267 1080 1232 q 1113 1288 1091 1280 q 1154 1296 1134 1296 q 1209 1230 1209 1296 q 1196 1153 1209 1193 q 1158 1076 1182 1113 q 1101 1008 1133 1038 q 1034 962 1069 978 l 958 606 q 911 405 933 488 q 864 258 890 322 q 801 139 836 189 q 721 56 766 89 q 614 7 674 23 q 477 -9 554 -9 z "},"Ự":{"ha":994,"x_min":-7,"x_max":1209,"o":"m 477 -9 q 351 5 402 -9 q 268 48 300 19 q 208 211 208 101 q 243 458 208 302 q 279 609 259 532 l 322 778 l 368 961 q 189 850 254 931 q 122 642 122 766 q 132 571 122 595 q 139 556 134 564 q 142 546 142 551 q 33 574 69 546 q -7 673 -7 605 q 13 768 -7 721 q 70 857 33 814 q 154 931 105 897 q 262 990 203 965 q 518 1042 386 1042 q 549 1040 536 1042 q 585 1035 563 1039 q 526 819 543 883 l 479 645 q 418 401 433 477 q 397 252 397 307 q 420 158 397 189 q 493 126 442 126 q 550 131 527 126 q 593 151 573 136 q 634 198 615 166 q 674 283 654 229 q 762 610 713 390 l 854 1039 l 1006 1039 q 1065 1105 1048 1062 q 1080 1193 1080 1142 q 1072 1267 1080 1232 q 1113 1288 1091 1280 q 1154 1296 1134 1296 q 1209 1230 1209 1296 q 1196 1153 1209 1193 q 1158 1076 1182 1113 q 1101 1008 1133 1038 q 1034 962 1069 978 l 958 606 q 911 405 933 488 q 864 258 890 322 q 801 139 836 189 q 721 56 766 89 q 614 7 674 23 q 477 -9 554 -9 m 429 -321 q 387 -312 407 -321 q 351 -289 366 -304 q 328 -254 336 -274 q 319 -211 319 -233 q 328 -168 319 -189 q 351 -132 336 -148 q 387 -108 366 -117 q 429 -100 407 -100 q 472 -108 452 -100 q 508 -132 492 -117 q 532 -168 524 -148 q 541 -211 541 -189 q 532 -254 541 -233 q 508 -289 524 -274 q 472 -312 492 -304 q 429 -321 452 -321 z "},"Ừ":{"ha":994,"x_min":-7,"x_max":1209,"o":"m 563 1389 l 709 1389 l 749 1126 l 645 1126 l 563 1389 m 477 -9 q 351 5 402 -9 q 268 48 300 19 q 208 211 208 101 q 243 458 208 302 q 279 609 259 532 l 322 778 l 368 961 q 189 850 254 931 q 122 642 122 766 q 132 571 122 595 q 139 556 134 564 q 142 546 142 551 q 33 574 69 546 q -7 673 -7 605 q 13 768 -7 721 q 70 857 33 814 q 154 931 105 897 q 262 990 203 965 q 518 1042 386 1042 q 549 1040 536 1042 q 585 1035 563 1039 q 526 819 543 883 l 479 645 q 418 401 433 477 q 397 252 397 307 q 420 158 397 189 q 493 126 442 126 q 550 131 527 126 q 593 151 573 136 q 634 198 615 166 q 674 283 654 229 q 762 610 713 390 l 854 1039 l 1006 1039 q 1065 1105 1048 1062 q 1080 1193 1080 1142 q 1072 1267 1080 1232 q 1113 1288 1091 1280 q 1154 1296 1134 1296 q 1209 1230 1209 1296 q 1196 1153 1209 1193 q 1158 1076 1182 1113 q 1101 1008 1133 1038 q 1034 962 1069 978 l 958 606 q 911 405 933 488 q 864 258 890 322 q 801 139 836 189 q 721 56 766 89 q 614 7 674 23 q 477 -9 554 -9 z "},"Ử":{"ha":994,"x_min":-7,"x_max":1209,"o":"m 694 1103 l 694 1225 q 755 1219 721 1219 q 804 1232 787 1219 q 821 1268 821 1245 q 755 1318 821 1318 q 673 1296 707 1318 l 636 1354 q 697 1379 661 1369 q 772 1388 734 1388 q 829 1380 802 1388 q 876 1358 856 1372 q 905 1322 895 1343 q 916 1277 916 1301 q 905 1232 916 1253 q 875 1195 895 1211 q 769 1156 833 1161 l 759 1100 l 694 1103 m 477 -9 q 351 5 402 -9 q 268 48 300 19 q 208 211 208 101 q 243 458 208 302 q 279 609 259 532 l 322 778 l 368 961 q 189 850 254 931 q 122 642 122 766 q 132 571 122 595 q 139 556 134 564 q 142 546 142 551 q 33 574 69 546 q -7 673 -7 605 q 13 768 -7 721 q 70 857 33 814 q 154 931 105 897 q 262 990 203 965 q 518 1042 386 1042 q 549 1040 536 1042 q 585 1035 563 1039 q 526 819 543 883 l 479 645 q 418 401 433 477 q 397 252 397 307 q 420 158 397 189 q 493 126 442 126 q 550 131 527 126 q 593 151 573 136 q 634 198 615 166 q 674 283 654 229 q 762 610 713 390 l 854 1039 l 1006 1039 q 1065 1105 1048 1062 q 1080 1193 1080 1142 q 1072 1267 1080 1232 q 1113 1288 1091 1280 q 1154 1296 1134 1296 q 1209 1230 1209 1296 q 1196 1153 1209 1193 q 1158 1076 1182 1113 q 1101 1008 1133 1038 q 1034 962 1069 978 l 958 606 q 911 405 933 488 q 864 258 890 322 q 801 139 836 189 q 721 56 766 89 q 614 7 674 23 q 477 -9 554 -9 z "},"Ữ":{"ha":994,"x_min":-7,"x_max":1209,"o":"m 477 -9 q 351 5 402 -9 q 268 48 300 19 q 208 211 208 101 q 243 458 208 302 q 279 609 259 532 l 322 778 l 368 961 q 189 850 254 931 q 122 642 122 766 q 132 571 122 595 q 139 556 134 564 q 142 546 142 551 q 33 574 69 546 q -7 673 -7 605 q 13 768 -7 721 q 70 857 33 814 q 154 931 105 897 q 262 990 203 965 q 518 1042 386 1042 q 549 1040 536 1042 q 585 1035 563 1039 q 526 819 543 883 l 479 645 q 418 401 433 477 q 397 252 397 307 q 420 158 397 189 q 493 126 442 126 q 550 131 527 126 q 593 151 573 136 q 634 198 615 166 q 674 283 654 229 q 762 610 713 390 l 854 1039 l 1006 1039 q 1065 1105 1048 1062 q 1080 1193 1080 1142 q 1072 1267 1080 1232 q 1113 1288 1091 1280 q 1154 1296 1134 1296 q 1209 1230 1209 1296 q 1196 1153 1209 1193 q 1158 1076 1182 1113 q 1101 1008 1133 1038 q 1034 962 1069 978 l 958 606 q 911 405 933 488 q 864 258 890 322 q 801 139 836 189 q 721 56 766 89 q 614 7 674 23 q 477 -9 554 -9 m 801 1137 q 743 1144 770 1137 q 679 1163 715 1150 q 617 1183 640 1177 q 568 1189 593 1189 q 476 1153 516 1189 l 468 1156 q 561 1257 501 1223 q 700 1292 620 1292 q 760 1286 733 1292 q 822 1269 787 1280 q 880 1251 859 1257 q 929 1246 902 1246 q 978 1254 956 1246 q 1017 1278 1001 1262 l 1025 1276 q 999 1227 1019 1252 q 947 1183 978 1202 q 878 1149 916 1162 q 801 1137 839 1137 z "},"Ű":{"ha":994,"x_min":-7,"x_max":1080,"o":"m 710 1388 l 856 1388 l 660 1125 l 583 1125 l 710 1388 m 935 1388 l 1080 1388 l 885 1125 l 808 1125 l 935 1388 m 477 -9 q 351 5 402 -9 q 268 48 300 19 q 208 211 208 101 q 243 458 208 302 q 279 609 259 532 l 322 778 l 368 961 q 189 850 254 931 q 122 642 122 766 q 132 571 122 595 q 139 556 134 564 q 142 546 142 551 q 33 574 69 546 q -7 673 -7 605 q 13 768 -7 721 q 70 857 33 814 q 154 931 105 897 q 262 990 203 965 q 518 1042 386 1042 q 549 1040 536 1042 q 585 1035 563 1039 q 526 819 543 883 l 479 645 q 418 401 433 477 q 397 252 397 307 q 420 158 397 189 q 493 126 442 126 q 550 131 527 126 q 593 151 573 136 q 634 198 615 166 q 674 283 654 229 q 762 610 713 390 l 854 1039 l 1050 1039 l 958 606 q 911 405 933 488 q 864 258 890 322 q 801 139 836 189 q 721 56 766 89 q 614 7 674 23 q 477 -9 554 -9 z "},"Ȗ":{"ha":994,"x_min":-7,"x_max":1050,"o":"m 484 1141 q 515 1216 490 1181 q 580 1278 540 1251 q 670 1319 619 1305 q 777 1333 721 1333 q 934 1284 880 1333 q 988 1141 988 1236 l 864 1141 q 836 1227 864 1197 q 755 1257 807 1257 q 701 1248 727 1257 q 654 1223 675 1239 q 620 1186 633 1207 q 603 1141 606 1165 l 484 1141 m 477 -9 q 351 5 402 -9 q 268 48 300 19 q 208 211 208 101 q 243 458 208 302 q 279 609 259 532 l 322 778 l 368 961 q 189 850 254 931 q 122 642 122 766 q 132 571 122 595 q 139 556 134 564 q 142 546 142 551 q 33 574 69 546 q -7 673 -7 605 q 13 768 -7 721 q 70 857 33 814 q 154 931 105 897 q 262 990 203 965 q 518 1042 386 1042 q 549 1040 536 1042 q 585 1035 563 1039 q 526 819 543 883 l 479 645 q 418 401 433 477 q 397 252 397 307 q 420 158 397 189 q 493 126 442 126 q 550 131 527 126 q 593 151 573 136 q 634 198 615 166 q 674 283 654 229 q 762 610 713 390 l 854 1039 l 1050 1039 l 958 606 q 911 405 933 488 q 864 258 890 322 q 801 139 836 189 q 721 56 766 89 q 614 7 674 23 q 477 -9 554 -9 z "},"Ū":{"ha":994,"x_min":-7,"x_max":1050,"o":"m 533 1282 l 977 1282 l 957 1179 l 511 1179 l 533 1282 m 477 -9 q 351 5 402 -9 q 268 48 300 19 q 208 211 208 101 q 243 458 208 302 q 279 609 259 532 l 322 778 l 368 961 q 189 850 254 931 q 122 642 122 766 q 132 571 122 595 q 139 556 134 564 q 142 546 142 551 q 33 574 69 546 q -7 673 -7 605 q 13 768 -7 721 q 70 857 33 814 q 154 931 105 897 q 262 990 203 965 q 518 1042 386 1042 q 549 1040 536 1042 q 585 1035 563 1039 q 526 819 543 883 l 479 645 q 418 401 433 477 q 397 252 397 307 q 420 158 397 189 q 493 126 442 126 q 550 131 527 126 q 593 151 573 136 q 634 198 615 166 q 674 283 654 229 q 762 610 713 390 l 854 1039 l 1050 1039 l 958 606 q 911 405 933 488 q 864 258 890 322 q 801 139 836 189 q 721 56 766 89 q 614 7 674 23 q 477 -9 554 -9 z "},"Ų":{"ha":994,"x_min":-7,"x_max":1050,"o":"m 563 1389 l 709 1389 l 749 1126 l 645 1126 l 563 1389 m 477 -297 q 379 -260 418 -297 q 350 -219 360 -243 q 340 -168 340 -195 q 431 -7 340 -79 q 327 13 370 -3 q 258 57 285 28 q 208 211 208 109 q 243 458 208 302 q 279 609 259 532 l 322 778 l 368 961 q 189 850 254 931 q 122 642 122 766 q 132 571 122 595 q 139 556 134 564 q 142 546 142 551 q 33 574 69 546 q -7 673 -7 605 q 13 768 -7 721 q 70 857 33 814 q 154 931 105 897 q 262 990 203 965 q 518 1042 386 1042 q 549 1040 536 1042 q 585 1035 563 1039 q 526 819 543 883 l 479 645 q 418 401 433 477 q 397 252 397 307 q 420 158 397 189 q 493 126 442 126 q 550 131 527 126 q 593 151 573 136 q 634 198 615 166 q 674 283 654 229 q 762 610 713 390 l 854 1039 l 1050 1039 l 958 606 q 912 411 934 492 q 866 267 890 330 q 806 147 839 197 q 730 64 772 97 q 631 12 687 30 q 503 -9 575 -6 q 468 -59 480 -30 q 455 -122 455 -89 q 476 -184 455 -161 q 532 -207 497 -207 q 583 -193 557 -207 q 631 -153 608 -179 l 655 -184 q 582 -264 635 -231 q 530 -289 557 -280 q 477 -297 503 -297 z "},"Ů":{"ha":994,"x_min":-7,"x_max":1050,"o":"m 724 1120 q 652 1149 680 1120 q 626 1218 626 1177 q 633 1260 626 1238 q 654 1300 640 1282 q 692 1332 669 1320 q 744 1344 715 1344 q 820 1314 793 1344 q 844 1238 844 1284 q 817 1156 844 1187 q 724 1120 785 1120 m 729 1169 q 777 1186 761 1169 q 793 1233 793 1203 q 787 1276 793 1262 q 747 1299 776 1299 q 696 1273 714 1299 q 682 1221 682 1253 q 729 1169 682 1169 m 477 -9 q 351 5 402 -9 q 268 48 300 19 q 208 211 208 101 q 243 458 208 302 q 279 609 259 532 l 322 778 l 368 961 q 189 850 254 931 q 122 642 122 766 q 132 571 122 595 q 139 556 134 564 q 142 546 142 551 q 33 574 69 546 q -7 673 -7 605 q 13 768 -7 721 q 70 857 33 814 q 154 931 105 897 q 262 990 203 965 q 518 1042 386 1042 q 549 1040 536 1042 q 585 1035 563 1039 q 526 819 543 883 l 479 645 q 418 401 433 477 q 397 252 397 307 q 420 158 397 189 q 493 126 442 126 q 550 131 527 126 q 593 151 573 136 q 634 198 615 166 q 674 283 654 229 q 762 610 713 390 l 854 1039 l 1050 1039 l 958 606 q 911 405 933 488 q 864 258 890 322 q 801 139 836 189 q 721 56 766 89 q 614 7 674 23 q 477 -9 554 -9 z "},"Ũ":{"ha":994,"x_min":-7,"x_max":1050,"o":"m 801 1137 q 743 1144 770 1137 q 679 1163 715 1150 q 617 1183 640 1177 q 568 1189 593 1189 q 476 1153 516 1189 l 468 1156 q 561 1257 501 1223 q 700 1292 620 1292 q 760 1286 733 1292 q 822 1269 787 1280 q 880 1251 859 1257 q 929 1246 902 1246 q 978 1254 956 1246 q 1017 1278 1001 1262 l 1025 1276 q 999 1227 1019 1252 q 947 1183 978 1202 q 878 1149 916 1162 q 801 1137 839 1137 m 477 -9 q 351 5 402 -9 q 268 48 300 19 q 208 211 208 101 q 243 458 208 302 q 279 609 259 532 l 322 778 l 368 961 q 189 850 254 931 q 122 642 122 766 q 132 571 122 595 q 139 556 134 564 q 142 546 142 551 q 33 574 69 546 q -7 673 -7 605 q 13 768 -7 721 q 70 857 33 814 q 154 931 105 897 q 262 990 203 965 q 518 1042 386 1042 q 549 1040 536 1042 q 585 1035 563 1039 q 526 819 543 883 l 479 645 q 418 401 433 477 q 397 252 397 307 q 420 158 397 189 q 493 126 442 126 q 550 131 527 126 q 593 151 573 136 q 634 198 615 166 q 674 283 654 229 q 762 610 713 390 l 854 1039 l 1050 1039 l 958 606 q 911 405 933 488 q 864 258 890 322 q 801 139 836 189 q 721 56 766 89 q 614 7 674 23 q 477 -9 554 -9 z "},"V":{"ha":854,"x_min":8,"x_max":953,"o":"m 345 949 q 192 833 245 911 q 138 640 138 755 q 147 571 138 597 q 154 555 150 562 q 157 546 157 551 q 47 576 81 546 q 8 681 8 608 q 28 771 8 726 q 83 857 47 815 q 164 930 117 896 q 267 989 212 964 q 496 1042 382 1042 q 551 1039 527 1042 l 564 184 l 856 1035 l 953 1035 l 567 0 l 367 0 l 345 949 z "},"W":{"ha":1336,"x_min":8,"x_max":1434,"o":"m 345 949 q 192 833 245 911 q 138 640 138 755 q 147 571 138 597 q 154 555 150 562 q 157 546 157 551 q 47 576 81 546 q 8 681 8 608 q 28 771 8 726 q 83 857 47 815 q 164 930 117 896 q 267 989 212 964 q 496 1042 382 1042 q 551 1039 527 1042 l 564 184 l 856 1035 l 1032 1035 l 1044 184 l 1336 1035 l 1434 1035 l 1047 0 l 847 0 l 831 707 l 567 0 l 367 0 l 345 949 z "},"Ẃ":{"ha":1336,"x_min":8,"x_max":1434,"o":"m 1032 1389 l 1178 1389 l 1010 1126 l 905 1126 l 1032 1389 m 345 949 q 192 833 245 911 q 138 640 138 755 q 147 571 138 597 q 154 555 150 562 q 157 546 157 551 q 47 576 81 546 q 8 681 8 608 q 28 771 8 726 q 83 857 47 815 q 164 930 117 896 q 267 989 212 964 q 496 1042 382 1042 q 551 1039 527 1042 l 564 184 l 856 1035 l 1032 1035 l 1044 184 l 1336 1035 l 1434 1035 l 1047 0 l 847 0 l 831 707 l 567 0 l 367 0 l 345 949 z "},"Ŵ":{"ha":1336,"x_min":8,"x_max":1434,"o":"m 1036 1389 l 1065 1389 l 1149 1126 l 1104 1126 l 1021 1238 l 803 1126 l 742 1126 l 1036 1389 m 345 949 q 192 833 245 911 q 138 640 138 755 q 147 571 138 597 q 154 555 150 562 q 157 546 157 551 q 47 576 81 546 q 8 681 8 608 q 28 771 8 726 q 83 857 47 815 q 164 930 117 896 q 267 989 212 964 q 496 1042 382 1042 q 551 1039 527 1042 l 564 184 l 856 1035 l 1032 1035 l 1044 184 l 1336 1035 l 1434 1035 l 1047 0 l 847 0 l 831 707 l 567 0 l 367 0 l 345 949 z "},"Ẅ":{"ha":1336,"x_min":8,"x_max":1434,"o":"m 825 1143 q 764 1168 789 1143 q 740 1227 740 1192 q 746 1259 740 1244 q 764 1287 753 1275 q 825 1312 788 1312 q 856 1306 841 1312 q 884 1287 871 1299 q 902 1260 895 1276 q 909 1227 909 1244 q 884 1168 909 1192 q 856 1150 871 1156 q 825 1143 841 1143 m 1074 1143 q 1014 1168 1040 1143 q 989 1227 989 1191 q 996 1260 989 1244 q 1014 1287 1002 1276 q 1074 1312 1039 1312 q 1107 1305 1091 1312 q 1134 1287 1122 1299 q 1152 1260 1145 1276 q 1159 1227 1159 1244 q 1134 1168 1159 1192 q 1106 1150 1122 1156 q 1074 1143 1090 1143 m 345 949 q 192 833 245 911 q 138 640 138 755 q 147 571 138 597 q 154 555 150 562 q 157 546 157 551 q 47 576 81 546 q 8 681 8 608 q 28 771 8 726 q 83 857 47 815 q 164 930 117 896 q 267 989 212 964 q 496 1042 382 1042 q 551 1039 527 1042 l 564 184 l 856 1035 l 1032 1035 l 1044 184 l 1336 1035 l 1434 1035 l 1047 0 l 847 0 l 831 707 l 567 0 l 367 0 l 345 949 z "},"Ẁ":{"ha":1336,"x_min":8,"x_max":1434,"o":"m 804 1389 l 949 1389 l 989 1126 l 886 1126 l 804 1389 m 345 949 q 192 833 245 911 q 138 640 138 755 q 147 571 138 597 q 154 555 150 562 q 157 546 157 551 q 47 576 81 546 q 8 681 8 608 q 28 771 8 726 q 83 857 47 815 q 164 930 117 896 q 267 989 212 964 q 496 1042 382 1042 q 551 1039 527 1042 l 564 184 l 856 1035 l 1032 1035 l 1044 184 l 1336 1035 l 1434 1035 l 1047 0 l 847 0 l 831 707 l 567 0 l 367 0 l 345 949 z "},"X":{"ha":861,"x_min":8,"x_max":869,"o":"m 447 461 l 345 949 q 192 833 245 911 q 138 640 138 755 q 147 571 138 597 q 154 555 150 562 q 157 546 157 551 q 47 576 81 546 q 8 681 8 608 q 28 771 8 726 q 83 857 47 815 q 164 930 117 896 q 267 989 212 964 q 496 1042 382 1042 q 551 1039 527 1042 l 611 750 l 772 1035 l 869 1035 l 636 631 l 766 0 l 546 0 l 472 347 l 271 0 l 186 0 l 447 461 z "},"Y":{"ha":861,"x_min":8,"x_max":970,"o":"m 478 428 l 345 949 q 192 833 245 911 q 138 640 138 755 q 147 571 138 597 q 154 555 150 562 q 157 546 157 551 q 47 576 81 546 q 8 681 8 608 q 28 771 8 726 q 83 857 47 815 q 164 930 117 896 q 267 989 212 964 q 496 1042 382 1042 q 551 1039 527 1042 l 672 542 l 878 1035 l 970 1035 l 700 428 l 608 0 l 386 0 l 478 428 z "},"Ý":{"ha":861,"x_min":8,"x_max":970,"o":"m 810 1389 l 956 1389 l 787 1126 l 684 1126 l 810 1389 m 478 428 l 345 949 q 192 833 245 911 q 138 640 138 755 q 147 571 138 597 q 154 555 150 562 q 157 546 157 551 q 47 576 81 546 q 8 681 8 608 q 28 771 8 726 q 83 857 47 815 q 164 930 117 896 q 267 989 212 964 q 496 1042 382 1042 q 551 1039 527 1042 l 672 542 l 878 1035 l 970 1035 l 700 428 l 608 0 l 386 0 l 478 428 z "},"Ŷ":{"ha":861,"x_min":8,"x_max":970,"o":"m 772 1389 l 801 1389 l 884 1126 l 840 1126 l 756 1238 l 538 1126 l 477 1126 l 772 1389 m 478 428 l 345 949 q 192 833 245 911 q 138 640 138 755 q 147 571 138 597 q 154 555 150 562 q 157 546 157 551 q 47 576 81 546 q 8 681 8 608 q 28 771 8 726 q 83 857 47 815 q 164 930 117 896 q 267 989 212 964 q 496 1042 382 1042 q 551 1039 527 1042 l 672 542 l 878 1035 l 970 1035 l 700 428 l 608 0 l 386 0 l 478 428 z "},"Ÿ":{"ha":861,"x_min":8,"x_max":970,"o":"m 611 1143 q 551 1168 575 1143 q 526 1227 526 1192 q 533 1259 526 1244 q 551 1287 539 1275 q 611 1312 574 1312 q 644 1305 628 1312 q 671 1287 659 1299 q 689 1260 682 1276 q 696 1227 696 1244 q 671 1168 696 1192 q 643 1150 659 1156 q 611 1143 627 1143 m 861 1143 q 801 1168 825 1143 q 777 1227 777 1192 q 783 1259 777 1244 q 801 1287 789 1275 q 861 1312 825 1312 q 921 1287 895 1312 q 939 1260 932 1276 q 946 1227 946 1244 q 921 1168 946 1192 q 861 1143 895 1143 m 478 428 l 345 949 q 192 833 245 911 q 138 640 138 755 q 147 571 138 597 q 154 555 150 562 q 157 546 157 551 q 47 576 81 546 q 8 681 8 608 q 28 771 8 726 q 83 857 47 815 q 164 930 117 896 q 267 989 212 964 q 496 1042 382 1042 q 551 1039 527 1042 l 672 542 l 878 1035 l 970 1035 l 700 428 l 608 0 l 386 0 l 478 428 z "},"Ẏ":{"ha":861,"x_min":8,"x_max":970,"o":"m 727 1141 q 684 1150 705 1141 q 649 1173 664 1158 q 626 1208 634 1187 q 617 1251 617 1228 q 626 1294 617 1273 q 649 1329 634 1314 q 684 1353 664 1344 q 727 1362 705 1362 q 770 1353 749 1362 q 806 1329 790 1344 q 830 1294 821 1314 q 838 1251 838 1273 q 830 1208 838 1228 q 806 1173 821 1187 q 770 1150 790 1158 q 727 1141 749 1141 m 478 428 l 345 949 q 192 833 245 911 q 138 640 138 755 q 147 571 138 597 q 154 555 150 562 q 157 546 157 551 q 47 576 81 546 q 8 681 8 608 q 28 771 8 726 q 83 857 47 815 q 164 930 117 896 q 267 989 212 964 q 496 1042 382 1042 q 551 1039 527 1042 l 672 542 l 878 1035 l 970 1035 l 700 428 l 608 0 l 386 0 l 478 428 z "},"Ỵ":{"ha":861,"x_min":8,"x_max":970,"o":"m 478 428 l 345 949 q 192 833 245 911 q 138 640 138 755 q 147 571 138 597 q 154 555 150 562 q 157 546 157 551 q 47 576 81 546 q 8 681 8 608 q 28 771 8 726 q 83 857 47 815 q 164 930 117 896 q 267 989 212 964 q 496 1042 382 1042 q 551 1039 527 1042 l 672 542 l 878 1035 l 970 1035 l 700 428 l 608 0 l 386 0 l 478 428 m 456 -321 q 414 -312 434 -321 q 378 -289 393 -304 q 355 -254 363 -274 q 347 -211 347 -233 q 355 -168 347 -189 q 378 -132 363 -148 q 414 -108 393 -117 q 456 -100 434 -100 q 499 -108 479 -100 q 535 -132 519 -117 q 559 -168 551 -148 q 568 -211 568 -189 q 559 -254 568 -233 q 535 -289 551 -274 q 499 -312 519 -304 q 456 -321 479 -321 z "},"Ỳ":{"ha":861,"x_min":8,"x_max":970,"o":"m 587 1389 l 732 1389 l 772 1126 l 669 1126 l 587 1389 m 478 428 l 345 949 q 192 833 245 911 q 138 640 138 755 q 147 571 138 597 q 154 555 150 562 q 157 546 157 551 q 47 576 81 546 q 8 681 8 608 q 28 771 8 726 q 83 857 47 815 q 164 930 117 896 q 267 989 212 964 q 496 1042 382 1042 q 551 1039 527 1042 l 672 542 l 878 1035 l 970 1035 l 700 428 l 608 0 l 386 0 l 478 428 z "},"Ỷ":{"ha":861,"x_min":8,"x_max":970,"o":"m 694 1103 l 694 1225 q 755 1219 721 1219 q 804 1232 787 1219 q 821 1268 821 1245 q 755 1318 821 1318 q 673 1296 707 1318 l 636 1354 q 697 1379 661 1369 q 772 1388 734 1388 q 829 1380 802 1388 q 876 1358 856 1372 q 905 1322 895 1343 q 916 1277 916 1301 q 905 1232 916 1253 q 875 1195 895 1211 q 769 1156 833 1161 l 759 1100 l 694 1103 m 478 428 l 345 949 q 192 833 245 911 q 138 640 138 755 q 147 571 138 597 q 154 555 150 562 q 157 546 157 551 q 47 576 81 546 q 8 681 8 608 q 28 771 8 726 q 83 857 47 815 q 164 930 117 896 q 267 989 212 964 q 496 1042 382 1042 q 551 1039 527 1042 l 672 542 l 878 1035 l 970 1035 l 700 428 l 608 0 l 386 0 l 478 428 z "},"Ỹ":{"ha":861,"x_min":8,"x_max":985,"o":"m 762 1137 q 703 1144 730 1137 q 640 1163 676 1150 q 577 1183 601 1177 q 528 1189 554 1189 q 437 1153 477 1189 l 429 1156 q 521 1257 462 1223 q 661 1292 581 1292 q 721 1286 694 1292 q 783 1269 748 1280 q 841 1251 819 1257 q 890 1246 863 1246 q 939 1254 916 1246 q 977 1278 962 1262 l 985 1276 q 959 1227 980 1252 q 908 1183 939 1202 q 838 1149 877 1162 q 762 1137 800 1137 m 478 428 l 345 949 q 192 833 245 911 q 138 640 138 755 q 147 571 138 597 q 154 555 150 562 q 157 546 157 551 q 47 576 81 546 q 8 681 8 608 q 28 771 8 726 q 83 857 47 815 q 164 930 117 896 q 267 989 212 964 q 496 1042 382 1042 q 551 1039 527 1042 l 672 542 l 878 1035 l 970 1035 l 700 428 l 608 0 l 386 0 l 478 428 z "},"Z":{"ha":753,"x_min":16,"x_max":766,"o":"m 501 966 q 446 968 480 966 q 376 970 401 970 q 288 964 319 970 q 249 939 249 956 q 264 929 256 939 q 272 895 272 920 q 243 832 272 854 q 191 815 221 815 q 135 842 153 815 q 119 897 119 863 q 131 949 119 924 q 163 996 142 975 q 290 1042 211 1042 l 766 1042 l 288 90 q 351 89 304 90 q 421 87 399 87 q 511 93 482 87 q 546 103 532 97 q 566 118 559 109 q 549 127 558 118 q 541 161 541 136 q 568 224 541 202 q 624 241 589 241 q 679 216 659 241 q 694 161 694 195 q 682 106 694 134 q 647 54 669 77 q 589 15 623 29 q 517 0 556 0 l 16 0 l 501 966 z "},"Ź":{"ha":753,"x_min":16,"x_max":777,"o":"m 631 1389 l 777 1389 l 608 1126 l 504 1126 l 631 1389 m 501 966 q 446 968 480 966 q 376 970 401 970 q 288 964 319 970 q 249 939 249 956 q 264 929 256 939 q 272 895 272 920 q 243 832 272 854 q 191 815 221 815 q 135 842 153 815 q 119 897 119 863 q 131 949 119 924 q 163 996 142 975 q 290 1042 211 1042 l 766 1042 l 288 90 q 351 89 304 90 q 421 87 399 87 q 511 93 482 87 q 546 103 532 97 q 566 118 559 109 q 549 127 558 118 q 541 161 541 136 q 568 224 541 202 q 624 241 589 241 q 679 216 659 241 q 694 161 694 195 q 682 106 694 134 q 647 54 669 77 q 589 15 623 29 q 517 0 556 0 l 16 0 l 501 966 z "},"Ž":{"ha":753,"x_min":16,"x_max":829,"o":"m 422 1389 l 467 1389 l 550 1278 l 768 1389 l 829 1389 l 534 1126 l 505 1126 l 422 1389 m 501 966 q 446 968 480 966 q 376 970 401 970 q 288 964 319 970 q 249 939 249 956 q 264 929 256 939 q 272 895 272 920 q 243 832 272 854 q 191 815 221 815 q 135 842 153 815 q 119 897 119 863 q 131 949 119 924 q 163 996 142 975 q 290 1042 211 1042 l 766 1042 l 288 90 q 351 89 304 90 q 421 87 399 87 q 511 93 482 87 q 546 103 532 97 q 566 118 559 109 q 549 127 558 118 q 541 161 541 136 q 568 224 541 202 q 624 241 589 241 q 679 216 659 241 q 694 161 694 195 q 682 106 694 134 q 647 54 669 77 q 589 15 623 29 q 517 0 556 0 l 16 0 l 501 966 z "},"Ż":{"ha":736,"x_min":16,"x_max":766,"o":"m 500 1143 q 439 1168 465 1143 q 415 1227 415 1191 q 421 1260 415 1244 q 439 1287 428 1276 q 500 1312 465 1312 q 532 1305 517 1312 q 559 1287 548 1299 q 578 1260 571 1276 q 585 1227 585 1244 q 559 1168 585 1192 q 532 1150 547 1156 q 500 1143 516 1143 m 501 966 q 446 968 480 966 q 376 970 401 970 q 288 964 319 970 q 249 939 249 956 q 264 929 256 939 q 272 895 272 920 q 243 832 272 854 q 191 815 221 815 q 135 842 153 815 q 119 897 119 863 q 131 949 119 924 q 163 996 142 975 q 290 1042 211 1042 l 766 1042 l 288 90 q 351 89 304 90 q 421 87 399 87 q 511 93 482 87 q 546 103 532 97 q 566 118 559 109 q 549 127 558 118 q 541 161 541 136 q 568 224 541 202 q 624 241 589 241 q 679 216 659 241 q 694 161 694 195 q 682 106 694 134 q 647 54 669 77 q 589 15 623 29 q 517 0 556 0 l 16 0 l 501 966 z "},"Ẓ":{"ha":753,"x_min":16,"x_max":777,"o":"m 631 1389 l 777 1389 l 608 1126 l 504 1126 l 631 1389 m 501 966 q 446 968 480 966 q 376 970 401 970 q 288 964 319 970 q 249 939 249 956 q 264 929 256 939 q 272 895 272 920 q 243 832 272 854 q 191 815 221 815 q 135 842 153 815 q 119 897 119 863 q 131 949 119 924 q 163 996 142 975 q 290 1042 211 1042 l 766 1042 l 288 90 q 351 89 304 90 q 421 87 399 87 q 511 93 482 87 q 546 103 532 97 q 566 118 559 109 q 549 127 558 118 q 541 161 541 136 q 568 224 541 202 q 624 241 589 241 q 679 216 659 241 q 694 161 694 195 q 682 106 694 134 q 647 54 669 77 q 589 15 623 29 q 517 0 556 0 l 16 0 l 501 966 m 294 -321 q 251 -312 271 -321 q 216 -289 231 -304 q 192 -254 201 -274 q 184 -211 184 -233 q 192 -168 184 -189 q 216 -132 201 -148 q 251 -108 231 -117 q 294 -100 271 -100 q 336 -108 316 -100 q 372 -132 357 -117 q 396 -168 388 -148 q 405 -211 405 -189 q 396 -254 405 -233 q 372 -289 388 -274 q 336 -312 357 -304 q 294 -321 316 -321 z "},"a":{"ha":730,"x_min":-18,"x_max":789,"o":"m 167 -8 q 39 41 87 -8 q -18 215 -18 100 q -8 318 -18 264 q 20 425 1 372 q 139 618 64 545 q 339 701 226 701 q 424 682 395 701 q 452 631 452 663 l 452 621 l 467 694 l 667 694 l 567 222 q 561 178 561 202 q 618 118 561 118 q 687 157 656 118 q 730 249 713 189 l 789 249 q 699 81 751 143 q 597 8 654 31 q 510 -8 556 -8 q 416 24 451 -8 q 374 119 381 56 q 291 33 334 64 q 167 -8 235 -8 m 257 126 q 290 134 273 126 q 323 157 307 142 q 372 249 360 193 l 439 562 q 436 578 439 569 q 427 595 433 587 q 382 615 411 615 q 328 597 354 615 q 279 546 302 578 q 212 392 238 487 q 193 309 199 350 q 187 235 187 268 q 213 141 187 165 q 233 129 222 132 q 257 126 243 126 z "},"á":{"ha":730,"x_min":-18,"x_max":789,"o":"m 467 1042 l 612 1042 l 444 779 l 340 779 l 467 1042 m 167 -8 q 39 41 87 -8 q -18 215 -18 100 q -8 318 -18 264 q 20 425 1 372 q 139 618 64 545 q 339 701 226 701 q 424 682 395 701 q 452 631 452 663 l 452 621 l 467 694 l 667 694 l 567 222 q 561 178 561 202 q 618 118 561 118 q 687 157 656 118 q 730 249 713 189 l 789 249 q 699 81 751 143 q 597 8 654 31 q 510 -8 556 -8 q 416 24 451 -8 q 374 119 381 56 q 291 33 334 64 q 167 -8 235 -8 m 257 126 q 290 134 273 126 q 323 157 307 142 q 372 249 360 193 l 439 562 q 436 578 439 569 q 427 595 433 587 q 382 615 411 615 q 328 597 354 615 q 279 546 302 578 q 212 392 238 487 q 193 309 199 350 q 187 235 187 268 q 213 141 187 165 q 233 129 222 132 q 257 126 243 126 z "},"ă":{"ha":730,"x_min":-18,"x_max":789,"o":"m 421 819 q 263 867 317 819 q 210 1010 210 916 l 334 1010 q 362 925 334 955 q 443 895 391 895 q 497 904 471 895 q 545 929 524 913 q 578 966 565 945 q 595 1010 591 987 l 714 1010 q 683 936 708 970 q 618 874 658 901 q 528 833 578 848 q 421 819 477 819 m 167 -8 q 39 41 87 -8 q -18 215 -18 100 q -8 318 -18 264 q 20 425 1 372 q 139 618 64 545 q 339 701 226 701 q 424 682 395 701 q 452 631 452 663 l 452 621 l 467 694 l 667 694 l 567 222 q 561 178 561 202 q 618 118 561 118 q 687 157 656 118 q 730 249 713 189 l 789 249 q 699 81 751 143 q 597 8 654 31 q 510 -8 556 -8 q 416 24 451 -8 q 374 119 381 56 q 291 33 334 64 q 167 -8 235 -8 m 257 126 q 290 134 273 126 q 323 157 307 142 q 372 249 360 193 l 439 562 q 436 578 439 569 q 427 595 433 587 q 382 615 411 615 q 328 597 354 615 q 279 546 302 578 q 212 392 238 487 q 193 309 199 350 q 187 235 187 268 q 213 141 187 165 q 233 129 222 132 q 257 126 243 126 z "},"ắ":{"ha":730,"x_min":-18,"x_max":789,"o":"m 507 1175 l 621 1175 l 493 962 l 416 962 l 507 1175 m 426 816 q 287 859 334 816 q 239 986 239 902 l 349 986 q 374 910 349 937 q 446 884 399 884 q 494 892 471 884 q 535 914 517 900 q 579 986 574 945 l 685 986 q 657 919 680 950 q 600 865 635 888 q 519 829 564 842 q 426 816 475 816 m 167 -8 q 39 41 87 -8 q -18 215 -18 100 q -8 318 -18 264 q 20 425 1 372 q 139 618 64 545 q 339 701 226 701 q 424 682 395 701 q 452 631 452 663 l 452 621 l 467 694 l 667 694 l 567 222 q 561 178 561 202 q 618 118 561 118 q 687 157 656 118 q 730 249 713 189 l 789 249 q 699 81 751 143 q 597 8 654 31 q 510 -8 556 -8 q 416 24 451 -8 q 374 119 381 56 q 291 33 334 64 q 167 -8 235 -8 m 257 126 q 290 134 273 126 q 323 157 307 142 q 372 249 360 193 l 439 562 q 436 578 439 569 q 427 595 433 587 q 382 615 411 615 q 328 597 354 615 q 279 546 302 578 q 212 392 238 487 q 193 309 199 350 q 187 235 187 268 q 213 141 187 165 q 233 129 222 132 q 257 126 243 126 z "},"ặ":{"ha":730,"x_min":-18,"x_max":789,"o":"m 421 819 q 263 867 317 819 q 210 1010 210 916 l 334 1010 q 362 925 334 955 q 443 895 391 895 q 497 904 471 895 q 545 929 524 913 q 578 966 565 945 q 595 1010 591 987 l 714 1010 q 683 936 708 970 q 618 874 658 901 q 528 833 578 848 q 421 819 477 819 m 167 -8 q 39 41 87 -8 q -18 215 -18 100 q -8 318 -18 264 q 20 425 1 372 q 139 618 64 545 q 339 701 226 701 q 424 682 395 701 q 452 631 452 663 l 452 621 l 467 694 l 667 694 l 567 222 q 561 178 561 202 q 618 118 561 118 q 687 157 656 118 q 730 249 713 189 l 789 249 q 699 81 751 143 q 597 8 654 31 q 510 -8 556 -8 q 416 24 451 -8 q 374 119 381 56 q 291 33 334 64 q 167 -8 235 -8 m 257 126 q 290 134 273 126 q 323 157 307 142 q 372 249 360 193 l 439 562 q 436 578 439 569 q 427 595 433 587 q 382 615 411 615 q 328 597 354 615 q 279 546 302 578 q 212 392 238 487 q 193 309 199 350 q 187 235 187 268 q 213 141 187 165 q 233 129 222 132 q 257 126 243 126 m 233 -321 q 190 -312 210 -321 q 155 -289 170 -304 q 131 -254 140 -274 q 123 -211 123 -233 q 131 -168 123 -189 q 155 -132 140 -148 q 190 -108 170 -117 q 233 -100 210 -100 q 275 -108 255 -100 q 311 -132 296 -117 q 335 -168 327 -148 q 344 -211 344 -189 q 335 -254 344 -233 q 311 -289 327 -274 q 275 -312 296 -304 q 233 -321 255 -321 z "},"ằ":{"ha":730,"x_min":-18,"x_max":789,"o":"m 357 1174 l 467 1174 l 503 963 l 430 963 l 357 1174 m 426 816 q 287 859 334 816 q 239 986 239 902 l 349 986 q 374 910 349 937 q 446 884 399 884 q 494 892 471 884 q 535 914 517 900 q 579 986 574 945 l 685 986 q 657 919 680 950 q 600 865 635 888 q 519 829 564 842 q 426 816 475 816 m 167 -8 q 39 41 87 -8 q -18 215 -18 100 q -8 318 -18 264 q 20 425 1 372 q 139 618 64 545 q 339 701 226 701 q 424 682 395 701 q 452 631 452 663 l 452 621 l 467 694 l 667 694 l 567 222 q 561 178 561 202 q 618 118 561 118 q 687 157 656 118 q 730 249 713 189 l 789 249 q 699 81 751 143 q 597 8 654 31 q 510 -8 556 -8 q 416 24 451 -8 q 374 119 381 56 q 291 33 334 64 q 167 -8 235 -8 m 257 126 q 290 134 273 126 q 323 157 307 142 q 372 249 360 193 l 439 562 q 436 578 439 569 q 427 595 433 587 q 382 615 411 615 q 328 597 354 615 q 279 546 302 578 q 212 392 238 487 q 193 309 199 350 q 187 235 187 268 q 213 141 187 165 q 233 129 222 132 q 257 126 243 126 z "}}}
